<?xml version="1.0" encoding="utf-8" standalone="no"?>
<!DOCTYPE svg PUBLIC "-//W3C//DTD SVG 1.1//EN"
  "http://www.w3.org/Graphics/SVG/1.1/DTD/svg11.dtd">
<!-- Created with matplotlib (https://matplotlib.org/) -->
<svg height="454.32pt" version="1.1" viewBox="0 0 1380.96 454.32" width="1380.96pt" xmlns="http://www.w3.org/2000/svg" xmlns:xlink="http://www.w3.org/1999/xlink">
 <metadata>
  <rdf:RDF xmlns:cc="http://creativecommons.org/ns#" xmlns:dc="http://purl.org/dc/elements/1.1/" xmlns:rdf="http://www.w3.org/1999/02/22-rdf-syntax-ns#">
   <cc:Work>
    <dc:type rdf:resource="http://purl.org/dc/dcmitype/StillImage"/>
    <dc:date>2021-07-08T17:36:12.913410</dc:date>
    <dc:format>image/svg+xml</dc:format>
    <dc:creator>
     <cc:Agent>
      <dc:title>Matplotlib v3.3.2, https://matplotlib.org/</dc:title>
     </cc:Agent>
    </dc:creator>
   </cc:Work>
  </rdf:RDF>
 </metadata>
 <defs>
  <style type="text/css">*{stroke-linecap:butt;stroke-linejoin:round;}</style>
 </defs>
 <g id="figure_1">
  <g id="patch_1">
   <path d="M 0 454.32 
L 1380.96 454.32 
L 1380.96 0 
L 0 0 
z
" style="fill:#ffffff;"/>
  </g>
  <g id="axes_1">
   <g id="patch_2">
    <path d="M 94.21 397.64 
L 1360.622455 397.64 
L 1360.622455 10.8 
L 94.21 10.8 
z
" style="fill:#ffffff;"/>
   </g>
   <g id="matplotlib.axis_1">
    <g id="xtick_1">
     <g id="line2d_1">
      <defs>
       <path d="M 0 0 
L 0 3.5 
" id="m511bc879ae" style="stroke:#000000;stroke-width:0.8;"/>
      </defs>
      <g>
       <use style="stroke:#000000;stroke-width:0.8;" x="256.436389" xlink:href="#m511bc879ae" y="397.64"/>
      </g>
     </g>
     <g id="text_1">
      <!-- 09-11 -->
      <g transform="translate(198.320764 435.03375)scale(0.4 -0.4)">
       <defs>
        <path d="M 31.78125 66.40625 
Q 24.171875 66.40625 20.328125 58.90625 
Q 16.5 51.421875 16.5 36.375 
Q 16.5 21.390625 20.328125 13.890625 
Q 24.171875 6.390625 31.78125 6.390625 
Q 39.453125 6.390625 43.28125 13.890625 
Q 47.125 21.390625 47.125 36.375 
Q 47.125 51.421875 43.28125 58.90625 
Q 39.453125 66.40625 31.78125 66.40625 
z
M 31.78125 74.21875 
Q 44.046875 74.21875 50.515625 64.515625 
Q 56.984375 54.828125 56.984375 36.375 
Q 56.984375 17.96875 50.515625 8.265625 
Q 44.046875 -1.421875 31.78125 -1.421875 
Q 19.53125 -1.421875 13.0625 8.265625 
Q 6.59375 17.96875 6.59375 36.375 
Q 6.59375 54.828125 13.0625 64.515625 
Q 19.53125 74.21875 31.78125 74.21875 
z
" id="DejaVuSans-48"/>
        <path d="M 10.984375 1.515625 
L 10.984375 10.5 
Q 14.703125 8.734375 18.5 7.8125 
Q 22.3125 6.890625 25.984375 6.890625 
Q 35.75 6.890625 40.890625 13.453125 
Q 46.046875 20.015625 46.78125 33.40625 
Q 43.953125 29.203125 39.59375 26.953125 
Q 35.25 24.703125 29.984375 24.703125 
Q 19.046875 24.703125 12.671875 31.3125 
Q 6.296875 37.9375 6.296875 49.421875 
Q 6.296875 60.640625 12.9375 67.421875 
Q 19.578125 74.21875 30.609375 74.21875 
Q 43.265625 74.21875 49.921875 64.515625 
Q 56.59375 54.828125 56.59375 36.375 
Q 56.59375 19.140625 48.40625 8.859375 
Q 40.234375 -1.421875 26.421875 -1.421875 
Q 22.703125 -1.421875 18.890625 -0.6875 
Q 15.09375 0.046875 10.984375 1.515625 
z
M 30.609375 32.421875 
Q 37.25 32.421875 41.125 36.953125 
Q 45.015625 41.5 45.015625 49.421875 
Q 45.015625 57.28125 41.125 61.84375 
Q 37.25 66.40625 30.609375 66.40625 
Q 23.96875 66.40625 20.09375 61.84375 
Q 16.21875 57.28125 16.21875 49.421875 
Q 16.21875 41.5 20.09375 36.953125 
Q 23.96875 32.421875 30.609375 32.421875 
z
" id="DejaVuSans-57"/>
        <path d="M 4.890625 31.390625 
L 31.203125 31.390625 
L 31.203125 23.390625 
L 4.890625 23.390625 
z
" id="DejaVuSans-45"/>
        <path d="M 12.40625 8.296875 
L 28.515625 8.296875 
L 28.515625 63.921875 
L 10.984375 60.40625 
L 10.984375 69.390625 
L 28.421875 72.90625 
L 38.28125 72.90625 
L 38.28125 8.296875 
L 54.390625 8.296875 
L 54.390625 0 
L 12.40625 0 
z
" id="DejaVuSans-49"/>
       </defs>
       <use xlink:href="#DejaVuSans-48"/>
       <use x="63.623047" xlink:href="#DejaVuSans-57"/>
       <use x="127.246094" xlink:href="#DejaVuSans-45"/>
       <use x="163.330078" xlink:href="#DejaVuSans-49"/>
       <use x="226.953125" xlink:href="#DejaVuSans-49"/>
      </g>
     </g>
    </g>
    <g id="xtick_2">
     <g id="line2d_2">
      <g>
       <use style="stroke:#000000;stroke-width:0.8;" x="465.760761" xlink:href="#m511bc879ae" y="397.64"/>
      </g>
     </g>
     <g id="text_2">
      <!-- 09-13 -->
      <g transform="translate(407.645136 435.03375)scale(0.4 -0.4)">
       <defs>
        <path d="M 40.578125 39.3125 
Q 47.65625 37.796875 51.625 33 
Q 55.609375 28.21875 55.609375 21.1875 
Q 55.609375 10.40625 48.1875 4.484375 
Q 40.765625 -1.421875 27.09375 -1.421875 
Q 22.515625 -1.421875 17.65625 -0.515625 
Q 12.796875 0.390625 7.625 2.203125 
L 7.625 11.71875 
Q 11.71875 9.328125 16.59375 8.109375 
Q 21.484375 6.890625 26.8125 6.890625 
Q 36.078125 6.890625 40.9375 10.546875 
Q 45.796875 14.203125 45.796875 21.1875 
Q 45.796875 27.640625 41.28125 31.265625 
Q 36.765625 34.90625 28.71875 34.90625 
L 20.21875 34.90625 
L 20.21875 43.015625 
L 29.109375 43.015625 
Q 36.375 43.015625 40.234375 45.921875 
Q 44.09375 48.828125 44.09375 54.296875 
Q 44.09375 59.90625 40.109375 62.90625 
Q 36.140625 65.921875 28.71875 65.921875 
Q 24.65625 65.921875 20.015625 65.03125 
Q 15.375 64.15625 9.8125 62.3125 
L 9.8125 71.09375 
Q 15.4375 72.65625 20.34375 73.4375 
Q 25.25 74.21875 29.59375 74.21875 
Q 40.828125 74.21875 47.359375 69.109375 
Q 53.90625 64.015625 53.90625 55.328125 
Q 53.90625 49.265625 50.4375 45.09375 
Q 46.96875 40.921875 40.578125 39.3125 
z
" id="DejaVuSans-51"/>
       </defs>
       <use xlink:href="#DejaVuSans-48"/>
       <use x="63.623047" xlink:href="#DejaVuSans-57"/>
       <use x="127.246094" xlink:href="#DejaVuSans-45"/>
       <use x="163.330078" xlink:href="#DejaVuSans-49"/>
       <use x="226.953125" xlink:href="#DejaVuSans-51"/>
      </g>
     </g>
    </g>
    <g id="xtick_3">
     <g id="line2d_3">
      <g>
       <use style="stroke:#000000;stroke-width:0.8;" x="675.085134" xlink:href="#m511bc879ae" y="397.64"/>
      </g>
     </g>
     <g id="text_3">
      <!-- 09-15 -->
      <g transform="translate(616.969509 435.03375)scale(0.4 -0.4)">
       <defs>
        <path d="M 10.796875 72.90625 
L 49.515625 72.90625 
L 49.515625 64.59375 
L 19.828125 64.59375 
L 19.828125 46.734375 
Q 21.96875 47.46875 24.109375 47.828125 
Q 26.265625 48.1875 28.421875 48.1875 
Q 40.625 48.1875 47.75 41.5 
Q 54.890625 34.8125 54.890625 23.390625 
Q 54.890625 11.625 47.5625 5.09375 
Q 40.234375 -1.421875 26.90625 -1.421875 
Q 22.3125 -1.421875 17.546875 -0.640625 
Q 12.796875 0.140625 7.71875 1.703125 
L 7.71875 11.625 
Q 12.109375 9.234375 16.796875 8.0625 
Q 21.484375 6.890625 26.703125 6.890625 
Q 35.15625 6.890625 40.078125 11.328125 
Q 45.015625 15.765625 45.015625 23.390625 
Q 45.015625 31 40.078125 35.4375 
Q 35.15625 39.890625 26.703125 39.890625 
Q 22.75 39.890625 18.8125 39.015625 
Q 14.890625 38.140625 10.796875 36.28125 
z
" id="DejaVuSans-53"/>
       </defs>
       <use xlink:href="#DejaVuSans-48"/>
       <use x="63.623047" xlink:href="#DejaVuSans-57"/>
       <use x="127.246094" xlink:href="#DejaVuSans-45"/>
       <use x="163.330078" xlink:href="#DejaVuSans-49"/>
       <use x="226.953125" xlink:href="#DejaVuSans-53"/>
      </g>
     </g>
    </g>
    <g id="xtick_4">
     <g id="line2d_4">
      <g>
       <use style="stroke:#000000;stroke-width:0.8;" x="884.409507" xlink:href="#m511bc879ae" y="397.64"/>
      </g>
     </g>
     <g id="text_4">
      <!-- 09-17 -->
      <g transform="translate(826.293882 435.03375)scale(0.4 -0.4)">
       <defs>
        <path d="M 8.203125 72.90625 
L 55.078125 72.90625 
L 55.078125 68.703125 
L 28.609375 0 
L 18.3125 0 
L 43.21875 64.59375 
L 8.203125 64.59375 
z
" id="DejaVuSans-55"/>
       </defs>
       <use xlink:href="#DejaVuSans-48"/>
       <use x="63.623047" xlink:href="#DejaVuSans-57"/>
       <use x="127.246094" xlink:href="#DejaVuSans-45"/>
       <use x="163.330078" xlink:href="#DejaVuSans-49"/>
       <use x="226.953125" xlink:href="#DejaVuSans-55"/>
      </g>
     </g>
    </g>
    <g id="xtick_5">
     <g id="line2d_5">
      <g>
       <use style="stroke:#000000;stroke-width:0.8;" x="1093.733879" xlink:href="#m511bc879ae" y="397.64"/>
      </g>
     </g>
     <g id="text_5">
      <!-- 09-19 -->
      <g transform="translate(1035.618254 435.03375)scale(0.4 -0.4)">
       <use xlink:href="#DejaVuSans-48"/>
       <use x="63.623047" xlink:href="#DejaVuSans-57"/>
       <use x="127.246094" xlink:href="#DejaVuSans-45"/>
       <use x="163.330078" xlink:href="#DejaVuSans-49"/>
       <use x="226.953125" xlink:href="#DejaVuSans-57"/>
      </g>
     </g>
    </g>
    <g id="xtick_6">
     <g id="line2d_6">
      <g>
       <use style="stroke:#000000;stroke-width:0.8;" x="1303.058252" xlink:href="#m511bc879ae" y="397.64"/>
      </g>
     </g>
     <g id="text_6">
      <!-- 09-21 -->
      <g transform="translate(1244.942627 435.03375)scale(0.4 -0.4)">
       <defs>
        <path d="M 19.1875 8.296875 
L 53.609375 8.296875 
L 53.609375 0 
L 7.328125 0 
L 7.328125 8.296875 
Q 12.9375 14.109375 22.625 23.890625 
Q 32.328125 33.6875 34.8125 36.53125 
Q 39.546875 41.84375 41.421875 45.53125 
Q 43.3125 49.21875 43.3125 52.78125 
Q 43.3125 58.59375 39.234375 62.25 
Q 35.15625 65.921875 28.609375 65.921875 
Q 23.96875 65.921875 18.8125 64.3125 
Q 13.671875 62.703125 7.8125 59.421875 
L 7.8125 69.390625 
Q 13.765625 71.78125 18.9375 73 
Q 24.125 74.21875 28.421875 74.21875 
Q 39.75 74.21875 46.484375 68.546875 
Q 53.21875 62.890625 53.21875 53.421875 
Q 53.21875 48.921875 51.53125 44.890625 
Q 49.859375 40.875 45.40625 35.40625 
Q 44.1875 33.984375 37.640625 27.21875 
Q 31.109375 20.453125 19.1875 8.296875 
z
" id="DejaVuSans-50"/>
       </defs>
       <use xlink:href="#DejaVuSans-48"/>
       <use x="63.623047" xlink:href="#DejaVuSans-57"/>
       <use x="127.246094" xlink:href="#DejaVuSans-45"/>
       <use x="163.330078" xlink:href="#DejaVuSans-50"/>
       <use x="226.953125" xlink:href="#DejaVuSans-49"/>
      </g>
     </g>
    </g>
   </g>
   <g id="matplotlib.axis_2">
    <g id="ytick_1">
     <g id="line2d_7">
      <defs>
       <path d="M 0 0 
L -3.5 0 
" id="m63c40d2be1" style="stroke:#000000;stroke-width:0.8;"/>
      </defs>
      <g>
       <use style="stroke:#000000;stroke-width:0.8;" x="94.21" xlink:href="#m63c40d2be1" y="397.64"/>
      </g>
     </g>
     <g id="text_7">
      <!-- 0 -->
      <g transform="translate(61.76 412.836875)scale(0.4 -0.4)">
       <use xlink:href="#DejaVuSans-48"/>
      </g>
     </g>
    </g>
    <g id="ytick_2">
     <g id="line2d_8">
      <g>
       <use style="stroke:#000000;stroke-width:0.8;" x="94.21" xlink:href="#m63c40d2be1" y="242.904"/>
      </g>
     </g>
     <g id="text_8">
      <!-- 100 -->
      <g transform="translate(10.86 258.100875)scale(0.4 -0.4)">
       <use xlink:href="#DejaVuSans-49"/>
       <use x="63.623047" xlink:href="#DejaVuSans-48"/>
       <use x="127.246094" xlink:href="#DejaVuSans-48"/>
      </g>
     </g>
    </g>
    <g id="ytick_3">
     <g id="line2d_9">
      <g>
       <use style="stroke:#000000;stroke-width:0.8;" x="94.21" xlink:href="#m63c40d2be1" y="88.168"/>
      </g>
     </g>
     <g id="text_9">
      <!-- 200 -->
      <g transform="translate(10.86 103.364875)scale(0.4 -0.4)">
       <use xlink:href="#DejaVuSans-50"/>
       <use x="63.623047" xlink:href="#DejaVuSans-48"/>
       <use x="127.246094" xlink:href="#DejaVuSans-48"/>
      </g>
     </g>
    </g>
   </g>
   <g id="line2d_10">
    <path clip-path="url(#pbd9ec9bace)" d="M 151.774202 397.483294 
L 156.135127 397.46714 
L 160.496051 397.322671 
L 164.856976 396.602838 
L 169.2179 396.202117 
L 173.578825 397.498569 
L 182.300673 396.797708 
L 186.661598 394.269225 
L 191.022522 386.419796 
L 195.383447 390.136292 
L 199.744371 393.241609 
M 452.677988 345.998082 
L 457.038913 346.870127 
L 461.399837 354.122876 
L 465.760761 356.491396 
L 470.121686 355.666381 
L 474.48261 355.772201 
L 478.843535 356.569969 
L 483.204459 360.942548 
L 487.565384 366.457201 
L 491.926308 367.24802 
L 496.287232 366.539935 
L 500.648157 364.637816 
L 505.009081 354.605648 
L 509.370006 351.96695 
L 513.73093 348.524571 
L 518.091855 351.267775 
L 522.452779 352.389146 
L 526.813703 352.300829 
L 531.174628 351.446572 
L 535.535552 351.435233 
L 539.896477 350.514694 
L 544.257401 345.12752 
L 552.97925 337.015437 
L 557.340174 335.047783 
L 561.701099 337.552137 
L 566.062023 337.985565 
L 570.422948 342.047798 
L 574.783872 348.575602 
L 579.144797 352.063816 
L 583.505721 350.804636 
L 587.866646 352.849937 
L 592.22757 350.890824 
L 596.588494 357.994705 
L 600.949419 359.282405 
L 605.310343 358.192498 
L 609.671268 359.579309 
L 614.032192 355.871736 
L 618.393117 350.008243 
L 622.754041 342.916868 
L 627.114965 339.680273 
L 631.47589 346.210138 
L 640.197739 360.496421 
L 644.558663 339.476444 
L 648.919588 334.234273 
L 653.280512 345.397342 
L 657.641436 343.02756 
L 662.002361 347.989813 
L 666.363285 352.602832 
L 670.72421 354.774579 
L 675.085134 354.982797 
L 679.446059 357.225792 
L 683.806983 356.654002 
L 688.167907 356.907832 
L 692.528832 353.505184 
L 696.889756 353.112581 
L 701.250681 354.319774 
L 705.611605 348.216402 
L 709.97253 345.458724 
L 714.333454 346.663144 
L 718.694378 350.73622 
L 723.055303 360.122838 
L 727.416227 361.236975 
L 731.777152 358.863218 
L 736.138076 376.728594 
L 740.499001 370.108072 
L 744.859925 358.058925 
L 749.220849 352.562753 
L 753.581774 348.798806 
L 757.942698 347.156941 
L 762.303623 342.738219 
L 766.664547 347.997671 
L 771.025472 350.80665 
L 775.386396 339.205368 
L 779.74732 336.477364 
L 784.108245 347.616592 
L 788.469169 362.157952 
L 792.830094 367.18909 
L 797.191018 369.577958 
L 801.551943 370.185192 
L 805.912867 370.414506 
L 810.273791 369.244959 
L 814.634716 363.739742 
L 818.99564 361.948281 
L 823.356565 364.195123 
L 827.717489 365.212983 
L 832.078414 371.730601 
L 836.439338 377.521421 
L 840.800262 382.129719 
L 845.161187 385.330781 
L 849.522111 386.616229 
L 853.883036 380.923625 
L 858.24396 378.275115 
L 862.604885 376.389972 
L 866.965809 376.94391 
L 871.326733 376.147837 
L 875.687658 378.747157 
L 880.048582 381.150661 
L 884.409507 376.146396 
L 888.770431 362.997228 
L 893.131356 369.205783 
L 897.49228 371.180591 
L 901.853204 378.549349 
L 906.214129 381.968644 
L 910.575053 381.740783 
L 914.935978 383.787232 
L 919.296902 386.510155 
L 923.657827 387.810646 
L 928.018751 384.530119 
L 932.379675 381.446135 
L 936.7406 384.637791 
L 941.101524 386.258722 
L 945.462449 389.440923 
L 949.823373 389.365948 
L 954.184298 381.444484 
L 958.545222 363.951889 
L 962.906147 343.613305 
L 967.267071 347.741043 
L 971.627995 345.000116 
L 975.98892 332.416674 
L 980.349844 351.0632 
L 984.710769 356.254071 
L 989.071693 356.051388 
L 993.432618 359.323948 
L 997.793542 372.89228 
L 1002.154466 378.10286 
L 1006.515391 380.3304 
L 1010.876315 381.029214 
L 1015.23724 384.475118 
L 1019.598164 384.129398 
L 1023.959089 384.194666 
L 1028.320013 381.202559 
L 1032.680937 377.800354 
L 1037.041862 372.500615 
L 1041.402786 375.376063 
L 1045.763711 382.228012 
L 1050.124635 380.950862 
L 1054.48556 385.836156 
L 1058.846484 387.209454 
L 1063.207408 387.621961 
L 1067.568333 388.296433 
L 1071.929257 383.009734 
L 1076.290182 378.08315 
L 1080.651106 378.715969 
L 1085.012031 386.956601 
L 1089.372955 390.148078 
L 1093.733879 395.320758 
L 1098.094804 397.14892 
L 1102.455728 397.573213 
L 1111.177577 397.64 
L 1132.982199 397.64 
L 1137.343124 396.872143 
L 1141.704048 397.502498 
L 1150.425897 397.498569 
L 1154.786821 390.933807 
L 1159.147746 390.729517 
L 1163.50867 396.151044 
L 1167.869595 395.708604 
L 1172.230519 393.600065 
L 1176.591444 392.239752 
L 1185.313292 393.091622 
L 1189.674217 394.284939 
L 1194.035141 395.066112 
L 1202.75699 395.632464 
L 1207.117915 395.289417 
L 1211.478839 395.329958 
L 1215.839763 395.200313 
L 1220.200688 394.112079 
L 1224.561612 392.676352 
L 1228.922537 396.010263 
L 1233.283461 396.818914 
L 1246.366234 396.716769 
L 1250.727159 395.528393 
L 1255.088083 394.548984 
L 1259.449008 395.864253 
L 1263.809932 397.32178 
L 1272.531781 397.196063 
L 1276.892705 397.068025 
L 1281.25363 396.51248 
L 1285.614554 395.808035 
L 1289.975479 396.484979 
L 1294.336403 397.507172 
L 1298.697328 397.447497 
L 1303.058252 397.538141 
L 1303.058252 397.538141 
" style="fill:none;stroke:#0000ff;stroke-linecap:square;stroke-width:3;"/>
   </g>
   <g id="line2d_11">
    <path clip-path="url(#pbd9ec9bace)" d="M 208.46622 336.174395 
L 212.827145 330.445285 
L 217.188069 330.367904 
L 221.548993 317.546183 
L 225.909918 303.803912 
L 230.270842 295.183609 
L 234.631767 307.395148 
L 238.992691 311.878984 
L 243.353616 314.895565 
L 247.71454 312.411783 
L 252.075464 312.907034 
L 256.436389 298.845002 
L 260.797313 285.560291 
L 265.158238 249.365232 
L 269.519162 236.119698 
L 273.880087 244.807941 
L 278.241011 241.960896 
L 282.601935 230.834804 
L 286.96286 215.870367 
L 291.323784 197.346008 
L 300.045633 168.002223 
L 304.406558 157.733503 
L 308.767482 83.698231 
L 313.128406 66.79721 
L 317.489331 87.500178 
L 321.850255 114.457446 
L 326.21118 142.612013 
L 330.572104 145.778 
L 334.933029 158.284064 
L 339.293953 160.335549 
L 343.654877 156.165975 
L 348.015802 141.009271 
L 352.376726 114.9107 
L 356.737651 116.266298 
L 361.098575 125.027874 
L 365.4595 132.236612 
L 369.820424 136.803654 
L 374.181348 146.878664 
L 378.542273 162.754977 
L 382.903197 169.448716 
L 387.264122 177.135738 
L 391.625046 179.631758 
L 395.985971 176.904598 
L 400.346895 173.157355 
L 404.707819 173.051281 
L 409.068744 172.634845 
L 413.429668 169.586219 
L 417.790593 167.631548 
L 422.151517 167.921453 
L 426.512442 166.029234 
L 430.873366 168.644396 
L 435.23429 174.231938 
L 439.595215 172.913779 
L 443.956139 170.734318 
L 448.317064 184.573991 
L 452.677988 189.213718 
L 457.038913 188.557634 
L 461.399837 183.893664 
L 465.760761 184.020052 
L 470.121686 171.466916 
L 474.48261 171.035976 
L 478.843535 174.037371 
L 483.204459 169.49586 
L 487.565384 177.180285 
L 491.926308 182.861102 
L 496.287232 185.241332 
L 500.648157 176.280626 
L 505.009081 174.663709 
L 509.370006 176.056693 
L 513.73093 177.319867 
L 518.091855 182.98869 
L 522.452779 183.396124 
L 526.813703 179.926406 
L 531.174628 153.383098 
L 535.535552 128.160086 
L 539.896477 129.798917 
L 544.257401 144.540989 
L 548.618326 152.05034 
L 552.97925 156.846947 
L 557.340174 162.019653 
L 561.701099 164.801132 
L 566.062023 163.528251 
L 570.422948 166.2233 
L 574.783872 178.307112 
L 579.144797 181.890728 
L 583.505721 181.268847 
L 587.866646 184.727208 
L 592.22757 183.650759 
L 596.588494 183.858978 
L 600.949419 186.710446 
L 605.310343 178.975675 
L 609.671268 173.994521 
L 614.032192 154.511378 
L 618.393117 155.1382 
L 622.754041 145.077706 
L 627.114965 150.001935 
L 631.47589 159.19103 
L 635.836814 159.012744 
L 640.197739 155.633534 
L 644.558663 160.983316 
L 653.280512 170.580165 
L 657.641436 162.060667 
L 662.002361 168.587452 
L 670.72421 173.355218 
L 675.085134 171.388563 
L 679.446059 168.912616 
L 683.806983 173.947012 
L 688.167907 169.860684 
L 692.528832 149.74561 
L 696.889756 168.757275 
L 701.250681 176.344375 
L 705.611605 182.717081 
L 709.97253 173.421817 
L 714.333454 182.513933 
L 718.694378 178.779243 
L 723.055303 181.721796 
L 727.416227 185.230074 
L 731.777152 198.233881 
L 736.138076 274.731939 
L 740.499001 257.234238 
L 744.859925 237.736384 
L 749.220849 214.007044 
L 753.581774 207.130018 
L 757.942698 208.443339 
L 762.303623 211.504493 
L 766.664547 207.147175 
L 771.025472 211.103127 
L 775.386396 214.462994 
L 779.74732 219.545495 
L 784.108245 233.557563 
L 788.469169 246.003899 
L 797.191018 250.421971 
L 801.551943 253.678552 
L 805.912867 257.077092 
L 814.634716 255.313131 
L 818.99564 262.007716 
L 823.356565 270.170705 
L 827.717489 277.447348 
L 832.078414 287.453358 
L 836.439338 295.808832 
L 840.800262 295.852796 
L 845.161187 298.881779 
L 849.522111 309.186609 
L 853.883036 302.841851 
L 858.24396 306.970183 
L 862.604885 308.114001 
L 871.326733 298.288697 
L 875.687658 291.409325 
L 880.048582 287.080532 
L 884.409507 284.667069 
L 888.770431 283.891377 
L 893.131356 285.952055 
L 897.49228 286.386913 
L 901.853204 288.783851 
L 906.214129 289.172353 
L 910.575053 290.445586 
L 914.935978 303.67545 
L 919.296902 312.231042 
L 923.657827 315.520699 
L 928.018751 315.383544 
L 932.379675 320.402176 
L 936.7406 328.401231 
L 941.101524 329.156033 
L 945.462449 322.179708 
L 949.823373 314.732119 
L 954.184298 319.22822 
L 958.545222 319.302864 
L 962.906147 313.622047 
L 967.267071 311.044199 
L 971.627995 311.060198 
L 975.98892 309.657683 
L 980.349844 309.140555 
L 984.710769 310.915179 
L 989.071693 312.836318 
L 993.432618 308.98537 
L 997.793542 306.766565 
L 1002.154466 306.900139 
L 1006.515391 303.069712 
L 1010.876315 310.711528 
L 1015.23724 319.526797 
L 1019.598164 316.59582 
L 1023.959089 311.024939 
L 1028.320013 305.678331 
L 1032.680937 307.959918 
L 1037.041862 307.371576 
L 1041.402786 314.056062 
L 1045.763711 328.708035 
L 1050.124635 332.658136 
L 1054.48556 338.441851 
L 1058.846484 339.067392 
L 1063.207408 339.980202 
L 1067.568333 340.473332 
L 1071.929257 338.311288 
L 1076.290182 337.629619 
L 1080.651106 338.671711 
L 1085.012031 340.998788 
L 1089.372955 367.82801 
L 1093.733879 382.978305 
L 1098.094804 389.7724 
L 1102.455728 392.284589 
L 1106.816653 396.587124 
L 1111.177577 396.656673 
L 1115.538502 397.074275 
L 1119.899426 396.877843 
L 1124.26035 397.056272 
L 1128.621275 397.483294 
L 1137.343124 396.850343 
L 1141.704048 397.529377 
L 1150.425897 397.577318 
L 1163.50867 397.212977 
L 1167.869595 396.737807 
L 1172.230519 393.570636 
L 1176.591444 392.729108 
L 1180.952368 392.923164 
L 1185.313292 394.265296 
L 1194.035141 395.994592 
L 1198.396066 396.520337 
L 1202.75699 396.732484 
L 1207.117915 396.386763 
L 1211.478839 396.378906 
L 1215.839763 396.253189 
L 1220.200688 395.148382 
L 1224.561612 393.664214 
L 1228.922537 396.605744 
L 1233.283461 397.215707 
L 1237.644386 397.404281 
L 1246.366234 397.188206 
L 1250.727159 396.800842 
L 1255.088083 396.264975 
L 1259.449008 396.652755 
L 1263.809932 397.518553 
L 1272.531781 397.554053 
L 1276.892705 396.840802 
L 1281.25363 397.372852 
L 1285.614554 396.719355 
L 1289.975479 395.102827 
L 1294.336403 394.406727 
L 1298.697328 391.83406 
L 1303.058252 392.794158 
L 1303.058252 392.794158 
" style="fill:none;stroke:#ff0000;stroke-linecap:square;stroke-width:3;"/>
   </g>
   <g id="line2d_12">
    <path clip-path="url(#pbd9ec9bace)" d="M 151.774202 375.20328 
L 156.135127 375.744856 
L 160.496051 372.804872 
L 164.856976 370.096992 
L 169.2179 364.294392 
L 173.578825 362.360192 
L 177.939749 361.509144 
L 182.300673 351.528672 
L 186.661598 354.31392 
L 191.022522 345.571336 
L 195.383447 343.09556 
L 199.744371 348.51132 
L 204.105296 341.006624 
L 208.46622 347.273432 
L 212.827145 343.405032 
L 217.188069 343.637136 
L 221.548993 337.370328 
L 225.909918 334.97192 
L 230.270842 329.091952 
L 234.631767 327.699328 
L 238.992691 331.722464 
L 243.353616 324.295136 
L 247.71454 330.097736 
L 252.075464 328.937216 
L 256.436389 314.624136 
L 260.797313 291.026896 
L 265.158238 279.034856 
L 269.519162 289.556904 
L 273.880087 290.562688 
L 278.241011 278.570648 
L 282.601935 267.042816 
L 286.96286 241.124536 
L 291.323784 224.026208 
L 295.684709 213.272056 
L 300.045633 192.846904 
L 304.406558 158.57288 
L 308.767482 121.281504 
L 313.128406 101.630032 
L 317.489331 117.645208 
L 321.850255 128.863568 
L 326.21118 185.496944 
L 330.572104 213.272056 
L 334.933029 221.008856 
L 339.293953 219.848336 
L 343.654877 194.316896 
L 348.015802 162.209176 
L 352.376726 169.636504 
L 356.737651 159.191824 
L 361.098575 170.255448 
L 365.4595 173.2728 
L 374.181348 186.270624 
L 378.542273 190.216392 
L 382.903197 193.233744 
L 387.264122 195.941624 
L 391.625046 190.371128 
L 395.985971 190.448496 
L 400.346895 177.1412 
L 404.707819 175.748576 
L 409.068744 179.46224 
L 413.429668 173.504904 
L 417.790593 170.797024 
L 422.151517 173.427536 
L 426.512442 169.79124 
L 430.873366 176.986464 
L 435.23429 172.731224 
L 439.595215 173.427536 
L 443.956139 178.843296 
L 448.317064 189.13324 
L 452.677988 193.543216 
L 457.038913 195.167944 
L 461.399837 197.64372 
L 465.760761 195.167944 
L 470.121686 198.185296 
L 474.48261 192.460064 
L 478.843535 191.45428 
L 483.204459 200.661072 
L 487.565384 200.661072 
L 491.926308 199.732656 
L 496.287232 200.428968 
L 500.648157 192.22796 
L 505.009081 173.350168 
L 509.370006 173.118064 
L 513.73093 167.005992 
L 518.091855 170.95176 
L 522.452779 171.029128 
L 526.813703 162.673384 
L 531.174628 151.841864 
L 535.535552 132.964072 
L 539.896477 124.376224 
L 544.257401 123.447808 
L 548.618326 136.058792 
L 552.97925 142.248232 
L 557.340174 145.03348 
L 561.701099 149.752928 
L 566.062023 150.83608 
L 570.422948 157.180256 
L 574.783872 152.77028 
L 579.144797 161.822336 
L 583.505721 164.220744 
L 587.866646 167.624936 
L 592.22757 134.5888 
L 596.588494 163.21496 
L 600.949419 164.607584 
L 605.310343 154.240272 
L 609.671268 145.03348 
L 614.032192 137.760888 
L 618.393117 129.94672 
L 622.754041 123.679912 
L 627.114965 117.877312 
L 631.47589 107.355264 
L 635.836814 97.839 
L 640.197739 105.807904 
L 644.558663 111.533136 
L 648.919588 127.393576 
L 653.280512 134.434064 
L 657.641436 136.600368 
L 662.002361 139.23088 
L 666.363285 136.445632 
L 670.72421 139.153512 
L 675.085134 135.285112 
L 679.446059 138.921408 
L 683.806983 143.563488 
L 688.167907 147.663992 
L 692.528832 149.28872 
L 696.889756 143.950328 
L 701.250681 148.050832 
L 705.611605 140.700872 
L 709.97253 91.26272 
L 714.333454 95.9048 
L 718.694378 132.6546 
L 723.055303 131.339344 
L 727.416227 145.03348 
L 731.777152 146.116632 
L 736.138076 161.744968 
L 740.499001 147.431888 
L 744.859925 161.977072 
L 749.220849 168.475984 
L 757.942698 171.802808 
L 762.303623 176.676992 
L 766.664547 178.998032 
L 771.025472 177.52804 
L 775.386396 192.382696 
L 779.74732 203.910528 
L 784.108245 218.455712 
L 788.469169 226.424616 
L 792.830094 229.287232 
L 797.191018 233.078264 
L 801.551943 241.820848 
L 805.912867 237.87508 
L 810.273791 235.399304 
L 814.634716 238.958232 
L 818.99564 233.61984 
L 823.356565 256.211296 
L 827.717489 257.449184 
L 832.078414 257.21708 
L 836.439338 273.46436 
L 840.800262 274.005936 
L 845.161187 286.152712 
L 849.522111 291.491104 
L 853.883036 284.063776 
L 858.24396 282.516416 
L 862.604885 281.510632 
L 866.965809 273.309624 
L 871.326733 275.862768 
L 875.687658 288.860592 
L 880.048582 289.3248 
L 884.409507 281.897472 
L 888.770431 268.899648 
L 893.131356 275.475928 
L 897.49228 283.754304 
L 901.853204 264.876512 
L 906.214129 266.733344 
L 910.575053 284.218512 
L 914.935978 295.591608 
L 919.296902 291.568472 
L 923.657827 293.812144 
L 928.018751 320.194632 
L 932.379675 338.144008 
L 936.7406 336.828752 
L 941.101524 327.003016 
L 945.462449 316.326232 
L 949.823373 318.3378 
L 954.184298 320.813576 
L 958.545222 310.910472 
L 967.267071 307.274176 
L 971.627995 309.285744 
L 975.98892 310.98784 
L 980.349844 309.44048 
L 984.710769 308.821536 
L 989.071693 307.428912 
L 993.432618 309.904688 
L 997.793542 306.113656 
L 1002.154466 308.125224 
L 1006.515391 311.606784 
L 1010.876315 308.434696 
L 1015.23724 306.964704 
L 1023.959089 301.31684 
L 1028.320013 303.173672 
L 1032.680937 297.44844 
L 1037.041862 309.82732 
L 1041.402786 327.080384 
L 1045.763711 328.318272 
L 1050.124635 343.09556 
L 1054.48556 354.778128 
L 1058.846484 354.623392 
L 1063.207408 353.617608 
L 1067.568333 355.0876 
L 1071.929257 352.998664 
L 1076.290182 359.34284 
L 1080.651106 360.580728 
L 1085.012031 373.733288 
L 1089.372955 382.630608 
L 1093.733879 386.80848 
L 1098.094804 388.820048 
L 1102.455728 391.373192 
L 1111.177577 394.700016 
L 1115.538502 389.825832 
L 1119.899426 389.671096 
L 1124.26035 388.433208 
L 1128.621275 389.671096 
L 1132.982199 392.920552 
L 1137.343124 393.848968 
L 1141.704048 391.992136 
L 1146.064973 393.38476 
L 1150.425897 393.152656 
L 1154.786821 390.831616 
L 1159.147746 389.9032 
L 1163.50867 391.295824 
L 1167.869595 388.974784 
L 1172.230519 389.9032 
L 1176.591444 388.433208 
L 1180.952368 388.433208 
L 1185.313292 390.986352 
L 1189.674217 391.45056 
L 1194.035141 390.67688 
L 1198.396066 391.373192 
L 1202.75699 392.22424 
L 1211.478839 392.146872 
L 1215.839763 385.183752 
L 1220.200688 388.201104 
L 1224.561612 391.605296 
L 1228.922537 392.765816 
L 1233.283461 390.367408 
L 1237.644386 390.67688 
L 1242.00531 388.665312 
L 1246.366234 389.284256 
L 1250.727159 392.069504 
L 1255.088083 390.522144 
L 1259.449008 391.06372 
L 1263.809932 388.897416 
L 1268.170857 391.218456 
L 1272.531781 392.920552 
L 1276.892705 391.760032 
L 1281.25363 387.040584 
L 1285.614554 386.885848 
L 1289.975479 387.19532 
L 1294.336403 386.112168 
L 1298.697328 383.017448 
L 1303.058252 388.974784 
L 1303.058252 388.974784 
" style="fill:none;stroke:#008000;stroke-linecap:square;stroke-width:3;"/>
   </g>
   <g id="patch_3">
    <path d="M 94.21 397.64 
L 94.21 10.8 
" style="fill:none;stroke:#000000;stroke-linecap:square;stroke-linejoin:miter;stroke-width:0.8;"/>
   </g>
   <g id="patch_4">
    <path d="M 1360.622455 397.64 
L 1360.622455 10.8 
" style="fill:none;stroke:#000000;stroke-linecap:square;stroke-linejoin:miter;stroke-width:0.8;"/>
   </g>
   <g id="patch_5">
    <path d="M 94.21 397.64 
L 1360.622455 397.64 
" style="fill:none;stroke:#000000;stroke-linecap:square;stroke-linejoin:miter;stroke-width:0.8;"/>
   </g>
   <g id="patch_6">
    <path d="M 94.21 10.8 
L 1360.622455 10.8 
" style="fill:none;stroke:#000000;stroke-linecap:square;stroke-linejoin:miter;stroke-width:0.8;"/>
   </g>
  </g>
 </g>
 <defs>
  <clipPath id="pbd9ec9bace">
   <rect height="386.84" width="1266.412455" x="94.21" y="10.8"/>
  </clipPath>
 </defs>
</svg>
