<?xml version="1.0" encoding="utf-8" standalone="no"?>
<!DOCTYPE svg PUBLIC "-//W3C//DTD SVG 1.1//EN"
  "http://www.w3.org/Graphics/SVG/1.1/DTD/svg11.dtd">
<!-- Created with matplotlib (https://matplotlib.org/) -->
<svg height="454.32pt" version="1.1" viewBox="0 0 1380.96 454.32" width="1380.96pt" xmlns="http://www.w3.org/2000/svg" xmlns:xlink="http://www.w3.org/1999/xlink">
 <metadata>
  <rdf:RDF xmlns:cc="http://creativecommons.org/ns#" xmlns:dc="http://purl.org/dc/elements/1.1/" xmlns:rdf="http://www.w3.org/1999/02/22-rdf-syntax-ns#">
   <cc:Work>
    <dc:type rdf:resource="http://purl.org/dc/dcmitype/StillImage"/>
    <dc:date>2021-07-08T17:37:18.383553</dc:date>
    <dc:format>image/svg+xml</dc:format>
    <dc:creator>
     <cc:Agent>
      <dc:title>Matplotlib v3.3.2, https://matplotlib.org/</dc:title>
     </cc:Agent>
    </dc:creator>
   </cc:Work>
  </rdf:RDF>
 </metadata>
 <defs>
  <style type="text/css">*{stroke-linecap:butt;stroke-linejoin:round;}</style>
 </defs>
 <g id="figure_1">
  <g id="patch_1">
   <path d="M 0 454.32 
L 1380.96 454.32 
L 1380.96 0 
L 0 0 
z
" style="fill:#ffffff;"/>
  </g>
  <g id="axes_1">
   <g id="patch_2">
    <path d="M 94.21 397.64 
L 1360.622455 397.64 
L 1360.622455 10.8 
L 94.21 10.8 
z
" style="fill:#ffffff;"/>
   </g>
   <g id="matplotlib.axis_1">
    <g id="xtick_1">
     <g id="line2d_1">
      <defs>
       <path d="M 0 0 
L 0 3.5 
" id="m751864c326" style="stroke:#000000;stroke-width:0.8;"/>
      </defs>
      <g>
       <use style="stroke:#000000;stroke-width:0.8;" x="256.436389" xlink:href="#m751864c326" y="397.64"/>
      </g>
     </g>
     <g id="text_1">
      <!-- 09-11 -->
      <g transform="translate(198.320764 435.03375)scale(0.4 -0.4)">
       <defs>
        <path d="M 31.78125 66.40625 
Q 24.171875 66.40625 20.328125 58.90625 
Q 16.5 51.421875 16.5 36.375 
Q 16.5 21.390625 20.328125 13.890625 
Q 24.171875 6.390625 31.78125 6.390625 
Q 39.453125 6.390625 43.28125 13.890625 
Q 47.125 21.390625 47.125 36.375 
Q 47.125 51.421875 43.28125 58.90625 
Q 39.453125 66.40625 31.78125 66.40625 
z
M 31.78125 74.21875 
Q 44.046875 74.21875 50.515625 64.515625 
Q 56.984375 54.828125 56.984375 36.375 
Q 56.984375 17.96875 50.515625 8.265625 
Q 44.046875 -1.421875 31.78125 -1.421875 
Q 19.53125 -1.421875 13.0625 8.265625 
Q 6.59375 17.96875 6.59375 36.375 
Q 6.59375 54.828125 13.0625 64.515625 
Q 19.53125 74.21875 31.78125 74.21875 
z
" id="DejaVuSans-48"/>
        <path d="M 10.984375 1.515625 
L 10.984375 10.5 
Q 14.703125 8.734375 18.5 7.8125 
Q 22.3125 6.890625 25.984375 6.890625 
Q 35.75 6.890625 40.890625 13.453125 
Q 46.046875 20.015625 46.78125 33.40625 
Q 43.953125 29.203125 39.59375 26.953125 
Q 35.25 24.703125 29.984375 24.703125 
Q 19.046875 24.703125 12.671875 31.3125 
Q 6.296875 37.9375 6.296875 49.421875 
Q 6.296875 60.640625 12.9375 67.421875 
Q 19.578125 74.21875 30.609375 74.21875 
Q 43.265625 74.21875 49.921875 64.515625 
Q 56.59375 54.828125 56.59375 36.375 
Q 56.59375 19.140625 48.40625 8.859375 
Q 40.234375 -1.421875 26.421875 -1.421875 
Q 22.703125 -1.421875 18.890625 -0.6875 
Q 15.09375 0.046875 10.984375 1.515625 
z
M 30.609375 32.421875 
Q 37.25 32.421875 41.125 36.953125 
Q 45.015625 41.5 45.015625 49.421875 
Q 45.015625 57.28125 41.125 61.84375 
Q 37.25 66.40625 30.609375 66.40625 
Q 23.96875 66.40625 20.09375 61.84375 
Q 16.21875 57.28125 16.21875 49.421875 
Q 16.21875 41.5 20.09375 36.953125 
Q 23.96875 32.421875 30.609375 32.421875 
z
" id="DejaVuSans-57"/>
        <path d="M 4.890625 31.390625 
L 31.203125 31.390625 
L 31.203125 23.390625 
L 4.890625 23.390625 
z
" id="DejaVuSans-45"/>
        <path d="M 12.40625 8.296875 
L 28.515625 8.296875 
L 28.515625 63.921875 
L 10.984375 60.40625 
L 10.984375 69.390625 
L 28.421875 72.90625 
L 38.28125 72.90625 
L 38.28125 8.296875 
L 54.390625 8.296875 
L 54.390625 0 
L 12.40625 0 
z
" id="DejaVuSans-49"/>
       </defs>
       <use xlink:href="#DejaVuSans-48"/>
       <use x="63.623047" xlink:href="#DejaVuSans-57"/>
       <use x="127.246094" xlink:href="#DejaVuSans-45"/>
       <use x="163.330078" xlink:href="#DejaVuSans-49"/>
       <use x="226.953125" xlink:href="#DejaVuSans-49"/>
      </g>
     </g>
    </g>
    <g id="xtick_2">
     <g id="line2d_2">
      <g>
       <use style="stroke:#000000;stroke-width:0.8;" x="465.760761" xlink:href="#m751864c326" y="397.64"/>
      </g>
     </g>
     <g id="text_2">
      <!-- 09-13 -->
      <g transform="translate(407.645136 435.03375)scale(0.4 -0.4)">
       <defs>
        <path d="M 40.578125 39.3125 
Q 47.65625 37.796875 51.625 33 
Q 55.609375 28.21875 55.609375 21.1875 
Q 55.609375 10.40625 48.1875 4.484375 
Q 40.765625 -1.421875 27.09375 -1.421875 
Q 22.515625 -1.421875 17.65625 -0.515625 
Q 12.796875 0.390625 7.625 2.203125 
L 7.625 11.71875 
Q 11.71875 9.328125 16.59375 8.109375 
Q 21.484375 6.890625 26.8125 6.890625 
Q 36.078125 6.890625 40.9375 10.546875 
Q 45.796875 14.203125 45.796875 21.1875 
Q 45.796875 27.640625 41.28125 31.265625 
Q 36.765625 34.90625 28.71875 34.90625 
L 20.21875 34.90625 
L 20.21875 43.015625 
L 29.109375 43.015625 
Q 36.375 43.015625 40.234375 45.921875 
Q 44.09375 48.828125 44.09375 54.296875 
Q 44.09375 59.90625 40.109375 62.90625 
Q 36.140625 65.921875 28.71875 65.921875 
Q 24.65625 65.921875 20.015625 65.03125 
Q 15.375 64.15625 9.8125 62.3125 
L 9.8125 71.09375 
Q 15.4375 72.65625 20.34375 73.4375 
Q 25.25 74.21875 29.59375 74.21875 
Q 40.828125 74.21875 47.359375 69.109375 
Q 53.90625 64.015625 53.90625 55.328125 
Q 53.90625 49.265625 50.4375 45.09375 
Q 46.96875 40.921875 40.578125 39.3125 
z
" id="DejaVuSans-51"/>
       </defs>
       <use xlink:href="#DejaVuSans-48"/>
       <use x="63.623047" xlink:href="#DejaVuSans-57"/>
       <use x="127.246094" xlink:href="#DejaVuSans-45"/>
       <use x="163.330078" xlink:href="#DejaVuSans-49"/>
       <use x="226.953125" xlink:href="#DejaVuSans-51"/>
      </g>
     </g>
    </g>
    <g id="xtick_3">
     <g id="line2d_3">
      <g>
       <use style="stroke:#000000;stroke-width:0.8;" x="675.085134" xlink:href="#m751864c326" y="397.64"/>
      </g>
     </g>
     <g id="text_3">
      <!-- 09-15 -->
      <g transform="translate(616.969509 435.03375)scale(0.4 -0.4)">
       <defs>
        <path d="M 10.796875 72.90625 
L 49.515625 72.90625 
L 49.515625 64.59375 
L 19.828125 64.59375 
L 19.828125 46.734375 
Q 21.96875 47.46875 24.109375 47.828125 
Q 26.265625 48.1875 28.421875 48.1875 
Q 40.625 48.1875 47.75 41.5 
Q 54.890625 34.8125 54.890625 23.390625 
Q 54.890625 11.625 47.5625 5.09375 
Q 40.234375 -1.421875 26.90625 -1.421875 
Q 22.3125 -1.421875 17.546875 -0.640625 
Q 12.796875 0.140625 7.71875 1.703125 
L 7.71875 11.625 
Q 12.109375 9.234375 16.796875 8.0625 
Q 21.484375 6.890625 26.703125 6.890625 
Q 35.15625 6.890625 40.078125 11.328125 
Q 45.015625 15.765625 45.015625 23.390625 
Q 45.015625 31 40.078125 35.4375 
Q 35.15625 39.890625 26.703125 39.890625 
Q 22.75 39.890625 18.8125 39.015625 
Q 14.890625 38.140625 10.796875 36.28125 
z
" id="DejaVuSans-53"/>
       </defs>
       <use xlink:href="#DejaVuSans-48"/>
       <use x="63.623047" xlink:href="#DejaVuSans-57"/>
       <use x="127.246094" xlink:href="#DejaVuSans-45"/>
       <use x="163.330078" xlink:href="#DejaVuSans-49"/>
       <use x="226.953125" xlink:href="#DejaVuSans-53"/>
      </g>
     </g>
    </g>
    <g id="xtick_4">
     <g id="line2d_4">
      <g>
       <use style="stroke:#000000;stroke-width:0.8;" x="884.409507" xlink:href="#m751864c326" y="397.64"/>
      </g>
     </g>
     <g id="text_4">
      <!-- 09-17 -->
      <g transform="translate(826.293882 435.03375)scale(0.4 -0.4)">
       <defs>
        <path d="M 8.203125 72.90625 
L 55.078125 72.90625 
L 55.078125 68.703125 
L 28.609375 0 
L 18.3125 0 
L 43.21875 64.59375 
L 8.203125 64.59375 
z
" id="DejaVuSans-55"/>
       </defs>
       <use xlink:href="#DejaVuSans-48"/>
       <use x="63.623047" xlink:href="#DejaVuSans-57"/>
       <use x="127.246094" xlink:href="#DejaVuSans-45"/>
       <use x="163.330078" xlink:href="#DejaVuSans-49"/>
       <use x="226.953125" xlink:href="#DejaVuSans-55"/>
      </g>
     </g>
    </g>
    <g id="xtick_5">
     <g id="line2d_5">
      <g>
       <use style="stroke:#000000;stroke-width:0.8;" x="1093.733879" xlink:href="#m751864c326" y="397.64"/>
      </g>
     </g>
     <g id="text_5">
      <!-- 09-19 -->
      <g transform="translate(1035.618254 435.03375)scale(0.4 -0.4)">
       <use xlink:href="#DejaVuSans-48"/>
       <use x="63.623047" xlink:href="#DejaVuSans-57"/>
       <use x="127.246094" xlink:href="#DejaVuSans-45"/>
       <use x="163.330078" xlink:href="#DejaVuSans-49"/>
       <use x="226.953125" xlink:href="#DejaVuSans-57"/>
      </g>
     </g>
    </g>
    <g id="xtick_6">
     <g id="line2d_6">
      <g>
       <use style="stroke:#000000;stroke-width:0.8;" x="1303.058252" xlink:href="#m751864c326" y="397.64"/>
      </g>
     </g>
     <g id="text_6">
      <!-- 09-21 -->
      <g transform="translate(1244.942627 435.03375)scale(0.4 -0.4)">
       <defs>
        <path d="M 19.1875 8.296875 
L 53.609375 8.296875 
L 53.609375 0 
L 7.328125 0 
L 7.328125 8.296875 
Q 12.9375 14.109375 22.625 23.890625 
Q 32.328125 33.6875 34.8125 36.53125 
Q 39.546875 41.84375 41.421875 45.53125 
Q 43.3125 49.21875 43.3125 52.78125 
Q 43.3125 58.59375 39.234375 62.25 
Q 35.15625 65.921875 28.609375 65.921875 
Q 23.96875 65.921875 18.8125 64.3125 
Q 13.671875 62.703125 7.8125 59.421875 
L 7.8125 69.390625 
Q 13.765625 71.78125 18.9375 73 
Q 24.125 74.21875 28.421875 74.21875 
Q 39.75 74.21875 46.484375 68.546875 
Q 53.21875 62.890625 53.21875 53.421875 
Q 53.21875 48.921875 51.53125 44.890625 
Q 49.859375 40.875 45.40625 35.40625 
Q 44.1875 33.984375 37.640625 27.21875 
Q 31.109375 20.453125 19.1875 8.296875 
z
" id="DejaVuSans-50"/>
       </defs>
       <use xlink:href="#DejaVuSans-48"/>
       <use x="63.623047" xlink:href="#DejaVuSans-57"/>
       <use x="127.246094" xlink:href="#DejaVuSans-45"/>
       <use x="163.330078" xlink:href="#DejaVuSans-50"/>
       <use x="226.953125" xlink:href="#DejaVuSans-49"/>
      </g>
     </g>
    </g>
   </g>
   <g id="matplotlib.axis_2">
    <g id="ytick_1">
     <g id="line2d_7">
      <defs>
       <path d="M 0 0 
L -3.5 0 
" id="m284dd7ec17" style="stroke:#000000;stroke-width:0.8;"/>
      </defs>
      <g>
       <use style="stroke:#000000;stroke-width:0.8;" x="94.21" xlink:href="#m284dd7ec17" y="397.64"/>
      </g>
     </g>
     <g id="text_7">
      <!-- 0 -->
      <g transform="translate(61.76 412.836875)scale(0.4 -0.4)">
       <use xlink:href="#DejaVuSans-48"/>
      </g>
     </g>
    </g>
    <g id="ytick_2">
     <g id="line2d_8">
      <g>
       <use style="stroke:#000000;stroke-width:0.8;" x="94.21" xlink:href="#m284dd7ec17" y="242.904"/>
      </g>
     </g>
     <g id="text_8">
      <!-- 100 -->
      <g transform="translate(10.86 258.100875)scale(0.4 -0.4)">
       <use xlink:href="#DejaVuSans-49"/>
       <use x="63.623047" xlink:href="#DejaVuSans-48"/>
       <use x="127.246094" xlink:href="#DejaVuSans-48"/>
      </g>
     </g>
    </g>
    <g id="ytick_3">
     <g id="line2d_9">
      <g>
       <use style="stroke:#000000;stroke-width:0.8;" x="94.21" xlink:href="#m284dd7ec17" y="88.168"/>
      </g>
     </g>
     <g id="text_9">
      <!-- 200 -->
      <g transform="translate(10.86 103.364875)scale(0.4 -0.4)">
       <use xlink:href="#DejaVuSans-50"/>
       <use x="63.623047" xlink:href="#DejaVuSans-48"/>
       <use x="127.246094" xlink:href="#DejaVuSans-48"/>
      </g>
     </g>
    </g>
   </g>
   <g id="line2d_10">
    <path clip-path="url(#p7eadf912c4)" d="M 151.774202 366.06355 
L 156.135127 368.93196 
L 160.496051 370.519384 
L 164.856976 368.830876 
L 173.578825 353.949987 
L 177.939749 349.022111 
L 182.300673 351.206586 
L 186.661598 348.102288 
L 191.022522 339.665122 
L 195.383447 348.387875 
L 199.744371 364.520287 
L 204.105296 371.46356 
L 208.46622 371.850357 
L 212.827145 360.143313 
L 217.188069 340.971553 
L 221.548993 340.258681 
L 225.909918 346.486322 
L 230.270842 337.780057 
L 234.631767 259.330431 
L 238.992691 300.433637 
L 243.353616 307.98606 
L 247.71454 307.174096 
L 252.075464 311.299957 
L 256.436389 317.453783 
L 260.797313 316.121231 
L 265.158238 306.909917 
L 269.519162 300.666736 
L 273.880087 299.365264 
L 278.241011 298.697046 
L 282.601935 297.333414 
L 286.96286 283.844725 
L 291.323784 250.029762 
L 295.684709 229.497584 
L 300.045633 220.499944 
L 304.406558 204.396656 
L 308.767482 205.892377 
L 313.128406 236.972307 
L 317.489331 276.303957 
L 321.850255 308.922342 
L 326.21118 297.799613 
L 330.572104 283.941849 
L 334.933029 257.628804 
L 339.293953 169.52886 
L 343.654877 212.201603 
L 348.015802 243.945866 
L 352.376726 272.982289 
L 356.737651 274.621756 
L 361.098575 252.255862 
L 365.4595 237.092741 
L 369.820424 234.058563 
L 374.181348 233.040695 
L 378.542273 237.850315 
L 382.903197 243.188292 
L 387.264122 248.095036 
L 391.625046 253.308694 
L 395.985971 292.679194 
L 400.346895 264.497469 
L 404.707819 255.28227 
L 409.068744 301.941013 
L 413.429668 315.278188 
L 417.790593 299.773188 
L 422.151517 299.613904 
L 426.512442 307.321726 
L 430.873366 312.543154 
L 435.23429 310.464684 
L 439.595215 303.090971 
L 443.956139 296.960455 
L 448.317064 300.286007 
L 452.677988 301.832234 
L 457.038913 314.846954 
L 461.399837 305.647295 
L 465.760761 288.522254 
L 470.121686 280.293843 
L 474.48261 269.338168 
L 478.843535 265.600806 
L 483.204459 273.498993 
L 487.565384 254.851036 
L 491.926308 257.27527 
L 496.287232 252.617166 
L 500.648157 253.743813 
L 505.009081 276.280647 
L 509.370006 272.321841 
L 513.73093 276.894475 
L 518.091855 282.360658 
L 522.452779 281.626201 
L 526.813703 293.456193 
L 531.174628 290.266615 
L 535.535552 286.525368 
L 539.896477 276.595331 
L 544.257401 234.551957 
L 548.618326 270.53086 
L 552.97925 285.355986 
L 557.340174 297.022615 
L 561.701099 290.589069 
L 566.062023 271.463258 
L 570.422948 254.070153 
L 574.783872 251.090364 
L 579.144797 245.822316 
L 583.505721 247.380198 
L 587.866646 248.351446 
L 592.22757 250.002567 
L 596.588494 253.635033 
L 600.949419 287.185817 
L 605.310343 305.647295 
L 609.671268 316.163966 
L 614.032192 309.641066 
L 618.393117 310.437489 
L 622.754041 268.161015 
L 627.114965 309.147672 
L 631.47589 317.395508 
L 635.836814 316.024106 
L 640.197739 308.405639 
L 644.558663 265.348282 
L 648.919588 225.597052 
L 653.280512 257.55174 
L 657.641436 284.672228 
L 662.002361 293.751452 
L 666.363285 302.088643 
L 670.72421 297.644213 
L 675.085134 291.537007 
L 679.446059 270.157901 
L 683.806983 257.885214 
L 688.167907 254.683981 
L 692.528832 254.167277 
L 696.889756 247.927982 
L 701.250681 244.792794 
L 705.611605 265.356052 
L 709.97253 298.829135 
L 714.333454 316.62628 
L 718.694378 322.679096 
L 723.055303 333.292892 
L 727.416227 334.741993 
L 731.777152 344.372887 
L 736.138076 351.905884 
L 740.499001 364.019287 
L 744.859925 352.135099 
L 749.220849 312.764599 
L 753.581774 264.361494 
L 757.942698 246.33125 
L 762.303623 266.05535 
L 766.664547 288.15318 
L 771.025472 292.62869 
L 775.386396 308.817448 
L 779.74732 321.579644 
L 784.108245 316.808874 
L 788.469169 326.420342 
L 792.830094 328.071464 
L 797.191018 330.091659 
L 801.551943 329.481715 
L 805.912867 332.05358 
L 810.273791 322.286712 
L 814.634716 328.494928 
L 818.99564 331.74278 
L 823.356565 333.856215 
L 827.717489 336.237715 
L 832.078414 341.898147 
L 836.439338 343.448259 
L 840.800262 344.85851 
L 845.161187 348.358887 
L 849.522111 348.347232 
L 853.883036 341.365903 
L 858.24396 323.883443 
L 862.604885 329.287466 
L 866.965809 338.766844 
L 871.326733 328.747452 
L 875.687658 325.340315 
L 880.048582 324.963471 
L 884.409507 325.27427 
L 888.770431 332.799498 
L 893.131356 334.850773 
L 897.49228 334.06989 
L 901.853204 335.219847 
L 906.214129 335.476257 
L 910.575053 333.584266 
L 914.935978 341.769942 
L 919.296902 344.741961 
L 923.657827 346.758271 
L 928.018751 347.19339 
L 936.7406 357.776106 
L 941.101524 368.887181 
L 945.462449 378.397639 
L 949.823373 361.280368 
L 954.184298 350.359658 
L 958.545222 336.18721 
L 962.906147 327.628575 
L 967.267071 327.958799 
L 971.627995 333.541531 
L 975.98892 316.45534 
L 980.349844 326.408687 
L 989.071693 337.523647 
L 993.432618 340.060546 
L 997.793542 345.977388 
L 1002.154466 346.968061 
L 1006.515391 348.222913 
L 1010.876315 350.507288 
L 1015.23724 349.532155 
L 1019.598164 344.081512 
L 1023.959089 342.274991 
L 1028.320013 340.072201 
L 1032.680937 345.126575 
L 1037.041862 343.203504 
L 1041.402786 340.550055 
L 1045.763711 341.801022 
L 1050.124635 344.291302 
L 1054.48556 345.534499 
L 1058.846484 336.521319 
L 1063.207408 346.513517 
L 1067.568333 347.846069 
L 1071.929257 343.296744 
L 1076.290182 345.250895 
L 1080.651106 351.995239 
L 1085.012031 358.23065 
L 1089.372955 371.727109 
L 1093.733879 384.396065 
L 1098.094804 390.833496 
L 1102.455728 395.45275 
L 1106.816653 397.146606 
L 1111.177577 397.55453 
L 1119.899426 397.61669 
L 1137.343124 397.628345 
L 1141.704048 391.859133 
L 1146.064973 397.62446 
L 1154.786821 397.5623 
L 1159.147746 397.4846 
L 1167.869595 396.975667 
L 1172.230519 319.734273 
L 1176.591444 382.022336 
L 1180.952368 393.797744 
L 1185.313292 395.433325 
L 1189.674217 396.649327 
L 1194.035141 397.200996 
L 1198.396066 397.472945 
L 1211.478839 397.57784 
L 1224.561612 397.612805 
L 1246.366234 397.62446 
L 1255.088083 397.49237 
L 1263.809932 397.620575 
L 1268.170857 397.44575 
L 1272.531781 397.410786 
L 1276.892705 388.529696 
L 1281.25363 394.726257 
L 1285.614554 396.439538 
L 1289.975479 395.845134 
L 1294.336403 394.508697 
L 1298.697328 394.194013 
L 1303.058252 393.615149 
L 1303.058252 393.615149 
" style="fill:none;stroke:#0000ff;stroke-linecap:square;stroke-width:3;"/>
   </g>
   <g id="line2d_11">
    <path clip-path="url(#p7eadf912c4)" d="M 151.774202 367.360379 
L 156.135127 369.664179 
L 160.496051 371.785384 
L 164.856976 371.734879 
L 169.2179 370.312972 
L 173.578825 363.067464 
L 177.939749 356.16772 
L 182.300673 354.547678 
L 186.661598 358.09079 
L 191.022522 350.266418 
L 195.383447 349.29517 
L 199.744371 359.011533 
L 204.105296 367.783843 
L 208.46622 370.048793 
L 212.827145 362.7217 
L 217.188069 349.839069 
L 221.548993 344.442816 
L 225.909918 348.599757 
L 230.270842 348.393852 
L 234.631767 314.598314 
L 238.992691 293.533892 
L 243.353616 312.21293 
L 247.71454 310.460799 
L 252.075464 311.148442 
L 256.436389 318.289056 
L 260.797313 320.647246 
L 265.158238 316.39318 
L 269.519162 311.074627 
L 273.880087 309.217602 
L 278.241011 307.104167 
L 282.601935 303.45616 
L 286.96286 318.250206 
L 291.323784 304.637197 
L 295.684709 306.230044 
L 300.045633 308.899032 
L 304.406558 297.993862 
L 308.767482 290.993108 
L 313.128406 296.451521 
L 317.489331 322.368297 
L 321.850255 339.489453 
L 326.21118 345.965733 
L 330.572104 349.532155 
L 334.933029 337.717897 
L 339.293953 277.698669 
L 343.654877 277.508304 
L 348.015802 309.652721 
L 352.376726 321.738928 
L 356.737651 313.883476 
L 361.098575 280.884361 
L 365.4595 256.261288 
L 369.820424 247.737617 
L 374.181348 242.694898 
L 378.542273 242.893033 
L 382.903197 245.884476 
L 387.264122 250.189046 
L 391.625046 256.428342 
L 395.985971 324.341872 
L 400.346895 340.002271 
L 404.707819 332.947128 
L 409.068744 338.759074 
L 413.429668 340.82589 
L 417.790593 345.480109 
L 422.151517 347.780024 
L 426.512442 346.804891 
L 430.873366 345.301399 
L 435.23429 342.399311 
L 439.595215 344.508818 
L 443.956139 344.846855 
L 448.317064 340.81812 
L 452.677988 342.006927 
L 457.038913 334.539974 
L 461.399837 320.94639 
L 465.760761 298.172572 
L 470.121686 279.726634 
L 474.48261 268.666064 
L 478.843535 275.519189 
L 483.204459 276.820661 
L 487.565384 277.586004 
L 491.926308 277.19362 
L 496.287232 276.439931 
L 500.648157 281.855609 
L 505.009081 328.728027 
L 509.370006 333.506566 
L 513.73093 336.024041 
L 518.091855 337.096298 
L 522.452779 332.838348 
L 526.813703 338.42885 
L 531.174628 347.966503 
L 535.535552 344.477781 
L 539.896477 344.625411 
L 544.257401 336.237715 
L 548.618326 321.420359 
L 552.97925 335.557842 
L 557.340174 336.587364 
L 561.701099 315.460782 
L 566.062023 293.362953 
L 570.422948 279.167195 
L 574.783872 268.005616 
L 579.144797 263.565071 
L 583.505721 257.943489 
L 587.866646 257.096561 
L 592.22757 257.22865 
L 596.588494 260.297793 
L 600.949419 306.389328 
L 605.310343 339.104839 
L 609.671268 351.556235 
L 614.032192 354.734158 
L 618.393117 357.632361 
L 622.754041 339.034909 
L 631.47589 352.150639 
L 635.836814 352.306038 
L 640.197739 356.688308 
L 644.558663 351.76214 
L 648.919588 324.699291 
L 653.280512 310.791023 
L 657.641436 327.220651 
L 662.002361 334.633214 
L 666.363285 339.233043 
L 670.72421 337.632427 
L 675.085134 323.06371 
L 679.446059 296.031942 
L 683.806983 281.692439 
L 688.167907 273.098839 
L 692.528832 266.626444 
L 696.889756 263.708816 
L 701.250681 261.187456 
L 709.97253 342.566366 
L 714.333454 353.106347 
L 718.694378 353.393836 
L 723.055303 364.481601 
L 727.416227 370.204193 
L 731.777152 374.318398 
L 736.138076 385.126444 
L 740.499001 390.782991 
L 744.859925 385.985027 
L 749.220849 369.368919 
L 753.581774 339.112609 
L 757.942698 332.317759 
L 762.303623 323.677539 
L 766.664547 333.595921 
L 771.025472 342.601331 
L 775.386396 346.381427 
L 779.74732 334.889623 
L 784.108245 327.061366 
L 788.469169 328.491043 
L 792.830094 329.306891 
L 797.191018 330.744338 
L 801.551943 332.636328 
L 805.912867 333.471601 
L 810.273791 334.613789 
L 814.634716 341.968077 
L 818.99564 349.769139 
L 823.356565 354.361199 
L 827.717489 358.568644 
L 832.078414 359.547662 
L 836.439338 359.761336 
L 840.800262 360.689849 
L 845.161187 365.157589 
L 849.522111 364.671965 
L 853.883036 366.703816 
L 858.24396 355.386836 
L 862.604885 348.152983 
L 866.965809 357.313792 
L 871.326733 349.788564 
L 875.687658 340.63164 
L 880.048582 334.699259 
L 884.409507 331.630116 
L 888.770431 335.689931 
L 893.131356 340.091626 
L 897.49228 342.426506 
L 901.853204 343.440489 
L 906.214129 343.595888 
L 910.575053 344.299072 
L 914.935978 346.532942 
L 919.296902 354.621493 
L 923.657827 359.046498 
L 928.018751 362.686735 
L 932.379675 365.682063 
L 936.7406 380.806333 
L 941.101524 381.459012 
L 945.462449 387.299682 
L 949.823373 383.984256 
L 954.184298 381.194833 
L 958.545222 354.403934 
L 962.906147 342.93544 
L 967.267071 334.679834 
L 971.627995 349.29517 
L 975.98892 325.860904 
L 980.349844 326.614592 
L 984.710769 333.312317 
L 993.432618 341.509648 
L 997.793542 346.501862 
L 1002.154466 349.726404 
L 1006.515391 350.814202 
L 1010.876315 351.171621 
L 1019.598164 356.241534 
L 1023.959089 358.467634 
L 1028.320013 358.0364 
L 1032.680937 356.451324 
L 1037.041862 354.058169 
L 1041.402786 351.832069 
L 1045.763711 352.663458 
L 1050.124635 355.301367 
L 1054.48556 359.730256 
L 1058.846484 354.889558 
L 1063.207408 350.989026 
L 1067.568333 354.147524 
L 1071.929257 351.257091 
L 1076.290182 352.554678 
L 1080.651106 354.520483 
L 1085.012031 359.065923 
L 1089.372955 374.291203 
L 1093.733879 384.244551 
L 1098.094804 390.573201 
L 1102.455728 393.45975 
L 1106.816653 397.014516 
L 1111.177577 397.535105 
L 1119.899426 397.64 
L 1137.343124 397.636115 
L 1141.704048 395.767434 
L 1146.064973 397.232076 
L 1150.425897 397.62446 
L 1167.869595 397.54676 
L 1172.230519 378.626853 
L 1176.591444 361.497927 
L 1180.952368 386.350216 
L 1185.313292 394.399917 
L 1189.674217 396.804727 
L 1194.035141 397.488485 
L 1198.396066 397.60115 
L 1211.478839 397.63223 
L 1250.727159 397.636115 
L 1259.449008 397.61669 
L 1272.531781 397.620575 
L 1276.892705 396.637672 
L 1281.25363 396.163703 
L 1285.614554 396.559972 
L 1289.975479 395.402245 
L 1294.336403 394.846691 
L 1298.697328 393.409245 
L 1303.058252 392.620591 
L 1303.058252 392.620591 
" style="fill:none;stroke:#0000ff;stroke-dasharray:19.2,4.8,3,4.8;stroke-dashoffset:0;stroke-width:3;"/>
   </g>
   <g id="line2d_12">
    <path clip-path="url(#p7eadf912c4)" d="M 151.774202 361.664982 
L 156.135127 348.125788 
L 160.496051 340.138246 
L 164.856976 321.373739 
L 169.2179 318.693095 
L 173.578825 326.268828 
L 177.939749 323.06371 
L 182.300673 325.775434 
L 186.661598 321.599068 
L 191.022522 324.559432 
L 195.383447 338.063661 
L 199.744371 331.83602 
L 204.105296 324.303022 
L 208.46622 324.598282 
L 212.827145 310.697783 
L 217.188069 259.948144 
L 221.548993 314.699324 
L 225.909918 304.376903 
L 230.270842 302.543187 
L 234.631767 299.283679 
L 238.992691 302.010943 
L 243.353616 300.029598 
L 247.71454 287.150852 
L 252.075464 284.384738 
L 256.436389 282.939522 
L 260.797313 238.864297 
L 265.158238 228.347626 
L 269.519162 239.66072 
L 273.880087 235.515435 
L 278.241011 227.415228 
L 282.601935 211.548925 
L 286.96286 200.399 
L 291.323784 184.202472 
L 295.684709 167.291105 
L 300.045633 151.079037 
L 304.406558 135.597348 
L 308.767482 91.887312 
L 313.128406 93.740453 
L 317.489331 84.606839 
L 321.850255 109.699997 
L 326.21118 123.71316 
L 330.572104 132.53209 
L 334.933029 130.32153 
L 339.293953 134.144361 
L 343.654877 134.67272 
L 348.015802 101.195751 
L 352.376726 78.375313 
L 356.737651 99.245486 
L 361.098575 111.168523 
L 365.4595 113.546138 
L 369.820424 121.64246 
L 374.181348 143.841299 
L 378.542273 155.166048 
L 382.903197 162.679621 
L 387.264122 165.542859 
L 391.625046 164.532762 
L 395.985971 163.849003 
L 400.346895 162.908835 
L 404.707819 165.954669 
L 409.068744 162.182342 
L 413.429668 157.368838 
L 417.790593 154.058826 
L 422.151517 155.911966 
L 426.512442 147.341676 
L 430.873366 156.226651 
L 435.23429 162.112412 
L 439.595215 159.909622 
L 443.956139 157.500928 
L 448.317064 160.99742 
L 452.677988 171.805465 
L 457.038913 173.94998 
L 461.399837 170.865297 
L 465.760761 174.338479 
L 470.121686 165.068891 
L 474.48261 158.977224 
L 478.843535 168.270123 
L 483.204459 166.249928 
L 487.565384 158.363396 
L 491.926308 161.323759 
L 496.287232 161.06735 
L 500.648157 153.918966 
L 505.009081 159.913507 
L 509.370006 153.083693 
L 513.73093 150.795433 
L 518.091855 159.692063 
L 522.452779 171.284876 
L 526.813703 167.617445 
L 531.174628 157.625248 
L 535.535552 133.262468 
L 539.896477 132.287335 
L 544.257401 135.842102 
L 548.618326 120.457537 
L 552.97925 143.915114 
L 557.340174 148.662573 
L 561.701099 151.646246 
L 566.062023 153.499387 
L 570.422948 151.440342 
L 574.783872 146.479208 
L 579.144797 153.165278 
L 583.505721 155.169933 
L 587.866646 160.189342 
L 592.22757 165.694374 
L 596.588494 167.928244 
L 600.949419 171.751075 
L 605.310343 170.127149 
L 614.032192 145.313711 
L 618.393117 145.904229 
L 622.754041 164.855216 
L 627.114965 159.276369 
L 631.47589 155.057268 
L 635.836814 154.253075 
L 640.197739 139.198735 
L 644.558663 141.898803 
L 648.919588 151.339741 
L 653.280512 157.803957 
L 657.641436 138.025467 
L 662.002361 154.975684 
L 666.363285 153.615937 
L 670.72421 153.612052 
L 675.085134 150.795433 
L 679.446059 147.298941 
L 683.806983 146.957062 
L 688.167907 149.540581 
L 692.528832 140.278762 
L 696.889756 139.105495 
L 701.250681 139.214275 
L 705.611605 141.801679 
L 709.97253 142.842856 
L 714.333454 150.204914 
L 718.694378 158.266271 
L 723.055303 169.443391 
L 727.416227 171.81712 
L 731.777152 166.098413 
L 736.138076 227.749338 
L 740.499001 214.120789 
L 744.859925 193.196226 
L 749.220849 189.808514 
L 753.581774 194.078119 
L 757.942698 188.507042 
L 762.303623 188.646902 
L 766.664547 190.531122 
L 771.025472 191.4169 
L 775.386396 193.196226 
L 779.74732 183.907213 
L 784.108245 215.736945 
L 788.469169 224.893869 
L 792.830094 233.029041 
L 797.191018 235.857314 
L 801.551943 237.310301 
L 805.912867 242.337479 
L 810.273791 242.349134 
L 814.634716 242.838643 
L 818.99564 251.008779 
L 823.356565 263.584496 
L 827.717489 280.041318 
L 832.078414 285.63959 
L 836.439338 283.767025 
L 840.800262 289.656671 
L 845.161187 294.380821 
L 849.522111 298.580496 
L 853.883036 296.603035 
L 858.24396 296.183456 
L 862.604885 289.357527 
L 866.965809 273.677703 
L 871.326733 216.350774 
L 875.687658 250.764025 
L 880.048582 259.812169 
L 884.409507 240.666933 
L 888.770431 244.862724 
L 893.131356 240.783483 
L 897.49228 255.20457 
L 901.853204 257.916294 
L 906.214129 268.767074 
L 910.575053 275.484224 
L 914.935978 303.056006 
L 919.296902 312.504304 
L 923.657827 313.794121 
L 928.018751 303.961209 
L 932.379675 323.988338 
L 936.7406 339.940112 
L 941.101524 336.113395 
L 945.462449 317.706307 
L 949.823373 318.5882 
L 954.184298 314.796449 
L 958.545222 311.999255 
L 962.906147 306.218389 
L 967.267071 301.548629 
L 971.627995 300.111182 
L 975.98892 284.660573 
L 980.349844 286.707963 
L 984.710769 299.116625 
L 989.071693 299.590594 
L 993.432618 296.144607 
L 997.793542 293.720372 
L 1002.154466 294.796515 
L 1006.515391 299.613904 
L 1010.876315 311.684571 
L 1015.23724 313.526057 
L 1019.598164 306.323283 
L 1023.959089 277.675359 
L 1028.320013 297.702488 
L 1032.680937 300.892066 
L 1037.041862 292.912294 
L 1041.402786 308.704783 
L 1045.763711 320.165507 
L 1050.124635 329.252501 
L 1054.48556 333.693046 
L 1058.846484 332.442079 
L 1063.207408 332.554743 
L 1067.568333 327.104101 
L 1071.929257 334.03881 
L 1076.290182 332.473159 
L 1080.651106 334.128165 
L 1085.012031 344.800236 
L 1089.372955 371.975749 
L 1093.733879 385.320693 
L 1098.094804 390.736371 
L 1102.455728 395.262385 
L 1106.816653 393.21111 
L 1111.177577 393.098445 
L 1115.538502 392.826496 
L 1119.899426 396.319103 
L 1124.26035 396.155933 
L 1128.621275 396.400688 
L 1141.704048 397.488485 
L 1146.064973 397.4846 
L 1150.425897 397.096101 
L 1154.786821 386.039416 
L 1159.147746 396.346298 
L 1163.50867 395.864559 
L 1167.869595 382.857609 
L 1172.230519 353.6619 
L 1176.591444 392.142738 
L 1180.952368 391.649344 
L 1189.674217 394.454307 
L 1194.035141 394.621362 
L 1198.396066 394.998206 
L 1202.75699 395.549875 
L 1207.117915 395.46052 
L 1211.478839 393.36651 
L 1215.839763 393.638459 
L 1220.200688 395.849019 
L 1224.561612 396.113198 
L 1228.922537 396.761992 
L 1237.644386 397.014516 
L 1242.00531 396.843577 
L 1246.366234 388.424801 
L 1250.727159 395.950029 
L 1255.088083 397.177686 
L 1259.449008 397.322313 
L 1268.170857 397.204881 
L 1272.531781 396.936817 
L 1276.892705 382.504075 
L 1281.25363 362.795514 
L 1285.614554 383.409277 
L 1289.975479 388.925965 
L 1294.336403 388.374296 
L 1298.697328 386.824185 
L 1303.058252 385.767467 
L 1303.058252 385.767467 
" style="fill:none;stroke:#ff0000;stroke-linecap:square;stroke-width:3;"/>
   </g>
   <g id="line2d_13">
    <path clip-path="url(#p7eadf912c4)" d="M 151.774202 375.20328 
L 156.135127 375.744856 
L 160.496051 372.804872 
L 164.856976 370.096992 
L 169.2179 364.294392 
L 173.578825 362.360192 
L 177.939749 361.509144 
L 182.300673 351.528672 
L 186.661598 354.31392 
L 191.022522 345.571336 
L 195.383447 343.09556 
L 199.744371 348.51132 
L 204.105296 341.006624 
L 208.46622 347.273432 
L 212.827145 343.405032 
L 217.188069 343.637136 
L 221.548993 337.370328 
L 225.909918 334.97192 
L 230.270842 329.091952 
L 234.631767 327.699328 
L 238.992691 331.722464 
L 243.353616 324.295136 
L 247.71454 330.097736 
L 252.075464 328.937216 
L 256.436389 314.624136 
L 260.797313 291.026896 
L 265.158238 279.034856 
L 269.519162 289.556904 
L 273.880087 290.562688 
L 278.241011 278.570648 
L 282.601935 267.042816 
L 286.96286 241.124536 
L 291.323784 224.026208 
L 295.684709 213.272056 
L 300.045633 192.846904 
L 304.406558 158.57288 
L 308.767482 121.281504 
L 313.128406 101.630032 
L 317.489331 117.645208 
L 321.850255 128.863568 
L 326.21118 185.496944 
L 330.572104 213.272056 
L 334.933029 221.008856 
L 339.293953 219.848336 
L 343.654877 194.316896 
L 348.015802 162.209176 
L 352.376726 169.636504 
L 356.737651 159.191824 
L 361.098575 170.255448 
L 365.4595 173.2728 
L 374.181348 186.270624 
L 378.542273 190.216392 
L 382.903197 193.233744 
L 387.264122 195.941624 
L 391.625046 190.371128 
L 395.985971 190.448496 
L 400.346895 177.1412 
L 404.707819 175.748576 
L 409.068744 179.46224 
L 413.429668 173.504904 
L 417.790593 170.797024 
L 422.151517 173.427536 
L 426.512442 169.79124 
L 430.873366 176.986464 
L 435.23429 172.731224 
L 439.595215 173.427536 
L 443.956139 178.843296 
L 448.317064 189.13324 
L 452.677988 193.543216 
L 457.038913 195.167944 
L 461.399837 197.64372 
L 465.760761 195.167944 
L 470.121686 198.185296 
L 474.48261 192.460064 
L 478.843535 191.45428 
L 483.204459 200.661072 
L 487.565384 200.661072 
L 491.926308 199.732656 
L 496.287232 200.428968 
L 500.648157 192.22796 
L 505.009081 173.350168 
L 509.370006 173.118064 
L 513.73093 167.005992 
L 518.091855 170.95176 
L 522.452779 171.029128 
L 526.813703 162.673384 
L 531.174628 151.841864 
L 535.535552 132.964072 
L 539.896477 124.376224 
L 544.257401 123.447808 
L 548.618326 136.058792 
L 552.97925 142.248232 
L 557.340174 145.03348 
L 561.701099 149.752928 
L 566.062023 150.83608 
L 570.422948 157.180256 
L 574.783872 152.77028 
L 579.144797 161.822336 
L 583.505721 164.220744 
L 587.866646 167.624936 
L 592.22757 134.5888 
L 596.588494 163.21496 
L 600.949419 164.607584 
L 605.310343 154.240272 
L 609.671268 145.03348 
L 614.032192 137.760888 
L 618.393117 129.94672 
L 622.754041 123.679912 
L 627.114965 117.877312 
L 631.47589 107.355264 
L 635.836814 97.839 
L 640.197739 105.807904 
L 644.558663 111.533136 
L 648.919588 127.393576 
L 653.280512 134.434064 
L 657.641436 136.600368 
L 662.002361 139.23088 
L 666.363285 136.445632 
L 670.72421 139.153512 
L 675.085134 135.285112 
L 679.446059 138.921408 
L 683.806983 143.563488 
L 688.167907 147.663992 
L 692.528832 149.28872 
L 696.889756 143.950328 
L 701.250681 148.050832 
L 705.611605 140.700872 
L 709.97253 91.26272 
L 714.333454 95.9048 
L 718.694378 132.6546 
L 723.055303 131.339344 
L 727.416227 145.03348 
L 731.777152 146.116632 
L 736.138076 161.744968 
L 740.499001 147.431888 
L 744.859925 161.977072 
L 749.220849 168.475984 
L 757.942698 171.802808 
L 762.303623 176.676992 
L 766.664547 178.998032 
L 771.025472 177.52804 
L 775.386396 192.382696 
L 779.74732 203.910528 
L 784.108245 218.455712 
L 788.469169 226.424616 
L 792.830094 229.287232 
L 797.191018 233.078264 
L 801.551943 241.820848 
L 805.912867 237.87508 
L 810.273791 235.399304 
L 814.634716 238.958232 
L 818.99564 233.61984 
L 823.356565 256.211296 
L 827.717489 257.449184 
L 832.078414 257.21708 
L 836.439338 273.46436 
L 840.800262 274.005936 
L 845.161187 286.152712 
L 849.522111 291.491104 
L 853.883036 284.063776 
L 858.24396 282.516416 
L 862.604885 281.510632 
L 866.965809 273.309624 
L 871.326733 275.862768 
L 875.687658 288.860592 
L 880.048582 289.3248 
L 884.409507 281.897472 
L 888.770431 268.899648 
L 893.131356 275.475928 
L 897.49228 283.754304 
L 901.853204 264.876512 
L 906.214129 266.733344 
L 910.575053 284.218512 
L 914.935978 295.591608 
L 919.296902 291.568472 
L 923.657827 293.812144 
L 928.018751 320.194632 
L 932.379675 338.144008 
L 936.7406 336.828752 
L 941.101524 327.003016 
L 945.462449 316.326232 
L 949.823373 318.3378 
L 954.184298 320.813576 
L 958.545222 310.910472 
L 967.267071 307.274176 
L 971.627995 309.285744 
L 975.98892 310.98784 
L 980.349844 309.44048 
L 984.710769 308.821536 
L 989.071693 307.428912 
L 993.432618 309.904688 
L 997.793542 306.113656 
L 1002.154466 308.125224 
L 1006.515391 311.606784 
L 1010.876315 308.434696 
L 1015.23724 306.964704 
L 1023.959089 301.31684 
L 1028.320013 303.173672 
L 1032.680937 297.44844 
L 1037.041862 309.82732 
L 1041.402786 327.080384 
L 1045.763711 328.318272 
L 1050.124635 343.09556 
L 1054.48556 354.778128 
L 1058.846484 354.623392 
L 1063.207408 353.617608 
L 1067.568333 355.0876 
L 1071.929257 352.998664 
L 1076.290182 359.34284 
L 1080.651106 360.580728 
L 1085.012031 373.733288 
L 1089.372955 382.630608 
L 1093.733879 386.80848 
L 1098.094804 388.820048 
L 1102.455728 391.373192 
L 1111.177577 394.700016 
L 1115.538502 389.825832 
L 1119.899426 389.671096 
L 1124.26035 388.433208 
L 1128.621275 389.671096 
L 1132.982199 392.920552 
L 1137.343124 393.848968 
L 1141.704048 391.992136 
L 1146.064973 393.38476 
L 1150.425897 393.152656 
L 1154.786821 390.831616 
L 1159.147746 389.9032 
L 1163.50867 391.295824 
L 1167.869595 388.974784 
L 1172.230519 389.9032 
L 1176.591444 388.433208 
L 1180.952368 388.433208 
L 1185.313292 390.986352 
L 1189.674217 391.45056 
L 1194.035141 390.67688 
L 1198.396066 391.373192 
L 1202.75699 392.22424 
L 1211.478839 392.146872 
L 1215.839763 385.183752 
L 1220.200688 388.201104 
L 1224.561612 391.605296 
L 1228.922537 392.765816 
L 1233.283461 390.367408 
L 1237.644386 390.67688 
L 1242.00531 388.665312 
L 1246.366234 389.284256 
L 1250.727159 392.069504 
L 1255.088083 390.522144 
L 1259.449008 391.06372 
L 1263.809932 388.897416 
L 1268.170857 391.218456 
L 1272.531781 392.920552 
L 1276.892705 391.760032 
L 1281.25363 387.040584 
L 1285.614554 386.885848 
L 1289.975479 387.19532 
L 1294.336403 386.112168 
L 1298.697328 383.017448 
L 1303.058252 388.974784 
L 1303.058252 388.974784 
" style="fill:none;stroke:#008000;stroke-linecap:square;stroke-width:3;"/>
   </g>
   <g id="patch_3">
    <path d="M 94.21 397.64 
L 94.21 10.8 
" style="fill:none;stroke:#000000;stroke-linecap:square;stroke-linejoin:miter;stroke-width:0.8;"/>
   </g>
   <g id="patch_4">
    <path d="M 1360.622455 397.64 
L 1360.622455 10.8 
" style="fill:none;stroke:#000000;stroke-linecap:square;stroke-linejoin:miter;stroke-width:0.8;"/>
   </g>
   <g id="patch_5">
    <path d="M 94.21 397.64 
L 1360.622455 397.64 
" style="fill:none;stroke:#000000;stroke-linecap:square;stroke-linejoin:miter;stroke-width:0.8;"/>
   </g>
   <g id="patch_6">
    <path d="M 94.21 10.8 
L 1360.622455 10.8 
" style="fill:none;stroke:#000000;stroke-linecap:square;stroke-linejoin:miter;stroke-width:0.8;"/>
   </g>
   <g id="legend_1">
    <g id="patch_7">
     <path d="M 1117.059955 160.225 
L 1332.622455 160.225 
Q 1340.622455 160.225 1340.622455 152.225 
L 1340.622455 38.8 
Q 1340.622455 30.8 1332.622455 30.8 
L 1117.059955 30.8 
Q 1109.059955 30.8 1109.059955 38.8 
L 1109.059955 152.225 
Q 1109.059955 160.225 1117.059955 160.225 
z
" style="fill:#ffffff;opacity:0.8;stroke:#cccccc;stroke-linejoin:miter;"/>
    </g>
    <g id="line2d_14">
     <path d="M 1125.059955 63.19375 
L 1205.059955 63.19375 
" style="fill:none;stroke:#0000ff;stroke-linecap:square;stroke-width:3;"/>
    </g>
    <g id="line2d_15"/>
    <g id="text_10">
     <!-- L2-a -->
     <g transform="translate(1237.059955 77.19375)scale(0.4 -0.4)">
      <defs>
       <path d="M 9.8125 72.90625 
L 19.671875 72.90625 
L 19.671875 8.296875 
L 55.171875 8.296875 
L 55.171875 0 
L 9.8125 0 
z
" id="DejaVuSans-76"/>
       <path d="M 34.28125 27.484375 
Q 23.390625 27.484375 19.1875 25 
Q 14.984375 22.515625 14.984375 16.5 
Q 14.984375 11.71875 18.140625 8.90625 
Q 21.296875 6.109375 26.703125 6.109375 
Q 34.1875 6.109375 38.703125 11.40625 
Q 43.21875 16.703125 43.21875 25.484375 
L 43.21875 27.484375 
z
M 52.203125 31.203125 
L 52.203125 0 
L 43.21875 0 
L 43.21875 8.296875 
Q 40.140625 3.328125 35.546875 0.953125 
Q 30.953125 -1.421875 24.3125 -1.421875 
Q 15.921875 -1.421875 10.953125 3.296875 
Q 6 8.015625 6 15.921875 
Q 6 25.140625 12.171875 29.828125 
Q 18.359375 34.515625 30.609375 34.515625 
L 43.21875 34.515625 
L 43.21875 35.40625 
Q 43.21875 41.609375 39.140625 45 
Q 35.0625 48.390625 27.6875 48.390625 
Q 23 48.390625 18.546875 47.265625 
Q 14.109375 46.140625 10.015625 43.890625 
L 10.015625 52.203125 
Q 14.9375 54.109375 19.578125 55.046875 
Q 24.21875 56 28.609375 56 
Q 40.484375 56 46.34375 49.84375 
Q 52.203125 43.703125 52.203125 31.203125 
z
" id="DejaVuSans-97"/>
      </defs>
      <use xlink:href="#DejaVuSans-76"/>
      <use x="55.712891" xlink:href="#DejaVuSans-50"/>
      <use x="119.335938" xlink:href="#DejaVuSans-45"/>
      <use x="155.419922" xlink:href="#DejaVuSans-97"/>
     </g>
    </g>
    <g id="line2d_16">
     <path d="M 1125.059955 121.90625 
L 1205.059955 121.90625 
" style="fill:none;stroke:#0000ff;stroke-dasharray:19.2,4.8,3,4.8;stroke-dashoffset:0;stroke-width:3;"/>
    </g>
    <g id="line2d_17"/>
    <g id="text_11">
     <!-- L2-b -->
     <g transform="translate(1237.059955 135.90625)scale(0.4 -0.4)">
      <defs>
       <path d="M 48.6875 27.296875 
Q 48.6875 37.203125 44.609375 42.84375 
Q 40.53125 48.484375 33.40625 48.484375 
Q 26.265625 48.484375 22.1875 42.84375 
Q 18.109375 37.203125 18.109375 27.296875 
Q 18.109375 17.390625 22.1875 11.75 
Q 26.265625 6.109375 33.40625 6.109375 
Q 40.53125 6.109375 44.609375 11.75 
Q 48.6875 17.390625 48.6875 27.296875 
z
M 18.109375 46.390625 
Q 20.953125 51.265625 25.265625 53.625 
Q 29.59375 56 35.59375 56 
Q 45.5625 56 51.78125 48.09375 
Q 58.015625 40.1875 58.015625 27.296875 
Q 58.015625 14.40625 51.78125 6.484375 
Q 45.5625 -1.421875 35.59375 -1.421875 
Q 29.59375 -1.421875 25.265625 0.953125 
Q 20.953125 3.328125 18.109375 8.203125 
L 18.109375 0 
L 9.078125 0 
L 9.078125 75.984375 
L 18.109375 75.984375 
z
" id="DejaVuSans-98"/>
      </defs>
      <use xlink:href="#DejaVuSans-76"/>
      <use x="55.712891" xlink:href="#DejaVuSans-50"/>
      <use x="119.335938" xlink:href="#DejaVuSans-45"/>
      <use x="155.419922" xlink:href="#DejaVuSans-98"/>
     </g>
    </g>
   </g>
  </g>
 </g>
 <defs>
  <clipPath id="p7eadf912c4">
   <rect height="386.84" width="1266.412455" x="94.21" y="10.8"/>
  </clipPath>
 </defs>
</svg>
