<?xml version="1.0" encoding="utf-8" standalone="no"?>
<!DOCTYPE svg PUBLIC "-//W3C//DTD SVG 1.1//EN"
  "http://www.w3.org/Graphics/SVG/1.1/DTD/svg11.dtd">
<!-- Created with matplotlib (https://matplotlib.org/) -->
<svg height="454.32pt" version="1.1" viewBox="0 0 1380.96 454.32" width="1380.96pt" xmlns="http://www.w3.org/2000/svg" xmlns:xlink="http://www.w3.org/1999/xlink">
 <metadata>
  <rdf:RDF xmlns:cc="http://creativecommons.org/ns#" xmlns:dc="http://purl.org/dc/elements/1.1/" xmlns:rdf="http://www.w3.org/1999/02/22-rdf-syntax-ns#">
   <cc:Work>
    <dc:type rdf:resource="http://purl.org/dc/dcmitype/StillImage"/>
    <dc:date>2021-07-08T17:39:33.473042</dc:date>
    <dc:format>image/svg+xml</dc:format>
    <dc:creator>
     <cc:Agent>
      <dc:title>Matplotlib v3.3.2, https://matplotlib.org/</dc:title>
     </cc:Agent>
    </dc:creator>
   </cc:Work>
  </rdf:RDF>
 </metadata>
 <defs>
  <style type="text/css">*{stroke-linecap:butt;stroke-linejoin:round;}</style>
 </defs>
 <g id="figure_1">
  <g id="patch_1">
   <path d="M 0 454.32 
L 1380.96 454.32 
L 1380.96 0 
L 0 0 
z
" style="fill:#ffffff;"/>
  </g>
  <g id="axes_1">
   <g id="patch_2">
    <path d="M 94.21 397.64 
L 1360.622455 397.64 
L 1360.622455 10.8 
L 94.21 10.8 
z
" style="fill:#ffffff;"/>
   </g>
   <g id="matplotlib.axis_1">
    <g id="xtick_1">
     <g id="line2d_1">
      <defs>
       <path d="M 0 0 
L 0 3.5 
" id="m24d78f74b0" style="stroke:#000000;stroke-width:0.8;"/>
      </defs>
      <g>
       <use style="stroke:#000000;stroke-width:0.8;" x="256.436389" xlink:href="#m24d78f74b0" y="397.64"/>
      </g>
     </g>
     <g id="text_1">
      <!-- 09-11 -->
      <g transform="translate(198.320764 435.03375)scale(0.4 -0.4)">
       <defs>
        <path d="M 31.78125 66.40625 
Q 24.171875 66.40625 20.328125 58.90625 
Q 16.5 51.421875 16.5 36.375 
Q 16.5 21.390625 20.328125 13.890625 
Q 24.171875 6.390625 31.78125 6.390625 
Q 39.453125 6.390625 43.28125 13.890625 
Q 47.125 21.390625 47.125 36.375 
Q 47.125 51.421875 43.28125 58.90625 
Q 39.453125 66.40625 31.78125 66.40625 
z
M 31.78125 74.21875 
Q 44.046875 74.21875 50.515625 64.515625 
Q 56.984375 54.828125 56.984375 36.375 
Q 56.984375 17.96875 50.515625 8.265625 
Q 44.046875 -1.421875 31.78125 -1.421875 
Q 19.53125 -1.421875 13.0625 8.265625 
Q 6.59375 17.96875 6.59375 36.375 
Q 6.59375 54.828125 13.0625 64.515625 
Q 19.53125 74.21875 31.78125 74.21875 
z
" id="DejaVuSans-48"/>
        <path d="M 10.984375 1.515625 
L 10.984375 10.5 
Q 14.703125 8.734375 18.5 7.8125 
Q 22.3125 6.890625 25.984375 6.890625 
Q 35.75 6.890625 40.890625 13.453125 
Q 46.046875 20.015625 46.78125 33.40625 
Q 43.953125 29.203125 39.59375 26.953125 
Q 35.25 24.703125 29.984375 24.703125 
Q 19.046875 24.703125 12.671875 31.3125 
Q 6.296875 37.9375 6.296875 49.421875 
Q 6.296875 60.640625 12.9375 67.421875 
Q 19.578125 74.21875 30.609375 74.21875 
Q 43.265625 74.21875 49.921875 64.515625 
Q 56.59375 54.828125 56.59375 36.375 
Q 56.59375 19.140625 48.40625 8.859375 
Q 40.234375 -1.421875 26.421875 -1.421875 
Q 22.703125 -1.421875 18.890625 -0.6875 
Q 15.09375 0.046875 10.984375 1.515625 
z
M 30.609375 32.421875 
Q 37.25 32.421875 41.125 36.953125 
Q 45.015625 41.5 45.015625 49.421875 
Q 45.015625 57.28125 41.125 61.84375 
Q 37.25 66.40625 30.609375 66.40625 
Q 23.96875 66.40625 20.09375 61.84375 
Q 16.21875 57.28125 16.21875 49.421875 
Q 16.21875 41.5 20.09375 36.953125 
Q 23.96875 32.421875 30.609375 32.421875 
z
" id="DejaVuSans-57"/>
        <path d="M 4.890625 31.390625 
L 31.203125 31.390625 
L 31.203125 23.390625 
L 4.890625 23.390625 
z
" id="DejaVuSans-45"/>
        <path d="M 12.40625 8.296875 
L 28.515625 8.296875 
L 28.515625 63.921875 
L 10.984375 60.40625 
L 10.984375 69.390625 
L 28.421875 72.90625 
L 38.28125 72.90625 
L 38.28125 8.296875 
L 54.390625 8.296875 
L 54.390625 0 
L 12.40625 0 
z
" id="DejaVuSans-49"/>
       </defs>
       <use xlink:href="#DejaVuSans-48"/>
       <use x="63.623047" xlink:href="#DejaVuSans-57"/>
       <use x="127.246094" xlink:href="#DejaVuSans-45"/>
       <use x="163.330078" xlink:href="#DejaVuSans-49"/>
       <use x="226.953125" xlink:href="#DejaVuSans-49"/>
      </g>
     </g>
    </g>
    <g id="xtick_2">
     <g id="line2d_2">
      <g>
       <use style="stroke:#000000;stroke-width:0.8;" x="465.760761" xlink:href="#m24d78f74b0" y="397.64"/>
      </g>
     </g>
     <g id="text_2">
      <!-- 09-13 -->
      <g transform="translate(407.645136 435.03375)scale(0.4 -0.4)">
       <defs>
        <path d="M 40.578125 39.3125 
Q 47.65625 37.796875 51.625 33 
Q 55.609375 28.21875 55.609375 21.1875 
Q 55.609375 10.40625 48.1875 4.484375 
Q 40.765625 -1.421875 27.09375 -1.421875 
Q 22.515625 -1.421875 17.65625 -0.515625 
Q 12.796875 0.390625 7.625 2.203125 
L 7.625 11.71875 
Q 11.71875 9.328125 16.59375 8.109375 
Q 21.484375 6.890625 26.8125 6.890625 
Q 36.078125 6.890625 40.9375 10.546875 
Q 45.796875 14.203125 45.796875 21.1875 
Q 45.796875 27.640625 41.28125 31.265625 
Q 36.765625 34.90625 28.71875 34.90625 
L 20.21875 34.90625 
L 20.21875 43.015625 
L 29.109375 43.015625 
Q 36.375 43.015625 40.234375 45.921875 
Q 44.09375 48.828125 44.09375 54.296875 
Q 44.09375 59.90625 40.109375 62.90625 
Q 36.140625 65.921875 28.71875 65.921875 
Q 24.65625 65.921875 20.015625 65.03125 
Q 15.375 64.15625 9.8125 62.3125 
L 9.8125 71.09375 
Q 15.4375 72.65625 20.34375 73.4375 
Q 25.25 74.21875 29.59375 74.21875 
Q 40.828125 74.21875 47.359375 69.109375 
Q 53.90625 64.015625 53.90625 55.328125 
Q 53.90625 49.265625 50.4375 45.09375 
Q 46.96875 40.921875 40.578125 39.3125 
z
" id="DejaVuSans-51"/>
       </defs>
       <use xlink:href="#DejaVuSans-48"/>
       <use x="63.623047" xlink:href="#DejaVuSans-57"/>
       <use x="127.246094" xlink:href="#DejaVuSans-45"/>
       <use x="163.330078" xlink:href="#DejaVuSans-49"/>
       <use x="226.953125" xlink:href="#DejaVuSans-51"/>
      </g>
     </g>
    </g>
    <g id="xtick_3">
     <g id="line2d_3">
      <g>
       <use style="stroke:#000000;stroke-width:0.8;" x="675.085134" xlink:href="#m24d78f74b0" y="397.64"/>
      </g>
     </g>
     <g id="text_3">
      <!-- 09-15 -->
      <g transform="translate(616.969509 435.03375)scale(0.4 -0.4)">
       <defs>
        <path d="M 10.796875 72.90625 
L 49.515625 72.90625 
L 49.515625 64.59375 
L 19.828125 64.59375 
L 19.828125 46.734375 
Q 21.96875 47.46875 24.109375 47.828125 
Q 26.265625 48.1875 28.421875 48.1875 
Q 40.625 48.1875 47.75 41.5 
Q 54.890625 34.8125 54.890625 23.390625 
Q 54.890625 11.625 47.5625 5.09375 
Q 40.234375 -1.421875 26.90625 -1.421875 
Q 22.3125 -1.421875 17.546875 -0.640625 
Q 12.796875 0.140625 7.71875 1.703125 
L 7.71875 11.625 
Q 12.109375 9.234375 16.796875 8.0625 
Q 21.484375 6.890625 26.703125 6.890625 
Q 35.15625 6.890625 40.078125 11.328125 
Q 45.015625 15.765625 45.015625 23.390625 
Q 45.015625 31 40.078125 35.4375 
Q 35.15625 39.890625 26.703125 39.890625 
Q 22.75 39.890625 18.8125 39.015625 
Q 14.890625 38.140625 10.796875 36.28125 
z
" id="DejaVuSans-53"/>
       </defs>
       <use xlink:href="#DejaVuSans-48"/>
       <use x="63.623047" xlink:href="#DejaVuSans-57"/>
       <use x="127.246094" xlink:href="#DejaVuSans-45"/>
       <use x="163.330078" xlink:href="#DejaVuSans-49"/>
       <use x="226.953125" xlink:href="#DejaVuSans-53"/>
      </g>
     </g>
    </g>
    <g id="xtick_4">
     <g id="line2d_4">
      <g>
       <use style="stroke:#000000;stroke-width:0.8;" x="884.409507" xlink:href="#m24d78f74b0" y="397.64"/>
      </g>
     </g>
     <g id="text_4">
      <!-- 09-17 -->
      <g transform="translate(826.293882 435.03375)scale(0.4 -0.4)">
       <defs>
        <path d="M 8.203125 72.90625 
L 55.078125 72.90625 
L 55.078125 68.703125 
L 28.609375 0 
L 18.3125 0 
L 43.21875 64.59375 
L 8.203125 64.59375 
z
" id="DejaVuSans-55"/>
       </defs>
       <use xlink:href="#DejaVuSans-48"/>
       <use x="63.623047" xlink:href="#DejaVuSans-57"/>
       <use x="127.246094" xlink:href="#DejaVuSans-45"/>
       <use x="163.330078" xlink:href="#DejaVuSans-49"/>
       <use x="226.953125" xlink:href="#DejaVuSans-55"/>
      </g>
     </g>
    </g>
    <g id="xtick_5">
     <g id="line2d_5">
      <g>
       <use style="stroke:#000000;stroke-width:0.8;" x="1093.733879" xlink:href="#m24d78f74b0" y="397.64"/>
      </g>
     </g>
     <g id="text_5">
      <!-- 09-19 -->
      <g transform="translate(1035.618254 435.03375)scale(0.4 -0.4)">
       <use xlink:href="#DejaVuSans-48"/>
       <use x="63.623047" xlink:href="#DejaVuSans-57"/>
       <use x="127.246094" xlink:href="#DejaVuSans-45"/>
       <use x="163.330078" xlink:href="#DejaVuSans-49"/>
       <use x="226.953125" xlink:href="#DejaVuSans-57"/>
      </g>
     </g>
    </g>
    <g id="xtick_6">
     <g id="line2d_6">
      <g>
       <use style="stroke:#000000;stroke-width:0.8;" x="1303.058252" xlink:href="#m24d78f74b0" y="397.64"/>
      </g>
     </g>
     <g id="text_6">
      <!-- 09-21 -->
      <g transform="translate(1244.942627 435.03375)scale(0.4 -0.4)">
       <defs>
        <path d="M 19.1875 8.296875 
L 53.609375 8.296875 
L 53.609375 0 
L 7.328125 0 
L 7.328125 8.296875 
Q 12.9375 14.109375 22.625 23.890625 
Q 32.328125 33.6875 34.8125 36.53125 
Q 39.546875 41.84375 41.421875 45.53125 
Q 43.3125 49.21875 43.3125 52.78125 
Q 43.3125 58.59375 39.234375 62.25 
Q 35.15625 65.921875 28.609375 65.921875 
Q 23.96875 65.921875 18.8125 64.3125 
Q 13.671875 62.703125 7.8125 59.421875 
L 7.8125 69.390625 
Q 13.765625 71.78125 18.9375 73 
Q 24.125 74.21875 28.421875 74.21875 
Q 39.75 74.21875 46.484375 68.546875 
Q 53.21875 62.890625 53.21875 53.421875 
Q 53.21875 48.921875 51.53125 44.890625 
Q 49.859375 40.875 45.40625 35.40625 
Q 44.1875 33.984375 37.640625 27.21875 
Q 31.109375 20.453125 19.1875 8.296875 
z
" id="DejaVuSans-50"/>
       </defs>
       <use xlink:href="#DejaVuSans-48"/>
       <use x="63.623047" xlink:href="#DejaVuSans-57"/>
       <use x="127.246094" xlink:href="#DejaVuSans-45"/>
       <use x="163.330078" xlink:href="#DejaVuSans-50"/>
       <use x="226.953125" xlink:href="#DejaVuSans-49"/>
      </g>
     </g>
    </g>
   </g>
   <g id="matplotlib.axis_2">
    <g id="ytick_1">
     <g id="line2d_7">
      <defs>
       <path d="M 0 0 
L -3.5 0 
" id="m471893c055" style="stroke:#000000;stroke-width:0.8;"/>
      </defs>
      <g>
       <use style="stroke:#000000;stroke-width:0.8;" x="94.21" xlink:href="#m471893c055" y="397.64"/>
      </g>
     </g>
     <g id="text_7">
      <!-- 0 -->
      <g transform="translate(61.76 412.836875)scale(0.4 -0.4)">
       <use xlink:href="#DejaVuSans-48"/>
      </g>
     </g>
    </g>
    <g id="ytick_2">
     <g id="line2d_8">
      <g>
       <use style="stroke:#000000;stroke-width:0.8;" x="94.21" xlink:href="#m471893c055" y="242.904"/>
      </g>
     </g>
     <g id="text_8">
      <!-- 100 -->
      <g transform="translate(10.86 258.100875)scale(0.4 -0.4)">
       <use xlink:href="#DejaVuSans-49"/>
       <use x="63.623047" xlink:href="#DejaVuSans-48"/>
       <use x="127.246094" xlink:href="#DejaVuSans-48"/>
      </g>
     </g>
    </g>
    <g id="ytick_3">
     <g id="line2d_9">
      <g>
       <use style="stroke:#000000;stroke-width:0.8;" x="94.21" xlink:href="#m471893c055" y="88.168"/>
      </g>
     </g>
     <g id="text_9">
      <!-- 200 -->
      <g transform="translate(10.86 103.364875)scale(0.4 -0.4)">
       <use xlink:href="#DejaVuSans-50"/>
       <use x="63.623047" xlink:href="#DejaVuSans-48"/>
       <use x="127.246094" xlink:href="#DejaVuSans-48"/>
      </g>
     </g>
    </g>
   </g>
   <g id="line2d_10">
    <path clip-path="url(#p8950f8a04f)" d="M 186.661598 329.199254 
L 191.022522 338.105875 
L 195.383447 340.446819 
L 199.744371 336.771656 
L 204.105296 335.361075 
L 208.46622 340.708883 
L 212.827145 338.961792 
L 217.188069 334.001886 
L 221.548993 322.288148 
L 225.909918 320.799446 
L 230.270842 319.966805 
L 234.631767 313.4099 
L 238.992691 319.507154 
L 243.353616 324.53011 
L 247.71454 324.658319 
L 252.075464 307.835981 
L 256.436389 294.124193 
L 260.797313 276.35887 
L 265.158238 243.703992 
L 269.519162 259.375348 
L 273.880087 260.389466 
L 278.241011 256.531011 
L 282.601935 246.928461 
L 286.96286 240.470719 
L 291.323784 247.518704 
L 295.684709 253.930249 
L 300.045633 240.111771 
L 304.406558 206.083166 
L 308.767482 199.534262 
L 313.128406 196.806199 
L 317.489331 200.107844 
L 321.850255 201.007503 
L 326.21118 214.160599 
L 330.572104 213.103355 
L 334.933029 222.901829 
L 339.293953 220.057602 
L 343.654877 197.695657 
L 348.015802 171.951261 
L 352.376726 157.919723 
L 356.737651 163.59111 
L 361.098575 171.392481 
L 365.4595 175.663829 
L 369.820424 183.006462 
L 374.181348 200.584861 
L 378.542273 221.841591 
L 382.903197 232.297062 
L 387.264122 238.175355 
L 391.625046 239.04336 
L 395.985971 238.321229 
L 404.707819 239.259995 
L 409.068744 239.403315 
L 413.429668 236.648579 
L 417.790593 218.658785 
L 422.151517 237.13923 
L 426.512442 238.219607 
L 430.873366 235.394935 
L 435.23429 236.938869 
L 439.595215 233.526221 
L 443.956139 230.37644 
L 448.317064 230.389822 
L 452.677988 233.8981 
L 457.038913 246.113691 
L 461.399837 247.908557 
L 465.760761 252.139312 
L 470.121686 250.62805 
L 474.48261 244.225585 
L 478.843535 246.58766 
L 483.204459 248.347561 
L 487.565384 251.968372 
L 491.926308 254.513041 
L 496.287232 252.081037 
L 500.648157 248.320366 
L 505.009081 244.077955 
L 509.370006 240.608658 
L 513.73093 239.015812 
L 518.091855 239.058547 
L 522.452779 245.336692 
L 526.813703 248.40195 
L 531.174628 250.018107 
L 535.535552 239.208979 
L 539.896477 234.369362 
L 544.257401 231.432309 
L 548.618326 232.492912 
L 552.97925 236.735322 
L 557.340174 236.731437 
L 561.701099 241.102052 
L 566.062023 245.111363 
L 570.422948 249.415933 
L 574.783872 246.929539 
L 579.144797 247.150983 
L 583.505721 251.082594 
L 587.866646 253.355314 
L 592.22757 255.841708 
L 596.588494 259.202226 
L 600.949419 260.391033 
L 605.310343 261.917835 
L 609.671268 257.597216 
L 614.032192 257.235103 
L 618.393117 252.446687 
L 627.114965 255.301695 
L 631.47589 251.377854 
L 635.836814 252.071357 
L 640.197739 245.587524 
L 644.558663 241.819861 
L 648.919588 240.049089 
L 653.280512 240.748518 
L 657.641436 247.298613 
L 662.002361 249.754945 
L 666.363285 217.333676 
L 670.72421 195.298007 
L 675.085134 193.639115 
L 679.446059 193.8761 
L 683.806983 190.061039 
L 688.167907 190.441768 
L 692.528832 185.779778 
L 696.889756 183.608068 
L 701.250681 194.757993 
L 705.611605 248.47965 
L 709.97253 204.012042 
L 714.333454 239.664605 
L 718.694378 244.22947 
L 723.055303 247.912442 
L 727.416227 258.285368 
L 731.777152 263.343626 
L 736.138076 274.89759 
L 740.499001 286.972142 
L 744.859925 277.535499 
L 749.220849 268.673834 
L 753.581774 265.767861 
L 757.942698 267.659852 
L 762.303623 268.355265 
L 766.664547 268.17267 
L 771.025472 269.252698 
L 775.386396 269.365363 
L 779.74732 271.187423 
L 784.108245 277.923998 
L 788.469169 285.243321 
L 797.191018 294.975224 
L 801.551943 298.627116 
L 805.912867 300.888181 
L 810.273791 304.481798 
L 814.634716 305.62787 
L 818.99564 310.18108 
L 823.356565 313.782466 
L 827.717489 316.669426 
L 832.078414 322.768451 
L 836.439338 324.792531 
L 840.800262 326.055153 
L 845.161187 327.834479 
L 849.522111 329.82748 
L 853.883036 329.839135 
L 858.24396 330.635558 
L 862.604885 329.745895 
L 866.965809 327.64023 
L 871.326733 310.487994 
L 875.687658 307.076972 
L 880.048582 310.985273 
L 884.409507 311.937096 
L 888.770431 310.324824 
L 893.131356 306.540843 
L 897.49228 306.824447 
L 901.853204 314.097151 
L 906.214129 317.818972 
L 910.575053 319.120444 
L 914.935978 326.789417 
L 919.296902 326.459192 
L 923.657827 325.802629 
L 928.018751 313.712536 
L 932.379675 328.925653 
L 936.7406 346.602871 
L 941.101524 351.313929 
L 945.462449 343.302359 
L 949.823373 338.593358 
L 954.184298 336.919861 
L 958.545222 335.899103 
L 962.906147 336.125181 
L 967.267071 332.778612 
L 971.627995 331.769596 
L 975.98892 331.27521 
L 980.349844 331.485585 
L 984.710769 331.552372 
L 989.071693 332.400959 
L 993.432618 331.835234 
L 997.793542 331.882444 
L 1002.154466 330.918705 
L 1006.515391 331.652015 
L 1010.876315 335.108934 
L 1015.23724 337.519925 
L 1019.598164 337.785526 
L 1023.959089 334.937545 
L 1028.320013 324.649982 
L 1032.680937 332.629362 
L 1037.041862 330.775418 
L 1041.402786 273.102724 
L 1045.763711 332.478634 
L 1050.124635 337.590443 
L 1054.48556 347.547639 
L 1058.846484 257.710194 
L 1063.207408 352.386238 
L 1067.568333 352.492038 
L 1071.929257 355.064838 
L 1076.290182 357.247747 
L 1080.651106 356.552334 
L 1085.012031 354.524368 
L 1089.372955 359.310677 
L 1093.733879 381.594987 
L 1098.094804 391.004435 
L 1102.455728 394.982666 
L 1106.816653 396.863002 
L 1111.177577 397.255386 
L 1115.538502 397.406901 
L 1124.26035 397.197111 
L 1128.621275 397.418556 
L 1132.982199 397.480715 
L 1137.343124 393.362398 
L 1141.704048 288.204697 
L 1146.064973 397.450894 
L 1150.425897 397.64 
L 1154.786821 397.620575 
L 1159.147746 397.353923 
L 1163.50867 389.571772 
L 1167.869595 393.073641 
L 1172.230519 396.190474 
L 1180.952368 396.006345 
L 1185.313292 396.508551 
L 1189.674217 396.241403 
L 1198.396066 396.831922 
L 1202.75699 397.228191 
L 1207.117915 397.127723 
L 1211.478839 396.87527 
L 1215.839763 396.42657 
L 1220.200688 396.768807 
L 1224.561612 397.239846 
L 1228.922537 397.480715 
L 1237.644386 397.564292 
L 1242.00531 397.482854 
L 1250.727159 397.514283 
L 1255.088083 397.156777 
L 1259.449008 395.073947 
L 1263.809932 378.579477 
L 1268.170857 356.387405 
L 1272.531781 385.201499 
L 1276.892705 386.278849 
L 1281.25363 390.100935 
L 1285.614554 392.682053 
L 1289.975479 392.104542 
L 1294.336403 393.048528 
L 1298.697328 390.533085 
L 1303.058252 389.620595 
L 1303.058252 389.620595 
" style="fill:none;stroke:#0000ff;stroke-linecap:square;stroke-width:3;"/>
   </g>
   <g id="line2d_11">
    <path clip-path="url(#p8950f8a04f)" d="M 186.661598 323.514369 
L 191.022522 337.737322 
L 195.383447 335.923031 
L 204.105296 321.540794 
L 208.46622 325.51514 
L 212.827145 319.722618 
L 217.188069 310.981388 
L 221.548993 310.014025 
L 225.909918 298.219192 
L 230.270842 296.043597 
L 234.631767 302.609232 
L 238.992691 300.872641 
L 243.353616 301.432079 
L 247.71454 280.962061 
L 252.075464 274.85097 
L 256.436389 285.6629 
L 260.797313 241.342922 
L 265.158238 233.697259 
L 269.519162 244.501419 
L 273.880087 241.016582 
L 278.241011 236.669277 
L 282.601935 223.285483 
L 286.96286 211.848069 
L 291.323784 194.571513 
L 295.684709 179.089824 
L 300.045633 152.065825 
L 304.406558 136.81335 
L 308.767482 97.55163 
L 313.128406 91.269599 
L 317.489331 79.66513 
L 321.850255 100.834447 
L 326.21118 122.877887 
L 330.572104 133.006059 
L 334.933029 131.129608 
L 339.293953 137.792368 
L 343.654877 140.562366 
L 348.015802 113.281959 
L 352.376726 101.312301 
L 356.737651 112.143656 
L 361.098575 122.450538 
L 365.4595 126.537548 
L 369.820424 135.678933 
L 374.181348 158.153606 
L 378.542273 170.546728 
L 382.903197 176.055645 
L 387.264122 180.56612 
L 391.625046 179.975602 
L 395.985971 178.460455 
L 400.346895 176.751059 
L 404.707819 177.590217 
L 409.068744 171.94921 
L 413.429668 164.268582 
L 417.790593 116.898885 
L 422.151517 166.226618 
L 426.512442 168.619772 
L 430.873366 171.246026 
L 435.23429 167.671835 
L 439.595215 165.566169 
L 443.956139 165.3253 
L 448.317064 170.908032 
L 452.677988 182.073497 
L 457.038913 184.357872 
L 461.399837 187.380395 
L 465.760761 192.722257 
L 470.121686 186.075038 
L 474.48261 175.266992 
L 478.843535 180.869149 
L 483.204459 179.124788 
L 487.565384 178.62751 
L 491.926308 178.56535 
L 496.287232 175.570022 
L 500.648157 164.217679 
L 505.009081 166.078988 
L 509.370006 161.176129 
L 513.73093 157.978782 
L 518.091855 165.911934 
L 522.452779 179.540483 
L 526.813703 177.776697 
L 531.174628 170.542843 
L 535.535552 144.478437 
L 539.896477 139.198735 
L 544.257401 143.732519 
L 548.618326 152.392164 
L 552.97925 157.275598 
L 561.701099 168.297318 
L 566.062023 169.408426 
L 570.422948 169.202521 
L 574.783872 164.027713 
L 579.144797 172.586348 
L 583.505721 173.798466 
L 587.866646 179.614297 
L 592.22757 184.326792 
L 596.588494 183.060284 
L 600.949419 188.211783 
L 605.310343 183.083594 
L 609.671268 171.521861 
L 614.032192 172.757288 
L 618.393117 161.953128 
L 622.754041 176.871494 
L 627.114965 165.546744 
L 631.47589 167.68349 
L 635.836814 159.264714 
L 640.197739 145.985814 
L 644.558663 150.375854 
L 648.919588 160.018402 
L 653.280512 165.908049 
L 657.641436 158.93449 
L 662.002361 166.374248 
L 666.363285 164.210307 
L 670.72421 164.703701 
L 675.085134 165.989633 
L 679.446059 160.690506 
L 683.806983 160.298121 
L 688.167907 160.507911 
L 692.528832 153.184703 
L 696.889756 148.751928 
L 701.250681 144.839742 
L 705.611605 149.326906 
L 709.97253 159.917392 
L 714.333454 157.858347 
L 718.694378 157.469848 
L 723.055303 170.053334 
L 727.416227 172.749518 
L 731.777152 171.406253 
L 736.138076 234.590807 
L 740.499001 209.956078 
L 744.859925 204.68026 
L 749.220849 199.672507 
L 753.581774 202.213291 
L 757.942698 197.127837 
L 762.303623 198.825579 
L 766.664547 201.479027 
L 771.025472 200.787499 
L 775.386396 203.557498 
L 779.74732 217.388066 
L 784.108245 227.570628 
L 788.469169 230.733011 
L 792.830094 240.056989 
L 797.191018 244.672359 
L 801.551943 245.767926 
L 805.912867 250.095807 
L 810.273791 252.555006 
L 814.634716 250.86892 
L 818.99564 257.14318 
L 823.356565 267.271352 
L 827.717489 281.863379 
L 832.078414 285.91931 
L 836.439338 284.361428 
L 840.800262 289.341987 
L 845.161187 295.017959 
L 849.522111 298.475601 
L 853.883036 296.742895 
L 858.24396 300.853216 
L 862.604885 295.394803 
L 866.965809 281.964389 
L 871.326733 225.336758 
L 875.687658 255.04917 
L 880.048582 265.694046 
L 884.409507 260.317218 
L 888.770431 259.777204 
L 893.131356 246.840184 
L 901.853204 276.979945 
L 906.214129 277.364559 
L 910.575053 282.399508 
L 914.935978 304.761517 
L 919.296902 318.292941 
L 923.657827 312.426604 
L 928.018751 305.577365 
L 932.379675 325.662769 
L 936.7406 339.714782 
L 941.101524 336.152245 
L 945.462449 319.497288 
L 949.823373 320.82984 
L 954.184298 317.803432 
L 958.545222 315.080053 
L 962.906147 311.816661 
L 967.267071 304.757632 
L 971.627995 302.617002 
L 975.98892 302.900606 
L 980.349844 304.788712 
L 989.071693 302.628657 
L 993.432618 302.069218 
L 997.793542 297.512123 
L 1002.154466 299.202095 
L 1006.515391 305.569595 
L 1010.876315 317.780122 
L 1015.23724 315.658917 
L 1019.598164 308.343479 
L 1023.959089 299.742108 
L 1028.320013 302.026483 
L 1032.680937 302.380017 
L 1037.041862 295.756107 
L 1041.402786 287.908425 
L 1045.763711 323.254796 
L 1050.124635 330.138061 
L 1054.48556 334.967323 
L 1058.846484 324.986781 
L 1063.207408 335.740436 
L 1067.568333 334.897393 
L 1071.929257 335.770596 
L 1076.290182 334.396229 
L 1080.651106 335.142148 
L 1085.012031 346.564022 
L 1089.372955 372.352593 
L 1093.733879 385.895672 
L 1102.455728 395.66254 
L 1111.177577 396.521123 
L 1115.538502 396.777532 
L 1119.899426 396.423998 
L 1128.621275 396.614362 
L 1132.982199 396.975667 
L 1137.343124 397.041711 
L 1141.704048 397.51568 
L 1146.064973 397.47683 
L 1154.786821 397.072791 
L 1159.147746 396.128738 
L 1163.50867 395.42167 
L 1167.869595 395.744124 
L 1172.230519 392.706061 
L 1176.591444 391.587184 
L 1180.952368 392.651671 
L 1185.313292 393.106215 
L 1189.674217 391.594954 
L 1194.035141 395.095331 
L 1202.75699 395.724699 
L 1207.117915 395.277925 
L 1211.478839 391.451209 
L 1215.839763 392.818726 
L 1220.200688 395.51491 
L 1228.922537 396.688177 
L 1233.283461 397.014516 
L 1242.00531 396.715372 
L 1246.366234 395.141951 
L 1250.727159 395.786859 
L 1255.088083 397.224306 
L 1259.449008 397.076676 
L 1272.531781 397.186715 
L 1276.892705 396.074349 
L 1281.25363 396.210323 
L 1285.614554 393.840479 
L 1289.975479 388.856035 
L 1294.336403 388.059612 
L 1298.697328 384.780679 
L 1303.058252 382.830414 
L 1303.058252 382.830414 
" style="fill:none;stroke:#ff0000;stroke-linecap:square;stroke-width:3;"/>
   </g>
   <g id="line2d_12">
    <path clip-path="url(#p8950f8a04f)" d="M 151.774202 375.20328 
L 156.135127 375.744856 
L 160.496051 372.804872 
L 164.856976 370.096992 
L 169.2179 364.294392 
L 173.578825 362.360192 
L 177.939749 361.509144 
L 182.300673 351.528672 
L 186.661598 354.31392 
L 191.022522 345.571336 
L 195.383447 343.09556 
L 199.744371 348.51132 
L 204.105296 341.006624 
L 208.46622 347.273432 
L 212.827145 343.405032 
L 217.188069 343.637136 
L 221.548993 337.370328 
L 225.909918 334.97192 
L 230.270842 329.091952 
L 234.631767 327.699328 
L 238.992691 331.722464 
L 243.353616 324.295136 
L 247.71454 330.097736 
L 252.075464 328.937216 
L 256.436389 314.624136 
L 260.797313 291.026896 
L 265.158238 279.034856 
L 269.519162 289.556904 
L 273.880087 290.562688 
L 278.241011 278.570648 
L 282.601935 267.042816 
L 286.96286 241.124536 
L 291.323784 224.026208 
L 295.684709 213.272056 
L 300.045633 192.846904 
L 304.406558 158.57288 
L 308.767482 121.281504 
L 313.128406 101.630032 
L 317.489331 117.645208 
L 321.850255 128.863568 
L 326.21118 185.496944 
L 330.572104 213.272056 
L 334.933029 221.008856 
L 339.293953 219.848336 
L 343.654877 194.316896 
L 348.015802 162.209176 
L 352.376726 169.636504 
L 356.737651 159.191824 
L 361.098575 170.255448 
L 365.4595 173.2728 
L 374.181348 186.270624 
L 378.542273 190.216392 
L 382.903197 193.233744 
L 387.264122 195.941624 
L 391.625046 190.371128 
L 395.985971 190.448496 
L 400.346895 177.1412 
L 404.707819 175.748576 
L 409.068744 179.46224 
L 413.429668 173.504904 
L 417.790593 170.797024 
L 422.151517 173.427536 
L 426.512442 169.79124 
L 430.873366 176.986464 
L 435.23429 172.731224 
L 439.595215 173.427536 
L 443.956139 178.843296 
L 448.317064 189.13324 
L 452.677988 193.543216 
L 457.038913 195.167944 
L 461.399837 197.64372 
L 465.760761 195.167944 
L 470.121686 198.185296 
L 474.48261 192.460064 
L 478.843535 191.45428 
L 483.204459 200.661072 
L 487.565384 200.661072 
L 491.926308 199.732656 
L 496.287232 200.428968 
L 500.648157 192.22796 
L 505.009081 173.350168 
L 509.370006 173.118064 
L 513.73093 167.005992 
L 518.091855 170.95176 
L 522.452779 171.029128 
L 526.813703 162.673384 
L 531.174628 151.841864 
L 535.535552 132.964072 
L 539.896477 124.376224 
L 544.257401 123.447808 
L 548.618326 136.058792 
L 552.97925 142.248232 
L 557.340174 145.03348 
L 561.701099 149.752928 
L 566.062023 150.83608 
L 570.422948 157.180256 
L 574.783872 152.77028 
L 579.144797 161.822336 
L 583.505721 164.220744 
L 587.866646 167.624936 
L 592.22757 134.5888 
L 596.588494 163.21496 
L 600.949419 164.607584 
L 605.310343 154.240272 
L 609.671268 145.03348 
L 614.032192 137.760888 
L 618.393117 129.94672 
L 622.754041 123.679912 
L 627.114965 117.877312 
L 631.47589 107.355264 
L 635.836814 97.839 
L 640.197739 105.807904 
L 644.558663 111.533136 
L 648.919588 127.393576 
L 653.280512 134.434064 
L 657.641436 136.600368 
L 662.002361 139.23088 
L 666.363285 136.445632 
L 670.72421 139.153512 
L 675.085134 135.285112 
L 679.446059 138.921408 
L 683.806983 143.563488 
L 688.167907 147.663992 
L 692.528832 149.28872 
L 696.889756 143.950328 
L 701.250681 148.050832 
L 705.611605 140.700872 
L 709.97253 91.26272 
L 714.333454 95.9048 
L 718.694378 132.6546 
L 723.055303 131.339344 
L 727.416227 145.03348 
L 731.777152 146.116632 
L 736.138076 161.744968 
L 740.499001 147.431888 
L 744.859925 161.977072 
L 749.220849 168.475984 
L 757.942698 171.802808 
L 762.303623 176.676992 
L 766.664547 178.998032 
L 771.025472 177.52804 
L 775.386396 192.382696 
L 779.74732 203.910528 
L 784.108245 218.455712 
L 788.469169 226.424616 
L 792.830094 229.287232 
L 797.191018 233.078264 
L 801.551943 241.820848 
L 805.912867 237.87508 
L 810.273791 235.399304 
L 814.634716 238.958232 
L 818.99564 233.61984 
L 823.356565 256.211296 
L 827.717489 257.449184 
L 832.078414 257.21708 
L 836.439338 273.46436 
L 840.800262 274.005936 
L 845.161187 286.152712 
L 849.522111 291.491104 
L 853.883036 284.063776 
L 858.24396 282.516416 
L 862.604885 281.510632 
L 866.965809 273.309624 
L 871.326733 275.862768 
L 875.687658 288.860592 
L 880.048582 289.3248 
L 884.409507 281.897472 
L 888.770431 268.899648 
L 893.131356 275.475928 
L 897.49228 283.754304 
L 901.853204 264.876512 
L 906.214129 266.733344 
L 910.575053 284.218512 
L 914.935978 295.591608 
L 919.296902 291.568472 
L 923.657827 293.812144 
L 928.018751 320.194632 
L 932.379675 338.144008 
L 936.7406 336.828752 
L 941.101524 327.003016 
L 945.462449 316.326232 
L 949.823373 318.3378 
L 954.184298 320.813576 
L 958.545222 310.910472 
L 967.267071 307.274176 
L 971.627995 309.285744 
L 975.98892 310.98784 
L 980.349844 309.44048 
L 984.710769 308.821536 
L 989.071693 307.428912 
L 993.432618 309.904688 
L 997.793542 306.113656 
L 1002.154466 308.125224 
L 1006.515391 311.606784 
L 1010.876315 308.434696 
L 1015.23724 306.964704 
L 1023.959089 301.31684 
L 1028.320013 303.173672 
L 1032.680937 297.44844 
L 1037.041862 309.82732 
L 1041.402786 327.080384 
L 1045.763711 328.318272 
L 1050.124635 343.09556 
L 1054.48556 354.778128 
L 1058.846484 354.623392 
L 1063.207408 353.617608 
L 1067.568333 355.0876 
L 1071.929257 352.998664 
L 1076.290182 359.34284 
L 1080.651106 360.580728 
L 1085.012031 373.733288 
L 1089.372955 382.630608 
L 1093.733879 386.80848 
L 1098.094804 388.820048 
L 1102.455728 391.373192 
L 1111.177577 394.700016 
L 1115.538502 389.825832 
L 1119.899426 389.671096 
L 1124.26035 388.433208 
L 1128.621275 389.671096 
L 1132.982199 392.920552 
L 1137.343124 393.848968 
L 1141.704048 391.992136 
L 1146.064973 393.38476 
L 1150.425897 393.152656 
L 1154.786821 390.831616 
L 1159.147746 389.9032 
L 1163.50867 391.295824 
L 1167.869595 388.974784 
L 1172.230519 389.9032 
L 1176.591444 388.433208 
L 1180.952368 388.433208 
L 1185.313292 390.986352 
L 1189.674217 391.45056 
L 1194.035141 390.67688 
L 1198.396066 391.373192 
L 1202.75699 392.22424 
L 1211.478839 392.146872 
L 1215.839763 385.183752 
L 1220.200688 388.201104 
L 1224.561612 391.605296 
L 1228.922537 392.765816 
L 1233.283461 390.367408 
L 1237.644386 390.67688 
L 1242.00531 388.665312 
L 1246.366234 389.284256 
L 1250.727159 392.069504 
L 1255.088083 390.522144 
L 1259.449008 391.06372 
L 1263.809932 388.897416 
L 1268.170857 391.218456 
L 1272.531781 392.920552 
L 1276.892705 391.760032 
L 1281.25363 387.040584 
L 1285.614554 386.885848 
L 1289.975479 387.19532 
L 1294.336403 386.112168 
L 1298.697328 383.017448 
L 1303.058252 388.974784 
L 1303.058252 388.974784 
" style="fill:none;stroke:#008000;stroke-linecap:square;stroke-width:3;"/>
   </g>
   <g id="patch_3">
    <path d="M 94.21 397.64 
L 94.21 10.8 
" style="fill:none;stroke:#000000;stroke-linecap:square;stroke-linejoin:miter;stroke-width:0.8;"/>
   </g>
   <g id="patch_4">
    <path d="M 1360.622455 397.64 
L 1360.622455 10.8 
" style="fill:none;stroke:#000000;stroke-linecap:square;stroke-linejoin:miter;stroke-width:0.8;"/>
   </g>
   <g id="patch_5">
    <path d="M 94.21 397.64 
L 1360.622455 397.64 
" style="fill:none;stroke:#000000;stroke-linecap:square;stroke-linejoin:miter;stroke-width:0.8;"/>
   </g>
   <g id="patch_6">
    <path d="M 94.21 10.8 
L 1360.622455 10.8 
" style="fill:none;stroke:#000000;stroke-linecap:square;stroke-linejoin:miter;stroke-width:0.8;"/>
   </g>
  </g>
 </g>
 <defs>
  <clipPath id="p8950f8a04f">
   <rect height="386.84" width="1266.412455" x="94.21" y="10.8"/>
  </clipPath>
 </defs>
</svg>
