<?xml version="1.0" encoding="utf-8" standalone="no"?>
<!DOCTYPE svg PUBLIC "-//W3C//DTD SVG 1.1//EN"
  "http://www.w3.org/Graphics/SVG/1.1/DTD/svg11.dtd">
<!-- Created with matplotlib (https://matplotlib.org/) -->
<svg height="691.92pt" version="1.1" viewBox="0 0 1382.4 691.92" width="1382.4pt" xmlns="http://www.w3.org/2000/svg" xmlns:xlink="http://www.w3.org/1999/xlink">
 <metadata>
  <rdf:RDF xmlns:cc="http://creativecommons.org/ns#" xmlns:dc="http://purl.org/dc/elements/1.1/" xmlns:rdf="http://www.w3.org/1999/02/22-rdf-syntax-ns#">
   <cc:Work>
    <dc:type rdf:resource="http://purl.org/dc/dcmitype/StillImage"/>
    <dc:date>2021-07-08T19:18:41.147695</dc:date>
    <dc:format>image/svg+xml</dc:format>
    <dc:creator>
     <cc:Agent>
      <dc:title>Matplotlib v3.3.2, https://matplotlib.org/</dc:title>
     </cc:Agent>
    </dc:creator>
   </cc:Work>
  </rdf:RDF>
 </metadata>
 <defs>
  <style type="text/css">*{stroke-linecap:butt;stroke-linejoin:round;}</style>
 </defs>
 <g id="figure_1">
  <g id="patch_1">
   <path d="M 0 691.92 
L 1382.4 691.92 
L 1382.4 0 
L 0 0 
z
" style="fill:#ffffff;"/>
  </g>
  <g id="axes_1">
   <g id="patch_2">
    <path d="M 152.064 588.132 
L 1365.8112 588.132 
L 1365.8112 74.03544 
L 152.064 74.03544 
z
" style="fill:#ffffff;"/>
   </g>
   <g id="patch_3">
    <path clip-path="url(#p8ee3238b03)" d="M 207.234327 588.132 
L 207.234327 74.03544 
L 232.217117 74.03544 
L 232.217117 588.132 
z
" style="fill:#808080;opacity:0.5;"/>
   </g>
   <g id="patch_4">
    <path clip-path="url(#p8ee3238b03)" d="M 298.83789 588.132 
L 298.83789 74.03544 
L 336.312074 74.03544 
L 336.312074 588.132 
z
" style="fill:#808080;opacity:0.5;"/>
   </g>
   <g id="patch_5">
    <path clip-path="url(#p8ee3238b03)" d="M 398.769048 588.132 
L 398.769048 74.03544 
L 436.243233 74.03544 
L 436.243233 588.132 
z
" style="fill:#808080;opacity:0.5;"/>
   </g>
   <g id="patch_6">
    <path clip-path="url(#p8ee3238b03)" d="M 498.700207 588.132 
L 498.700207 74.03544 
L 536.174392 74.03544 
L 536.174392 588.132 
z
" style="fill:#808080;opacity:0.5;"/>
   </g>
   <g id="patch_7">
    <path clip-path="url(#p8ee3238b03)" d="M 598.631366 588.132 
L 598.631366 74.03544 
L 636.105551 74.03544 
L 636.105551 588.132 
z
" style="fill:#808080;opacity:0.5;"/>
   </g>
   <g id="patch_8">
    <path clip-path="url(#p8ee3238b03)" d="M 698.562525 588.132 
L 698.562525 74.03544 
L 736.036709 74.03544 
L 736.036709 588.132 
z
" style="fill:#808080;opacity:0.5;"/>
   </g>
   <g id="patch_9">
    <path clip-path="url(#p8ee3238b03)" d="M 798.493684 588.132 
L 798.493684 74.03544 
L 835.967868 74.03544 
L 835.967868 588.132 
z
" style="fill:#808080;opacity:0.5;"/>
   </g>
   <g id="patch_10">
    <path clip-path="url(#p8ee3238b03)" d="M 898.424843 588.132 
L 898.424843 74.03544 
L 935.899027 74.03544 
L 935.899027 588.132 
z
" style="fill:#808080;opacity:0.5;"/>
   </g>
   <g id="patch_11">
    <path clip-path="url(#p8ee3238b03)" d="M 998.356001 588.132 
L 998.356001 74.03544 
L 1035.830186 74.03544 
L 1035.830186 588.132 
z
" style="fill:#808080;opacity:0.5;"/>
   </g>
   <g id="patch_12">
    <path clip-path="url(#p8ee3238b03)" d="M 1098.28716 588.132 
L 1098.28716 74.03544 
L 1135.761345 74.03544 
L 1135.761345 588.132 
z
" style="fill:#808080;opacity:0.5;"/>
   </g>
   <g id="patch_13">
    <path clip-path="url(#p8ee3238b03)" d="M 1198.218319 588.132 
L 1198.218319 74.03544 
L 1235.692504 74.03544 
L 1235.692504 588.132 
z
" style="fill:#808080;opacity:0.5;"/>
   </g>
   <g id="patch_14">
    <path clip-path="url(#p8ee3238b03)" d="M 1298.149478 588.132 
L 1298.149478 74.03544 
L 1310.640873 74.03544 
L 1310.640873 588.132 
z
" style="fill:#808080;opacity:0.5;"/>
   </g>
   <g id="matplotlib.axis_1">
    <g id="xtick_1">
     <g id="line2d_1">
      <defs>
       <path d="M 0 0 
L 0 3.5 
" id="m56cac7ecc3" style="stroke:#000000;stroke-width:0.8;"/>
      </defs>
      <g>
       <use style="stroke:#000000;stroke-width:0.8;" x="307.165486" xlink:href="#m56cac7ecc3" y="588.132"/>
      </g>
     </g>
     <g id="text_1">
      <!-- 09-11 -->
      <g transform="translate(249.049861 625.52575)scale(0.4 -0.4)">
       <defs>
        <path d="M 31.78125 66.40625 
Q 24.171875 66.40625 20.328125 58.90625 
Q 16.5 51.421875 16.5 36.375 
Q 16.5 21.390625 20.328125 13.890625 
Q 24.171875 6.390625 31.78125 6.390625 
Q 39.453125 6.390625 43.28125 13.890625 
Q 47.125 21.390625 47.125 36.375 
Q 47.125 51.421875 43.28125 58.90625 
Q 39.453125 66.40625 31.78125 66.40625 
z
M 31.78125 74.21875 
Q 44.046875 74.21875 50.515625 64.515625 
Q 56.984375 54.828125 56.984375 36.375 
Q 56.984375 17.96875 50.515625 8.265625 
Q 44.046875 -1.421875 31.78125 -1.421875 
Q 19.53125 -1.421875 13.0625 8.265625 
Q 6.59375 17.96875 6.59375 36.375 
Q 6.59375 54.828125 13.0625 64.515625 
Q 19.53125 74.21875 31.78125 74.21875 
z
" id="DejaVuSans-48"/>
        <path d="M 10.984375 1.515625 
L 10.984375 10.5 
Q 14.703125 8.734375 18.5 7.8125 
Q 22.3125 6.890625 25.984375 6.890625 
Q 35.75 6.890625 40.890625 13.453125 
Q 46.046875 20.015625 46.78125 33.40625 
Q 43.953125 29.203125 39.59375 26.953125 
Q 35.25 24.703125 29.984375 24.703125 
Q 19.046875 24.703125 12.671875 31.3125 
Q 6.296875 37.9375 6.296875 49.421875 
Q 6.296875 60.640625 12.9375 67.421875 
Q 19.578125 74.21875 30.609375 74.21875 
Q 43.265625 74.21875 49.921875 64.515625 
Q 56.59375 54.828125 56.59375 36.375 
Q 56.59375 19.140625 48.40625 8.859375 
Q 40.234375 -1.421875 26.421875 -1.421875 
Q 22.703125 -1.421875 18.890625 -0.6875 
Q 15.09375 0.046875 10.984375 1.515625 
z
M 30.609375 32.421875 
Q 37.25 32.421875 41.125 36.953125 
Q 45.015625 41.5 45.015625 49.421875 
Q 45.015625 57.28125 41.125 61.84375 
Q 37.25 66.40625 30.609375 66.40625 
Q 23.96875 66.40625 20.09375 61.84375 
Q 16.21875 57.28125 16.21875 49.421875 
Q 16.21875 41.5 20.09375 36.953125 
Q 23.96875 32.421875 30.609375 32.421875 
z
" id="DejaVuSans-57"/>
        <path d="M 4.890625 31.390625 
L 31.203125 31.390625 
L 31.203125 23.390625 
L 4.890625 23.390625 
z
" id="DejaVuSans-45"/>
        <path d="M 12.40625 8.296875 
L 28.515625 8.296875 
L 28.515625 63.921875 
L 10.984375 60.40625 
L 10.984375 69.390625 
L 28.421875 72.90625 
L 38.28125 72.90625 
L 38.28125 8.296875 
L 54.390625 8.296875 
L 54.390625 0 
L 12.40625 0 
z
" id="DejaVuSans-49"/>
       </defs>
       <use xlink:href="#DejaVuSans-48"/>
       <use x="63.623047" xlink:href="#DejaVuSans-57"/>
       <use x="127.246094" xlink:href="#DejaVuSans-45"/>
       <use x="163.330078" xlink:href="#DejaVuSans-49"/>
       <use x="226.953125" xlink:href="#DejaVuSans-49"/>
      </g>
     </g>
    </g>
    <g id="xtick_2">
     <g id="line2d_2">
      <g>
       <use style="stroke:#000000;stroke-width:0.8;" x="507.027804" xlink:href="#m56cac7ecc3" y="588.132"/>
      </g>
     </g>
     <g id="text_2">
      <!-- 09-13 -->
      <g transform="translate(448.912179 625.52575)scale(0.4 -0.4)">
       <defs>
        <path d="M 40.578125 39.3125 
Q 47.65625 37.796875 51.625 33 
Q 55.609375 28.21875 55.609375 21.1875 
Q 55.609375 10.40625 48.1875 4.484375 
Q 40.765625 -1.421875 27.09375 -1.421875 
Q 22.515625 -1.421875 17.65625 -0.515625 
Q 12.796875 0.390625 7.625 2.203125 
L 7.625 11.71875 
Q 11.71875 9.328125 16.59375 8.109375 
Q 21.484375 6.890625 26.8125 6.890625 
Q 36.078125 6.890625 40.9375 10.546875 
Q 45.796875 14.203125 45.796875 21.1875 
Q 45.796875 27.640625 41.28125 31.265625 
Q 36.765625 34.90625 28.71875 34.90625 
L 20.21875 34.90625 
L 20.21875 43.015625 
L 29.109375 43.015625 
Q 36.375 43.015625 40.234375 45.921875 
Q 44.09375 48.828125 44.09375 54.296875 
Q 44.09375 59.90625 40.109375 62.90625 
Q 36.140625 65.921875 28.71875 65.921875 
Q 24.65625 65.921875 20.015625 65.03125 
Q 15.375 64.15625 9.8125 62.3125 
L 9.8125 71.09375 
Q 15.4375 72.65625 20.34375 73.4375 
Q 25.25 74.21875 29.59375 74.21875 
Q 40.828125 74.21875 47.359375 69.109375 
Q 53.90625 64.015625 53.90625 55.328125 
Q 53.90625 49.265625 50.4375 45.09375 
Q 46.96875 40.921875 40.578125 39.3125 
z
" id="DejaVuSans-51"/>
       </defs>
       <use xlink:href="#DejaVuSans-48"/>
       <use x="63.623047" xlink:href="#DejaVuSans-57"/>
       <use x="127.246094" xlink:href="#DejaVuSans-45"/>
       <use x="163.330078" xlink:href="#DejaVuSans-49"/>
       <use x="226.953125" xlink:href="#DejaVuSans-51"/>
      </g>
     </g>
    </g>
    <g id="xtick_3">
     <g id="line2d_3">
      <g>
       <use style="stroke:#000000;stroke-width:0.8;" x="706.890121" xlink:href="#m56cac7ecc3" y="588.132"/>
      </g>
     </g>
     <g id="text_3">
      <!-- 09-15 -->
      <g transform="translate(648.774496 625.52575)scale(0.4 -0.4)">
       <defs>
        <path d="M 10.796875 72.90625 
L 49.515625 72.90625 
L 49.515625 64.59375 
L 19.828125 64.59375 
L 19.828125 46.734375 
Q 21.96875 47.46875 24.109375 47.828125 
Q 26.265625 48.1875 28.421875 48.1875 
Q 40.625 48.1875 47.75 41.5 
Q 54.890625 34.8125 54.890625 23.390625 
Q 54.890625 11.625 47.5625 5.09375 
Q 40.234375 -1.421875 26.90625 -1.421875 
Q 22.3125 -1.421875 17.546875 -0.640625 
Q 12.796875 0.140625 7.71875 1.703125 
L 7.71875 11.625 
Q 12.109375 9.234375 16.796875 8.0625 
Q 21.484375 6.890625 26.703125 6.890625 
Q 35.15625 6.890625 40.078125 11.328125 
Q 45.015625 15.765625 45.015625 23.390625 
Q 45.015625 31 40.078125 35.4375 
Q 35.15625 39.890625 26.703125 39.890625 
Q 22.75 39.890625 18.8125 39.015625 
Q 14.890625 38.140625 10.796875 36.28125 
z
" id="DejaVuSans-53"/>
       </defs>
       <use xlink:href="#DejaVuSans-48"/>
       <use x="63.623047" xlink:href="#DejaVuSans-57"/>
       <use x="127.246094" xlink:href="#DejaVuSans-45"/>
       <use x="163.330078" xlink:href="#DejaVuSans-49"/>
       <use x="226.953125" xlink:href="#DejaVuSans-53"/>
      </g>
     </g>
    </g>
    <g id="xtick_4">
     <g id="line2d_4">
      <g>
       <use style="stroke:#000000;stroke-width:0.8;" x="906.752439" xlink:href="#m56cac7ecc3" y="588.132"/>
      </g>
     </g>
     <g id="text_4">
      <!-- 09-17 -->
      <g transform="translate(848.636814 625.52575)scale(0.4 -0.4)">
       <defs>
        <path d="M 8.203125 72.90625 
L 55.078125 72.90625 
L 55.078125 68.703125 
L 28.609375 0 
L 18.3125 0 
L 43.21875 64.59375 
L 8.203125 64.59375 
z
" id="DejaVuSans-55"/>
       </defs>
       <use xlink:href="#DejaVuSans-48"/>
       <use x="63.623047" xlink:href="#DejaVuSans-57"/>
       <use x="127.246094" xlink:href="#DejaVuSans-45"/>
       <use x="163.330078" xlink:href="#DejaVuSans-49"/>
       <use x="226.953125" xlink:href="#DejaVuSans-55"/>
      </g>
     </g>
    </g>
    <g id="xtick_5">
     <g id="line2d_5">
      <g>
       <use style="stroke:#000000;stroke-width:0.8;" x="1106.614757" xlink:href="#m56cac7ecc3" y="588.132"/>
      </g>
     </g>
     <g id="text_5">
      <!-- 09-19 -->
      <g transform="translate(1048.499132 625.52575)scale(0.4 -0.4)">
       <use xlink:href="#DejaVuSans-48"/>
       <use x="63.623047" xlink:href="#DejaVuSans-57"/>
       <use x="127.246094" xlink:href="#DejaVuSans-45"/>
       <use x="163.330078" xlink:href="#DejaVuSans-49"/>
       <use x="226.953125" xlink:href="#DejaVuSans-57"/>
      </g>
     </g>
    </g>
    <g id="xtick_6">
     <g id="line2d_6">
      <g>
       <use style="stroke:#000000;stroke-width:0.8;" x="1306.477074" xlink:href="#m56cac7ecc3" y="588.132"/>
      </g>
     </g>
     <g id="text_6">
      <!-- 09-21 -->
      <g transform="translate(1248.361449 625.52575)scale(0.4 -0.4)">
       <defs>
        <path d="M 19.1875 8.296875 
L 53.609375 8.296875 
L 53.609375 0 
L 7.328125 0 
L 7.328125 8.296875 
Q 12.9375 14.109375 22.625 23.890625 
Q 32.328125 33.6875 34.8125 36.53125 
Q 39.546875 41.84375 41.421875 45.53125 
Q 43.3125 49.21875 43.3125 52.78125 
Q 43.3125 58.59375 39.234375 62.25 
Q 35.15625 65.921875 28.609375 65.921875 
Q 23.96875 65.921875 18.8125 64.3125 
Q 13.671875 62.703125 7.8125 59.421875 
L 7.8125 69.390625 
Q 13.765625 71.78125 18.9375 73 
Q 24.125 74.21875 28.421875 74.21875 
Q 39.75 74.21875 46.484375 68.546875 
Q 53.21875 62.890625 53.21875 53.421875 
Q 53.21875 48.921875 51.53125 44.890625 
Q 49.859375 40.875 45.40625 35.40625 
Q 44.1875 33.984375 37.640625 27.21875 
Q 31.109375 20.453125 19.1875 8.296875 
z
" id="DejaVuSans-50"/>
       </defs>
       <use xlink:href="#DejaVuSans-48"/>
       <use x="63.623047" xlink:href="#DejaVuSans-57"/>
       <use x="127.246094" xlink:href="#DejaVuSans-45"/>
       <use x="163.330078" xlink:href="#DejaVuSans-50"/>
       <use x="226.953125" xlink:href="#DejaVuSans-49"/>
      </g>
     </g>
    </g>
    <g id="text_7">
     <!-- Date -->
     <g transform="translate(705.159084 672.037469)scale(0.45 -0.45)">
      <defs>
       <path d="M 19.671875 64.796875 
L 19.671875 8.109375 
L 31.59375 8.109375 
Q 46.6875 8.109375 53.6875 14.9375 
Q 60.6875 21.78125 60.6875 36.53125 
Q 60.6875 51.171875 53.6875 57.984375 
Q 46.6875 64.796875 31.59375 64.796875 
z
M 9.8125 72.90625 
L 30.078125 72.90625 
Q 51.265625 72.90625 61.171875 64.09375 
Q 71.09375 55.28125 71.09375 36.53125 
Q 71.09375 17.671875 61.125 8.828125 
Q 51.171875 0 30.078125 0 
L 9.8125 0 
z
" id="DejaVuSans-68"/>
       <path d="M 34.28125 27.484375 
Q 23.390625 27.484375 19.1875 25 
Q 14.984375 22.515625 14.984375 16.5 
Q 14.984375 11.71875 18.140625 8.90625 
Q 21.296875 6.109375 26.703125 6.109375 
Q 34.1875 6.109375 38.703125 11.40625 
Q 43.21875 16.703125 43.21875 25.484375 
L 43.21875 27.484375 
z
M 52.203125 31.203125 
L 52.203125 0 
L 43.21875 0 
L 43.21875 8.296875 
Q 40.140625 3.328125 35.546875 0.953125 
Q 30.953125 -1.421875 24.3125 -1.421875 
Q 15.921875 -1.421875 10.953125 3.296875 
Q 6 8.015625 6 15.921875 
Q 6 25.140625 12.171875 29.828125 
Q 18.359375 34.515625 30.609375 34.515625 
L 43.21875 34.515625 
L 43.21875 35.40625 
Q 43.21875 41.609375 39.140625 45 
Q 35.0625 48.390625 27.6875 48.390625 
Q 23 48.390625 18.546875 47.265625 
Q 14.109375 46.140625 10.015625 43.890625 
L 10.015625 52.203125 
Q 14.9375 54.109375 19.578125 55.046875 
Q 24.21875 56 28.609375 56 
Q 40.484375 56 46.34375 49.84375 
Q 52.203125 43.703125 52.203125 31.203125 
z
" id="DejaVuSans-97"/>
       <path d="M 18.3125 70.21875 
L 18.3125 54.6875 
L 36.8125 54.6875 
L 36.8125 47.703125 
L 18.3125 47.703125 
L 18.3125 18.015625 
Q 18.3125 11.328125 20.140625 9.421875 
Q 21.96875 7.515625 27.59375 7.515625 
L 36.8125 7.515625 
L 36.8125 0 
L 27.59375 0 
Q 17.1875 0 13.234375 3.875 
Q 9.28125 7.765625 9.28125 18.015625 
L 9.28125 47.703125 
L 2.6875 47.703125 
L 2.6875 54.6875 
L 9.28125 54.6875 
L 9.28125 70.21875 
z
" id="DejaVuSans-116"/>
       <path d="M 56.203125 29.59375 
L 56.203125 25.203125 
L 14.890625 25.203125 
Q 15.484375 15.921875 20.484375 11.0625 
Q 25.484375 6.203125 34.421875 6.203125 
Q 39.59375 6.203125 44.453125 7.46875 
Q 49.3125 8.734375 54.109375 11.28125 
L 54.109375 2.78125 
Q 49.265625 0.734375 44.1875 -0.34375 
Q 39.109375 -1.421875 33.890625 -1.421875 
Q 20.796875 -1.421875 13.15625 6.1875 
Q 5.515625 13.8125 5.515625 26.8125 
Q 5.515625 40.234375 12.765625 48.109375 
Q 20.015625 56 32.328125 56 
Q 43.359375 56 49.78125 48.890625 
Q 56.203125 41.796875 56.203125 29.59375 
z
M 47.21875 32.234375 
Q 47.125 39.59375 43.09375 43.984375 
Q 39.0625 48.390625 32.421875 48.390625 
Q 24.90625 48.390625 20.390625 44.140625 
Q 15.875 39.890625 15.1875 32.171875 
z
" id="DejaVuSans-101"/>
      </defs>
      <use xlink:href="#DejaVuSans-68"/>
      <use x="77.001953" xlink:href="#DejaVuSans-97"/>
      <use x="138.28125" xlink:href="#DejaVuSans-116"/>
      <use x="177.490234" xlink:href="#DejaVuSans-101"/>
     </g>
    </g>
   </g>
   <g id="matplotlib.axis_2">
    <g id="ytick_1">
     <g id="line2d_7">
      <defs>
       <path d="M 0 0 
L -3.5 0 
" id="m987feea451" style="stroke:#000000;stroke-width:0.8;"/>
      </defs>
      <g>
       <use style="stroke:#000000;stroke-width:0.8;" x="152.064" xlink:href="#m987feea451" y="588.132"/>
      </g>
     </g>
     <g id="text_8">
      <!-- 0 -->
      <g transform="translate(119.614 603.328875)scale(0.4 -0.4)">
       <use xlink:href="#DejaVuSans-48"/>
      </g>
     </g>
    </g>
    <g id="ytick_2">
     <g id="line2d_8">
      <g>
       <use style="stroke:#000000;stroke-width:0.8;" x="152.064" xlink:href="#m987feea451" y="459.60786"/>
      </g>
     </g>
     <g id="text_9">
      <!-- 50 -->
      <g transform="translate(94.164 474.804735)scale(0.4 -0.4)">
       <use xlink:href="#DejaVuSans-53"/>
       <use x="63.623047" xlink:href="#DejaVuSans-48"/>
      </g>
     </g>
    </g>
    <g id="ytick_3">
     <g id="line2d_9">
      <g>
       <use style="stroke:#000000;stroke-width:0.8;" x="152.064" xlink:href="#m987feea451" y="331.08372"/>
      </g>
     </g>
     <g id="text_10">
      <!-- 100 -->
      <g transform="translate(68.714 346.280595)scale(0.4 -0.4)">
       <use xlink:href="#DejaVuSans-49"/>
       <use x="63.623047" xlink:href="#DejaVuSans-48"/>
       <use x="127.246094" xlink:href="#DejaVuSans-48"/>
      </g>
     </g>
    </g>
    <g id="ytick_4">
     <g id="line2d_10">
      <g>
       <use style="stroke:#000000;stroke-width:0.8;" x="152.064" xlink:href="#m987feea451" y="202.55958"/>
      </g>
     </g>
     <g id="text_11">
      <!-- 150 -->
      <g transform="translate(68.714 217.756455)scale(0.4 -0.4)">
       <use xlink:href="#DejaVuSans-49"/>
       <use x="63.623047" xlink:href="#DejaVuSans-53"/>
       <use x="127.246094" xlink:href="#DejaVuSans-48"/>
      </g>
     </g>
    </g>
    <g id="ytick_5">
     <g id="line2d_11">
      <g>
       <use style="stroke:#000000;stroke-width:0.8;" x="152.064" xlink:href="#m987feea451" y="74.03544"/>
      </g>
     </g>
     <g id="text_12">
      <!-- 200 -->
      <g transform="translate(68.714 89.232315)scale(0.4 -0.4)">
       <use xlink:href="#DejaVuSans-50"/>
       <use x="63.623047" xlink:href="#DejaVuSans-48"/>
       <use x="127.246094" xlink:href="#DejaVuSans-48"/>
      </g>
     </g>
    </g>
    <g id="text_13">
     <!-- PM2.5 Concentration (µg/$m^{3}$) -->
     <g transform="translate(55.264 660.70872)rotate(-90)scale(0.45 -0.45)">
      <defs>
       <path d="M 19.671875 64.796875 
L 19.671875 37.40625 
L 32.078125 37.40625 
Q 38.96875 37.40625 42.71875 40.96875 
Q 46.484375 44.53125 46.484375 51.125 
Q 46.484375 57.671875 42.71875 61.234375 
Q 38.96875 64.796875 32.078125 64.796875 
z
M 9.8125 72.90625 
L 32.078125 72.90625 
Q 44.34375 72.90625 50.609375 67.359375 
Q 56.890625 61.8125 56.890625 51.125 
Q 56.890625 40.328125 50.609375 34.8125 
Q 44.34375 29.296875 32.078125 29.296875 
L 19.671875 29.296875 
L 19.671875 0 
L 9.8125 0 
z
" id="DejaVuSans-80"/>
       <path d="M 9.8125 72.90625 
L 24.515625 72.90625 
L 43.109375 23.296875 
L 61.8125 72.90625 
L 76.515625 72.90625 
L 76.515625 0 
L 66.890625 0 
L 66.890625 64.015625 
L 48.09375 14.015625 
L 38.1875 14.015625 
L 19.390625 64.015625 
L 19.390625 0 
L 9.8125 0 
z
" id="DejaVuSans-77"/>
       <path d="M 10.6875 12.40625 
L 21 12.40625 
L 21 0 
L 10.6875 0 
z
" id="DejaVuSans-46"/>
       <path id="DejaVuSans-32"/>
       <path d="M 64.40625 67.28125 
L 64.40625 56.890625 
Q 59.421875 61.53125 53.78125 63.8125 
Q 48.140625 66.109375 41.796875 66.109375 
Q 29.296875 66.109375 22.65625 58.46875 
Q 16.015625 50.828125 16.015625 36.375 
Q 16.015625 21.96875 22.65625 14.328125 
Q 29.296875 6.6875 41.796875 6.6875 
Q 48.140625 6.6875 53.78125 8.984375 
Q 59.421875 11.28125 64.40625 15.921875 
L 64.40625 5.609375 
Q 59.234375 2.09375 53.4375 0.328125 
Q 47.65625 -1.421875 41.21875 -1.421875 
Q 24.65625 -1.421875 15.125 8.703125 
Q 5.609375 18.84375 5.609375 36.375 
Q 5.609375 53.953125 15.125 64.078125 
Q 24.65625 74.21875 41.21875 74.21875 
Q 47.75 74.21875 53.53125 72.484375 
Q 59.328125 70.75 64.40625 67.28125 
z
" id="DejaVuSans-67"/>
       <path d="M 30.609375 48.390625 
Q 23.390625 48.390625 19.1875 42.75 
Q 14.984375 37.109375 14.984375 27.296875 
Q 14.984375 17.484375 19.15625 11.84375 
Q 23.34375 6.203125 30.609375 6.203125 
Q 37.796875 6.203125 41.984375 11.859375 
Q 46.1875 17.53125 46.1875 27.296875 
Q 46.1875 37.015625 41.984375 42.703125 
Q 37.796875 48.390625 30.609375 48.390625 
z
M 30.609375 56 
Q 42.328125 56 49.015625 48.375 
Q 55.71875 40.765625 55.71875 27.296875 
Q 55.71875 13.875 49.015625 6.21875 
Q 42.328125 -1.421875 30.609375 -1.421875 
Q 18.84375 -1.421875 12.171875 6.21875 
Q 5.515625 13.875 5.515625 27.296875 
Q 5.515625 40.765625 12.171875 48.375 
Q 18.84375 56 30.609375 56 
z
" id="DejaVuSans-111"/>
       <path d="M 54.890625 33.015625 
L 54.890625 0 
L 45.90625 0 
L 45.90625 32.71875 
Q 45.90625 40.484375 42.875 44.328125 
Q 39.84375 48.1875 33.796875 48.1875 
Q 26.515625 48.1875 22.3125 43.546875 
Q 18.109375 38.921875 18.109375 30.90625 
L 18.109375 0 
L 9.078125 0 
L 9.078125 54.6875 
L 18.109375 54.6875 
L 18.109375 46.1875 
Q 21.34375 51.125 25.703125 53.5625 
Q 30.078125 56 35.796875 56 
Q 45.21875 56 50.046875 50.171875 
Q 54.890625 44.34375 54.890625 33.015625 
z
" id="DejaVuSans-110"/>
       <path d="M 48.78125 52.59375 
L 48.78125 44.1875 
Q 44.96875 46.296875 41.140625 47.34375 
Q 37.3125 48.390625 33.40625 48.390625 
Q 24.65625 48.390625 19.8125 42.84375 
Q 14.984375 37.3125 14.984375 27.296875 
Q 14.984375 17.28125 19.8125 11.734375 
Q 24.65625 6.203125 33.40625 6.203125 
Q 37.3125 6.203125 41.140625 7.25 
Q 44.96875 8.296875 48.78125 10.40625 
L 48.78125 2.09375 
Q 45.015625 0.34375 40.984375 -0.53125 
Q 36.96875 -1.421875 32.421875 -1.421875 
Q 20.0625 -1.421875 12.78125 6.34375 
Q 5.515625 14.109375 5.515625 27.296875 
Q 5.515625 40.671875 12.859375 48.328125 
Q 20.21875 56 33.015625 56 
Q 37.15625 56 41.109375 55.140625 
Q 45.0625 54.296875 48.78125 52.59375 
z
" id="DejaVuSans-99"/>
       <path d="M 41.109375 46.296875 
Q 39.59375 47.171875 37.8125 47.578125 
Q 36.03125 48 33.890625 48 
Q 26.265625 48 22.1875 43.046875 
Q 18.109375 38.09375 18.109375 28.8125 
L 18.109375 0 
L 9.078125 0 
L 9.078125 54.6875 
L 18.109375 54.6875 
L 18.109375 46.1875 
Q 20.953125 51.171875 25.484375 53.578125 
Q 30.03125 56 36.53125 56 
Q 37.453125 56 38.578125 55.875 
Q 39.703125 55.765625 41.0625 55.515625 
z
" id="DejaVuSans-114"/>
       <path d="M 9.421875 54.6875 
L 18.40625 54.6875 
L 18.40625 0 
L 9.421875 0 
z
M 9.421875 75.984375 
L 18.40625 75.984375 
L 18.40625 64.59375 
L 9.421875 64.59375 
z
" id="DejaVuSans-105"/>
       <path d="M 31 75.875 
Q 24.46875 64.65625 21.28125 53.65625 
Q 18.109375 42.671875 18.109375 31.390625 
Q 18.109375 20.125 21.3125 9.0625 
Q 24.515625 -2 31 -13.1875 
L 23.1875 -13.1875 
Q 15.875 -1.703125 12.234375 9.375 
Q 8.59375 20.453125 8.59375 31.390625 
Q 8.59375 42.28125 12.203125 53.3125 
Q 15.828125 64.359375 23.1875 75.875 
z
" id="DejaVuSans-40"/>
       <path d="M 8.5 -20.796875 
L 8.5 54.6875 
L 17.484375 54.6875 
L 17.484375 20.703125 
Q 17.484375 13.625 20.84375 10 
Q 24.21875 6.390625 30.8125 6.390625 
Q 38.03125 6.390625 41.671875 10.484375 
Q 45.3125 14.59375 45.3125 22.796875 
L 45.3125 54.6875 
L 54.296875 54.6875 
L 54.296875 12.59375 
Q 54.296875 9.671875 55.140625 8.28125 
Q 56 6.890625 57.8125 6.890625 
Q 58.25 6.890625 59.03125 7.15625 
Q 59.8125 7.421875 61.1875 8.015625 
L 61.1875 0.78125 
Q 59.1875 -0.34375 57.390625 -0.875 
Q 55.609375 -1.421875 53.90625 -1.421875 
Q 50.53125 -1.421875 48.53125 0.484375 
Q 46.53125 2.390625 45.796875 6.296875 
Q 43.359375 2.4375 39.8125 0.5 
Q 36.28125 -1.421875 31.5 -1.421875 
Q 26.515625 -1.421875 23.015625 0.484375 
Q 19.53125 2.390625 17.484375 6.203125 
L 17.484375 -20.796875 
z
" id="DejaVuSans-181"/>
       <path d="M 45.40625 27.984375 
Q 45.40625 37.75 41.375 43.109375 
Q 37.359375 48.484375 30.078125 48.484375 
Q 22.859375 48.484375 18.828125 43.109375 
Q 14.796875 37.75 14.796875 27.984375 
Q 14.796875 18.265625 18.828125 12.890625 
Q 22.859375 7.515625 30.078125 7.515625 
Q 37.359375 7.515625 41.375 12.890625 
Q 45.40625 18.265625 45.40625 27.984375 
z
M 54.390625 6.78125 
Q 54.390625 -7.171875 48.1875 -13.984375 
Q 42 -20.796875 29.203125 -20.796875 
Q 24.46875 -20.796875 20.265625 -20.09375 
Q 16.0625 -19.390625 12.109375 -17.921875 
L 12.109375 -9.1875 
Q 16.0625 -11.328125 19.921875 -12.34375 
Q 23.78125 -13.375 27.78125 -13.375 
Q 36.625 -13.375 41.015625 -8.765625 
Q 45.40625 -4.15625 45.40625 5.171875 
L 45.40625 9.625 
Q 42.625 4.78125 38.28125 2.390625 
Q 33.9375 0 27.875 0 
Q 17.828125 0 11.671875 7.65625 
Q 5.515625 15.328125 5.515625 27.984375 
Q 5.515625 40.671875 11.671875 48.328125 
Q 17.828125 56 27.875 56 
Q 33.9375 56 38.28125 53.609375 
Q 42.625 51.21875 45.40625 46.390625 
L 45.40625 54.6875 
L 54.390625 54.6875 
z
" id="DejaVuSans-103"/>
       <path d="M 25.390625 72.90625 
L 33.6875 72.90625 
L 8.296875 -9.28125 
L 0 -9.28125 
z
" id="DejaVuSans-47"/>
       <path d="M 89.796875 33.015625 
L 83.40625 0 
L 74.421875 0 
L 80.71875 32.71875 
Q 81.109375 34.8125 81.296875 36.328125 
Q 81.5 37.84375 81.5 38.921875 
Q 81.5 43.3125 79.046875 45.75 
Q 76.609375 48.1875 72.21875 48.1875 
Q 65.671875 48.1875 60.546875 43.28125 
Q 55.421875 38.375 53.90625 30.515625 
L 47.90625 0 
L 38.921875 0 
L 45.3125 32.71875 
Q 45.703125 34.515625 45.890625 36.046875 
Q 46.09375 37.59375 46.09375 38.8125 
Q 46.09375 43.265625 43.65625 45.71875 
Q 41.21875 48.1875 36.921875 48.1875 
Q 30.28125 48.1875 25.140625 43.28125 
Q 20.015625 38.375 18.5 30.515625 
L 12.5 0 
L 3.515625 0 
L 14.203125 54.6875 
L 23.1875 54.6875 
L 21.484375 46.1875 
Q 25.140625 50.984375 30.046875 53.484375 
Q 34.96875 56 40.578125 56 
Q 46.53125 56 50.359375 52.875 
Q 54.203125 49.75 54.984375 44.1875 
Q 59.078125 49.953125 64.46875 52.96875 
Q 69.875 56 75.875 56 
Q 82.90625 56 86.734375 51.953125 
Q 90.578125 47.90625 90.578125 40.484375 
Q 90.578125 38.875 90.375 36.9375 
Q 90.1875 35.015625 89.796875 33.015625 
z
" id="DejaVuSans-Oblique-109"/>
       <path d="M 8.015625 75.875 
L 15.828125 75.875 
Q 23.140625 64.359375 26.78125 53.3125 
Q 30.421875 42.28125 30.421875 31.390625 
Q 30.421875 20.453125 26.78125 9.375 
Q 23.140625 -1.703125 15.828125 -13.1875 
L 8.015625 -13.1875 
Q 14.5 -2 17.703125 9.0625 
Q 20.90625 20.125 20.90625 31.390625 
Q 20.90625 42.671875 17.703125 53.65625 
Q 14.5 64.65625 8.015625 75.875 
z
" id="DejaVuSans-41"/>
      </defs>
      <use transform="translate(0 0.765625)" xlink:href="#DejaVuSans-80"/>
      <use transform="translate(60.302734 0.765625)" xlink:href="#DejaVuSans-77"/>
      <use transform="translate(146.582031 0.765625)" xlink:href="#DejaVuSans-50"/>
      <use transform="translate(210.205078 0.765625)" xlink:href="#DejaVuSans-46"/>
      <use transform="translate(241.992188 0.765625)" xlink:href="#DejaVuSans-53"/>
      <use transform="translate(305.615234 0.765625)" xlink:href="#DejaVuSans-32"/>
      <use transform="translate(337.402344 0.765625)" xlink:href="#DejaVuSans-67"/>
      <use transform="translate(407.226562 0.765625)" xlink:href="#DejaVuSans-111"/>
      <use transform="translate(468.408203 0.765625)" xlink:href="#DejaVuSans-110"/>
      <use transform="translate(531.787109 0.765625)" xlink:href="#DejaVuSans-99"/>
      <use transform="translate(586.767578 0.765625)" xlink:href="#DejaVuSans-101"/>
      <use transform="translate(648.291016 0.765625)" xlink:href="#DejaVuSans-110"/>
      <use transform="translate(711.669922 0.765625)" xlink:href="#DejaVuSans-116"/>
      <use transform="translate(750.878906 0.765625)" xlink:href="#DejaVuSans-114"/>
      <use transform="translate(791.992188 0.765625)" xlink:href="#DejaVuSans-97"/>
      <use transform="translate(853.271484 0.765625)" xlink:href="#DejaVuSans-116"/>
      <use transform="translate(892.480469 0.765625)" xlink:href="#DejaVuSans-105"/>
      <use transform="translate(920.263672 0.765625)" xlink:href="#DejaVuSans-111"/>
      <use transform="translate(981.445312 0.765625)" xlink:href="#DejaVuSans-110"/>
      <use transform="translate(1044.824219 0.765625)" xlink:href="#DejaVuSans-32"/>
      <use transform="translate(1076.611328 0.765625)" xlink:href="#DejaVuSans-40"/>
      <use transform="translate(1115.625 0.765625)" xlink:href="#DejaVuSans-181"/>
      <use transform="translate(1179.248047 0.765625)" xlink:href="#DejaVuSans-103"/>
      <use transform="translate(1242.724609 0.765625)" xlink:href="#DejaVuSans-47"/>
      <use transform="translate(1276.416016 0.765625)" xlink:href="#DejaVuSans-Oblique-109"/>
      <use transform="translate(1378.478021 39.046875)scale(0.7)" xlink:href="#DejaVuSans-51"/>
      <use transform="translate(1425.748529 0.765625)" xlink:href="#DejaVuSans-41"/>
     </g>
    </g>
   </g>
   <g id="line2d_12">
    <path clip-path="url(#p8ee3238b03)" d="M 207.234327 588.132 
L 214.867957 588.132 
L 216.25589 587.94362 
L 216.949857 588.04595 
L 217.643823 587.925479 
L 219.031756 588.070859 
L 220.419689 588.072427 
L 221.113655 587.95328 
L 223.88952 588.070859 
L 225.97142 587.899664 
L 226.665386 588.012854 
L 227.359352 587.655414 
L 228.053319 588.012854 
L 228.747285 587.957748 
L 230.135218 587.202657 
L 230.829184 587.451738 
L 231.523151 587.142758 
L 232.217117 587.609245 
L 232.911083 587.080958 
L 233.60505 586.912238 
L 234.299016 587.095909 
L 234.992983 575.085459 
L 235.686949 572.158923 
L 236.380915 570.217698 
L 237.074882 521.335498 
L 237.768848 505.469418 
M 282.876663 500.773792 
L 283.570629 517.205087 
L 284.264596 503.684442 
L 284.958562 494.642713 
L 285.652528 490.826158 
L 286.346495 489.389345 
L 287.040461 486.678763 
L 288.428394 418.902806 
L 289.12236 414.917469 
L 289.816327 372.322152 
L 290.510293 384.924349 
L 291.204259 403.192816 
L 291.898226 407.399314 
L 293.286158 438.096781 
L 293.980125 443.485451 
L 294.674091 446.717029 
L 295.368058 453.292612 
L 297.449957 456.759852 
L 298.143923 453.774734 
L 298.83789 451.333625 
L 299.531856 454.630708 
L 300.225822 455.393172 
L 300.919789 451.498133 
L 301.613755 452.027721 
L 302.307721 447.361484 
L 303.001688 477.159454 
L 303.695654 550.600855 
L 304.389621 558.156144 
L 305.083587 564.451635 
L 306.47152 571.242488 
L 307.165486 573.940687 
L 307.859452 576.142722 
L 308.553419 574.617118 
L 309.941352 577.686824 
L 310.635318 578.257735 
L 311.329284 576.624124 
L 312.023251 578.570494 
L 312.717217 579.651748 
L 313.411184 577.676895 
L 314.10515 576.507722 
L 314.799116 575.858088 
L 315.493083 573.780049 
L 316.881015 571.094052 
L 317.574982 572.221475 
L 318.268948 568.160814 
L 318.962915 570.280272 
L 319.656881 566.47731 
L 320.350847 566.143089 
L 321.044814 567.929688 
L 321.73878 567.661569 
L 322.432746 566.090683 
L 323.126713 567.67578 
L 323.820679 567.337959 
L 324.514646 568.499637 
L 325.208612 567.454126 
L 325.902578 558.970896 
L 326.596545 557.11519 
L 327.290511 559.903218 
L 327.984478 558.053951 
L 328.678444 558.509204 
L 329.37241 557.451778 
L 330.066377 555.416628 
L 330.760343 555.798621 
L 331.454309 554.477497 
L 332.148276 556.026985 
L 332.842242 552.822788 
L 333.536209 552.003805 
L 334.924141 545.761608 
L 335.618108 518.619683 
L 336.312074 453.609654 
L 337.00604 466.553196 
L 337.700007 471.441416 
L 338.393973 498.857023 
L 339.08794 530.703391 
L 339.781906 545.892087 
L 340.475872 548.669105 
L 341.169839 437.210629 
L 341.863805 445.365744 
L 342.557772 421.1015 
L 343.251738 443.839328 
L 343.945704 453.183705 
L 344.639671 441.069808 
L 345.333637 441.385043 
L 346.027603 435.885762 
L 346.72157 415.418695 
L 347.415536 432.191975 
L 348.109503 430.918205 
L 348.803469 429.3693 
L 349.497435 429.91787 
L 350.191402 411.281765 
L 350.885368 400.150325 
L 351.579334 361.834649 
L 352.273301 396.455082 
L 352.967267 216.85132 
M 379.33799 339.532846 
L 380.031956 311.175981 
L 380.725922 504.055534 
L 381.419889 437.267574 
L 382.113855 459.246851 
L 382.807822 470.588851 
L 383.501788 405.167669 
L 384.195754 354.603267 
L 384.889721 355.288107 
L 385.583687 351.180199 
L 386.277654 215.477832 
L 386.97162 217.544524 
L 387.665586 304.69958 
L 388.359553 355.571501 
L 389.053519 322.559435 
L 389.747485 310.884791 
L 390.441452 281.517265 
L 391.135418 340.933693 
L 391.829385 363.341005 
L 393.217317 444.422715 
L 393.911284 456.67893 
L 394.60525 403.454938 
L 395.299216 332.115976 
L 395.993183 434.790465 
L 397.381116 450.214972 
L 398.075082 449.448112 
L 398.769048 450.896978 
L 399.463015 458.624232 
L 400.156981 464.263903 
L 400.850948 468.443934 
L 402.23888 464.571021 
L 402.932847 468.924446 
L 403.626813 464.186458 
L 404.320779 456.642576 
L 405.014746 450.784077 
L 405.708712 439.630792 
L 407.096645 409.247885 
L 407.790611 384.967374 
L 408.484578 381.643684 
L 409.178544 382.327196 
L 409.87251 367.800351 
L 410.566477 358.855428 
L 411.260443 351.66593 
L 411.95441 340.53318 
L 412.648376 337.375443 
L 413.342342 329.11001 
L 414.036309 335.372931 
L 415.424242 340.984943 
L 416.118208 325.252214 
L 416.812174 330.401804 
L 417.506141 331.89896 
L 418.200107 336.490355 
L 418.894073 332.28797 
L 419.58804 324.943533 
L 420.282006 326.909275 
L 420.975973 323.59412 
L 421.669939 329.951766 
L 422.363905 327.81649 
L 423.057872 330.189455 
L 423.751838 323.931381 
L 424.445804 326.587477 
L 425.139771 329.819924 
L 425.833737 329.819924 
L 426.527704 331.925726 
L 427.22167 329.453578 
L 427.915636 327.484582 
L 428.609603 336.799485 
L 429.303569 337.090342 
L 429.997536 336.868997 
L 430.691502 333.711547 
L 431.385468 338.304786 
L 432.079435 342.077474 
M 441.794964 469.212827 
L 442.48893 474.984534 
L 443.182897 478.818073 
L 443.876863 486.833653 
L 444.57083 483.929457 
L 445.264796 436.16065 
L 445.958762 411.298749 
L 446.652729 435.5096 
L 447.346695 433.850059 
L 448.040661 431.11705 
L 448.734628 427.760822 
L 449.428594 426.016737 
L 450.122561 422.012004 
L 450.816527 329.114043 
L 451.510493 419.665179 
L 452.20446 417.010334 
L 452.898426 412.01246 
L 453.592392 417.194456 
L 454.286359 417.274938 
L 454.980325 416.31252 
L 455.674292 422.721919 
L 456.368258 402.429427 
L 457.062224 458.757723 
L 457.756191 423.142286 
L 458.450157 436.956839 
L 459.144123 496.23034 
L 459.83809 494.647468 
L 460.532056 495.927934 
L 461.226023 497.583887 
L 461.919989 500.252607 
L 462.613955 503.652173 
L 463.307922 374.008459 
L 464.001888 416.203613 
L 464.695855 480.929944 
L 465.389821 477.108746 
L 466.083787 455.050688 
L 466.777754 420.387806 
L 467.47172 440.176428 
L 468.165686 443.008264 
L 468.859653 444.589437 
L 469.553619 440.372975 
L 470.247586 440.120519 
L 470.941552 440.975617 
L 471.635518 442.147761 
L 472.329485 439.865165 
L 473.023451 434.657357 
L 473.717417 447.780141 
L 474.411384 437.099993 
L 475.10535 440.366521 
L 476.493283 444.881812 
L 477.187249 442.134409 
L 477.881216 442.000882 
L 478.575182 443.56759 
L 479.269149 443.286662 
L 479.963115 450.106277 
L 480.657081 468.116111 
L 481.351048 442.861073 
L 482.045014 441.729965 
L 482.73898 444.57302 
L 483.432947 446.526395 
L 484.126913 452.580739 
L 485.514846 447.439851 
L 486.208812 448.924218 
L 486.902779 447.34915 
L 487.596745 443.090011 
L 488.290711 445.348071 
L 488.984678 443.984319 
L 489.678644 444.63416 
L 490.372611 437.806135 
L 491.066577 433.48073 
L 491.760543 434.476498 
L 492.45451 435.198623 
L 493.148476 431.825129 
L 493.842443 432.52825 
L 495.230375 429.250154 
L 495.924342 427.537825 
L 496.618308 427.239557 
L 497.312274 426.567006 
L 498.006241 424.18047 
L 498.700207 421.308883 
L 499.394174 426.470337 
L 500.08814 421.637686 
L 500.782106 423.560909 
L 501.476073 420.803389 
L 502.170039 443.99218 
L 502.864005 472.843279 
L 503.557972 482.982513 
L 504.945905 519.534897 
L 505.639871 531.732519 
L 506.333837 540.469999 
L 507.027804 545.00097 
L 507.72177 547.056247 
L 508.415737 549.468964 
L 509.109703 548.699476 
L 509.803669 553.342792 
L 510.497636 554.593917 
L 511.191602 554.129362 
L 511.885568 556.085702 
L 512.579535 553.217114 
L 513.273501 553.251865 
L 513.967468 553.049316 
L 514.661434 553.128799 
L 515.3554 555.734083 
L 516.049367 553.281651 
L 516.743333 555.372672 
L 517.437299 546.660085 
L 518.131266 542.104422 
L 518.825232 533.349697 
L 519.519199 528.336138 
L 520.213165 528.944491 
L 520.907131 526.737302 
L 521.601098 523.405669 
L 522.295064 522.955734 
L 522.989031 522.988656 
L 523.682997 523.414291 
L 524.376963 523.691124 
L 525.07093 521.50975 
L 525.764896 525.187379 
L 526.458862 522.541856 
L 527.152829 523.554602 
L 527.846795 520.786056 
L 528.540762 526.787234 
L 529.234728 522.090589 
L 529.928694 522.750363 
L 530.622661 518.370162 
L 531.316627 523.822681 
L 532.010593 521.794055 
L 532.70456 523.245465 
L 533.398526 521.171672 
L 534.092493 525.285204 
L 534.786459 525.110953 
L 535.480425 523.426519 
L 536.174392 523.292009 
L 536.868358 523.015222 
L 537.562325 522.452497 
L 538.256291 522.852134 
L 538.950257 524.300835 
L 539.644224 526.165068 
L 540.33819 523.575878 
L 541.032156 522.045413 
L 541.726123 531.016151 
L 542.420089 528.123019 
L 543.114056 521.763794 
L 543.808022 507.847122 
L 544.501988 490.891313 
L 545.889921 481.322135 
L 546.583887 477.417605 
L 547.277854 467.381995 
L 547.97182 463.41541 
L 548.665787 454.863429 
L 549.359753 453.024666 
L 550.053719 447.392915 
L 551.441652 448.226038 
L 552.135619 438.708282 
L 552.829585 438.375073 
L 553.523551 438.944345 
L 554.217518 440.665239 
L 554.911484 440.236613 
L 555.60545 439.204843 
L 556.993383 436.815105 
L 557.68735 437.052681 
L 558.381316 435.122374 
L 559.075282 437.678963 
L 560.463215 431.88627 
L 561.157181 432.822066 
L 561.851148 432.819133 
L 562.545114 433.595596 
L 563.239081 434.051216 
L 563.933047 431.183731 
L 564.627013 426.376147 
L 565.32098 420.72586 
L 566.014946 417.31151 
L 566.708913 425.374757 
L 567.402879 493.241226 
L 568.096845 500.547571 
L 568.790812 501.526117 
L 569.484778 504.458894 
L 570.178744 509.640224 
L 570.872711 511.499955 
L 571.566677 508.967041 
L 572.260644 503.312401 
L 572.95461 499.169927 
L 573.648576 497.45886 
L 574.342543 497.029614 
L 575.036509 503.215077 
L 575.730475 503.892452 
L 576.424442 503.523098 
L 577.118408 502.51631 
L 577.812375 502.234188 
L 578.506341 503.674849 
L 579.200307 504.391591 
L 579.894274 502.698859 
L 580.58824 500.378194 
L 581.282207 496.445465 
L 582.670139 502.018873 
L 583.364106 500.73991 
L 584.058072 487.065989 
L 584.752038 478.243513 
L 585.446005 462.033695 
L 586.139971 442.664063 
L 586.833938 452.445882 
L 587.527904 456.862353 
L 588.22187 466.908719 
L 589.609803 477.982771 
L 590.303769 480.471756 
L 590.997736 482.257931 
L 591.691702 484.477106 
L 592.385669 487.852175 
L 593.079635 489.878473 
L 593.773601 486.485149 
L 594.467568 484.12307 
L 595.855501 491.682131 
L 596.549467 471.517371 
L 597.243433 331.338304 
L 597.9374 301.255546 
L 598.631366 291.788914 
L 599.325332 337.392912 
L 600.019299 568.770695 
L 600.713265 575.256732 
L 601.407232 579.716286 
L 602.101198 579.143777 
L 602.795164 571.348806 
L 603.489131 569.667429 
L 604.183097 564.549931 
L 604.877063 563.155917 
L 605.57103 558.417492 
L 606.264996 560.961636 
L 606.958963 561.193622 
L 607.652929 562.90273 
L 608.346895 562.009132 
L 609.040862 557.30043 
L 609.734828 556.826259 
L 610.428795 559.334607 
L 611.122761 557.347525 
L 611.816727 557.660285 
L 612.510694 552.566772 
L 613.20466 555.634794 
L 613.898626 551.967121 
L 614.592593 553.373363 
L 615.286559 547.860486 
L 615.980526 550.302162 
L 616.674492 550.346885 
L 617.368458 551.111147 
L 618.062425 551.422966 
L 618.756391 554.849917 
L 619.450357 552.268906 
L 620.144324 547.167555 
L 620.83829 549.439177 
L 621.532257 549.828013 
L 622.226223 548.446558 
L 622.920189 549.165813 
L 623.614156 545.566916 
L 624.308122 548.543227 
L 625.002089 547.94421 
L 625.696055 549.230671 
L 626.390021 548.896577 
L 627.083988 543.437956 
L 627.777954 551.100957 
L 628.47192 552.119973 
L 629.165887 545.423239 
L 629.859853 546.311581 
L 630.55382 547.47326 
L 631.247786 548.359804 
L 631.941752 549.643764 
L 632.635719 549.76522 
L 633.329685 544.844198 
L 634.023651 546.739568 
L 634.717618 548.037504 
L 635.411584 522.746108 
L 636.105551 387.67209 
L 636.799517 441.023557 
L 637.493483 338.822931 
M 654.842643 197.280058 
L 655.536609 468.232719 
L 656.230576 523.008868 
L 656.924542 508.847457 
L 657.618508 497.881918 
L 658.312475 492.293541 
L 659.006441 488.460003 
L 659.700408 482.450672 
L 660.394374 474.84963 
L 661.08834 469.549103 
L 661.782307 466.155779 
L 662.476273 460.928227 
L 663.864206 455.844502 
L 664.558172 454.55006 
L 665.252139 457.611823 
L 665.946105 449.48293 
L 666.640071 445.212379 
L 667.334038 448.322448 
L 668.028004 444.882546 
L 668.72197 445.013234 
L 669.415937 447.568927 
L 670.109903 450.780625 
L 670.80387 451.473457 
L 671.497836 447.827077 
L 672.191802 449.238839 
L 672.885769 448.415828 
L 673.579735 448.330026 
L 674.273702 445.58724 
L 674.967668 444.650901 
L 675.661634 437.377136 
L 676.355601 440.374819 
L 677.049567 437.851972 
L 677.743533 438.669641 
L 678.4375 435.989617 
L 679.131466 437.501048 
L 679.825433 434.292603 
L 681.213365 432.43484 
L 681.907332 433.953557 
L 682.601298 438.507836 
L 683.295264 440.222387 
L 683.989231 438.2634 
L 684.683197 437.113822 
L 685.377164 434.55813 
L 686.07113 428.377033 
L 686.765096 409.570805 
L 687.459063 405.811302 
L 688.153029 428.373576 
L 688.846996 431.117349 
L 689.540962 438.495277 
L 690.234928 441.295864 
L 690.928895 447.47212 
L 691.622861 447.008116 
L 692.316827 451.087152 
L 693.010794 447.513609 
L 693.70476 451.57366 
L 694.398727 457.431091 
L 695.092693 460.670076 
L 695.786659 465.465052 
L 696.480626 467.01874 
L 697.174592 466.249969 
L 697.868558 466.261386 
L 698.562525 470.614411 
L 699.256491 469.852028 
L 699.950458 470.045642 
L 700.644424 469.946519 
L 701.33839 471.433118 
L 702.032357 468.502604 
L 702.726323 461.372398 
L 703.42029 460.794187 
L 704.114256 458.589172 
L 704.808222 458.314451 
L 705.502189 459.152519 
L 706.196155 459.155139 
L 706.890121 470.729888 
L 707.584088 490.968036 
L 709.665987 537.690106 
L 710.359953 545.666205 
L 711.05392 556.069679 
L 711.747886 557.476601 
L 712.441852 563.141023 
L 713.135819 563.014632 
L 713.829785 560.847453 
L 714.523752 561.88435 
L 715.217718 561.972726 
L 715.911684 562.636219 
L 716.605651 563.097833 
L 717.299617 558.524902 
L 717.993584 555.870534 
L 718.68755 554.741196 
L 719.381516 555.971854 
L 720.075483 555.329873 
L 720.769449 555.510818 
L 721.463415 552.566772 
L 722.157382 556.36927 
L 722.851348 557.579861 
L 723.545315 556.945406 
L 724.239281 555.793388 
L 724.933247 555.277355 
L 725.627214 555.36837 
L 726.32118 554.810175 
L 727.015146 556.153578 
L 727.709113 554.979489 
L 728.403079 555.666149 
L 729.097046 552.184511 
L 729.791012 552.731383 
L 730.484978 551.643387 
L 731.178945 553.572071 
L 731.872911 553.165483 
L 732.566878 553.526215 
L 733.260844 548.992378 
L 733.95481 551.19063 
L 734.648777 549.215777 
L 735.342743 531.269337 
L 736.730676 385.310231 
L 737.424642 426.897886 
L 738.118609 447.691209 
L 738.812575 464.596685 
L 739.506541 477.314005 
L 740.200508 480.525007 
L 740.894474 484.802205 
L 742.282407 490.152408 
L 742.976373 495.88368 
L 743.67034 493.870104 
L 745.058272 506.980474 
L 745.752239 508.48257 
L 746.446205 505.774541 
L 747.140172 502.097402 
L 747.834138 503.822318 
L 748.528104 502.984121 
L 749.222071 503.800435 
L 749.916037 500.010404 
L 750.610003 498.511936 
L 751.30397 502.179541 
L 751.997936 515.694015 
L 752.691903 517.128815 
L 753.385869 520.554996 
L 754.079835 526.153046 
L 754.773802 524.558586 
L 755.467768 391.466699 
M 776.980726 274.478861 
L 777.674692 514.834106 
L 778.368659 404.551628 
L 779.062625 545.696575 
L 779.756591 526.060703 
L 780.450558 538.018489 
L 781.144524 542.138145 
L 781.838491 549.490912 
L 782.532457 566.813634 
L 783.226423 567.527496 
L 783.92039 480.66106 
L 784.614356 484.991563 
L 786.002289 477.009174 
L 787.390222 513.748287 
L 788.084188 519.205755 
L 789.472121 512.028242 
L 791.55402 526.264333 
L 792.247986 525.310616 
L 792.941953 529.111248 
L 793.635919 530.776982 
L 794.329885 533.685973 
L 795.023852 537.757405 
L 795.717818 538.216136 
L 796.411785 535.60236 
L 797.105751 540.041017 
L 797.799717 548.745574 
L 798.493684 548.090401 
L 799.18765 529.433079 
L 799.881616 520.282727 
L 800.575583 506.110472 
L 801.269549 501.303001 
L 801.963516 493.229337 
L 802.657482 492.971187 
L 804.045415 486.999607 
L 805.433348 478.759989 
L 806.127314 508.20208 
L 806.82128 526.908414 
L 807.515247 539.552726 
L 808.209213 543.656317 
L 808.903179 545.50486 
L 809.597146 544.705732 
L 810.291112 549.843351 
L 810.985079 547.247378 
L 811.679045 545.451079 
L 812.373011 545.55751 
L 813.066978 550.455947 
L 813.760944 549.118971 
L 814.45491 552.78623 
L 815.148877 550.557716 
L 815.842843 551.903582 
L 816.53681 551.166801 
L 817.230776 554.145463 
L 817.924742 555.11588 
L 818.618709 554.568916 
L 819.312675 555.950372 
L 820.006642 555.379126 
L 820.700608 557.683801 
L 821.394574 557.683801 
L 822.088541 556.735289 
L 822.782507 556.37946 
L 823.476473 558.45112 
L 824.17044 558.017724 
L 824.864406 559.565778 
L 825.558373 557.362419 
L 826.252339 559.823734 
L 826.946305 559.031959 
L 827.640272 558.567287 
L 828.334238 556.515512 
L 829.028204 557.567302 
L 829.722171 559.937754 
L 830.416137 559.803645 
L 831.110104 560.401516 
L 831.80407 558.967761 
L 832.498036 557.070935 
L 833.885969 561.200425 
L 834.579936 558.631485 
L 835.273902 529.873834 
L 835.967868 488.078734 
L 836.661835 492.660387 
L 837.355801 491.596534 
L 838.049767 488.808506 
L 838.743734 493.410539 
L 839.4377 429.023563 
M 879.68775 478.57372 
L 880.381717 531.391988 
L 881.075683 533.777684 
L 881.769649 533.715344 
L 882.463616 530.446375 
L 883.157582 521.66222 
L 883.851549 502.134616 
L 884.545515 503.727774 
L 885.239481 506.920127 
L 885.933448 503.849117 
L 886.627414 501.847343 
L 887.32138 502.458226 
L 888.015347 507.601463 
L 888.709313 510.299554 
L 889.40328 506.015866 
L 890.097246 451.393965 
L 890.791212 446.049809 
L 891.485179 446.705966 
L 892.179145 451.267955 
L 892.873111 448.909325 
L 893.567078 447.866793 
L 894.261044 444.909295 
L 894.955011 428.326768 
L 895.648977 415.158102 
L 897.03691 385.244886 
L 897.730876 386.537791 
L 898.424843 388.898987 
L 899.118809 394.960631 
L 899.812775 398.420999 
L 900.506742 402.655932 
L 901.200708 403.782591 
L 901.894674 519.195565 
L 902.588641 570.951389 
L 903.282607 569.366428 
L 903.976574 568.84814 
L 904.67054 566.894138 
L 905.364506 569.777483 
L 906.058473 569.396214 
L 906.752439 567.976882 
L 907.446405 569.453436 
L 908.140372 572.182471 
L 908.834338 569.577416 
L 909.528305 570.612635 
L 910.222271 572.088281 
L 910.916237 568.651549 
L 911.610204 571.570638 
L 912.30417 568.557721 
L 912.998137 570.863809 
L 913.692103 571.366157 
L 914.386069 569.953305 
L 915.080036 571.384471 
L 915.774002 571.62394 
L 916.467968 571.123838 
L 917.161935 571.461917 
L 917.855901 569.300583 
L 919.243834 570.47449 
L 919.9378 570.590658 
L 920.631767 570.14088 
L 921.325733 570.916137 
L 922.019699 569.312812 
L 922.713666 569.277068 
L 923.407632 573.43677 
L 924.795565 569.753654 
L 925.489531 570.47135 
L 926.183498 568.37208 
L 927.571431 571.694252 
L 928.265397 573.794444 
L 928.959363 571.14638 
L 929.65333 570.829108 
L 930.347296 569.561743 
L 931.041262 571.868504 
L 931.735229 571.171497 
L 932.429195 571.933042 
L 933.123162 568.516232 
L 933.817128 568.830268 
L 934.511094 572.464236 
L 935.205061 549.857757 
L 935.899027 472.172677 
M 977.53701 469.640814 
L 978.230976 519.909802 
L 978.924943 540.440397 
L 979.618909 512.411697 
L 980.312875 502.167806 
L 981.006842 497.184818 
L 981.700808 498.980638 
L 982.394775 506.019687 
L 983.088741 510.567634 
L 983.782707 508.75065 
L 984.476674 485.962394 
L 985.17064 484.266046 
L 985.864607 485.041349 
L 986.558573 484.626464 
L 987.252539 484.681491 
L 987.946506 483.104368 
L 988.640472 484.809014 
L 989.334438 495.503441 
L 990.028405 503.329485 
L 990.722371 506.914092 
L 991.416338 516.822825 
L 992.110304 520.302895 
L 992.80427 535.673054 
L 993.498237 527.492393 
L 994.192203 515.303707 
L 994.886169 498.533838 
L 995.580136 486.270024 
L 996.274102 477.236403 
L 996.968069 471.731835 
L 997.662035 473.067765 
L 998.356001 475.240699 
L 999.049968 475.925792 
L 999.743934 475.687499 
L 1000.437901 477.206616 
L 1001.131867 479.912496 
L 1001.825833 481.31717 
L 1002.5198 483.580954 
L 1003.213766 485.381555 
L 1003.907732 488.197096 
L 1004.601699 489.331261 
L 1005.295665 492.576514 
L 1005.989632 493.879075 
L 1006.683598 494.558814 
L 1007.377564 495.823256 
L 1008.071531 496.597708 
L 1008.765497 498.315926 
L 1009.459463 498.621631 
L 1010.15343 498.566604 
L 1010.847396 500.440987 
L 1011.541363 500.201889 
L 1012.235329 501.274208 
L 1012.929295 508.542144 
L 1013.623262 510.241471 
L 1014.317228 509.29922 
L 1015.011195 511.644656 
L 1016.399127 513.844163 
L 1017.093094 515.494838 
L 1017.78706 516.495172 
L 1018.481026 519.473834 
L 1019.174993 517.775997 
L 1019.868959 518.413701 
L 1020.562926 517.007677 
L 1021.256892 516.987054 
L 1021.950858 520.812743 
L 1022.644825 520.786056 
L 1023.338791 520.251265 
L 1024.032757 520.575939 
L 1024.726724 517.908547 
L 1025.42069 519.938345 
L 1026.114657 519.384474 
L 1027.502589 519.440128 
L 1028.196556 520.409295 
L 1028.890522 518.967462 
L 1029.584489 519.915669 
L 1030.278455 519.384474 
L 1030.972421 523.252267 
L 1031.666388 522.558317 
L 1032.360354 524.415706 
M 1035.13622 513.784589 
L 1035.830186 514.133093 
L 1036.524152 478.934241 
M 1101.063026 532.371442 
L 1102.450958 546.311581 
L 1103.144925 541.307429 
L 1103.838891 547.211621 
L 1104.532858 549.796616 
L 1105.226824 552.853665 
L 1105.92079 555.024169 
L 1106.614757 558.085348 
L 1107.308723 561.761903 
L 1108.00269 563.645044 
L 1108.696656 567.396042 
L 1110.084589 571.59337 
L 1110.778555 573.707828 
L 1111.472521 575.32127 
L 1112.166488 576.390305 
L 1112.860454 578.70581 
L 1113.554421 579.835974 
L 1114.248387 580.031649 
L 1114.942353 581.140999 
L 1116.330286 584.315057 
L 1117.024252 585.431883 
L 1117.718219 585.332057 
L 1118.412185 586.439269 
L 1119.106152 586.389483 
L 1120.494084 587.714987 
L 1121.188051 587.692446 
L 1123.26995 588.009718 
L 1123.963916 588.109873 
L 1124.657883 587.873849 
L 1125.351849 588.132 
L 1126.045815 587.999237 
L 1126.739782 588.132 
L 1137.149278 588.132 
L 1137.843244 587.494951 
L 1138.53721 588.132 
L 1153.804471 588.063666 
L 1154.498437 586.248197 
L 1155.192403 583.852133 
L 1155.88637 586.712171 
L 1156.580336 587.869686 
L 1157.274303 587.205423 
L 1157.968269 587.914185 
L 1159.356202 588.132 
L 1173.929496 588.132 
L 1174.623462 588.002925 
L 1178.78726 588.132 
L 1180.175193 588.070859 
L 1181.563126 588.132 
L 1182.257092 587.417121 
L 1182.951059 587.826295 
L 1183.645025 574.19186 
L 1184.338991 531.821173 
L 1185.032958 514.820681 
L 1185.726924 521.641203 
L 1187.114857 543.324409 
L 1187.808823 549.489113 
L 1188.50279 557.024837 
L 1189.890722 566.093303 
L 1190.584689 569.484006 
L 1191.278655 573.440186 
L 1192.666588 577.738036 
L 1193.360554 580.268332 
L 1194.054521 580.581091 
L 1194.748487 583.485287 
L 1195.442454 583.385714 
L 1196.13642 584.557605 
L 1197.524353 585.808643 
L 1198.218319 587.123174 
L 1198.912285 587.834134 
L 1199.606252 587.948577 
L 1200.300218 587.826295 
L 1202.382117 588.132 
L 1203.076084 588.132 
L 1203.77005 587.938387 
L 1205.157983 588.132 
L 1234.998537 588.132 
L 1235.692504 577.160594 
M 1251.65373 587.800092 
L 1252.347697 584.414629 
L 1253.041663 588.132 
L 1262.063226 588.132 
L 1262.757192 587.906118 
L 1263.451159 588.035193 
L 1264.145125 587.920786 
L 1264.839092 588.132 
L 1265.533058 588.074633 
L 1266.920991 588.132 
L 1282.188251 588.043491 
L 1282.882217 587.907159 
L 1283.576184 588.132 
L 1284.27015 587.589883 
L 1284.964117 581.968651 
L 1285.658083 582.857353 
L 1286.352049 585.433908 
L 1287.046016 586.076723 
L 1287.739982 587.367738 
L 1288.433949 587.733385 
L 1289.127915 587.067128 
L 1289.821881 586.881813 
L 1290.515848 587.462204 
L 1291.209814 586.865666 
L 1291.90378 587.306597 
L 1292.597747 587.004489 
L 1293.291713 586.175489 
L 1293.98568 586.405181 
L 1294.679646 586.786899 
L 1295.373612 585.868217 
L 1296.067579 584.414629 
L 1296.761545 583.969319 
L 1296.761545 583.969319 
" style="fill:none;stroke:#0000ff;stroke-linecap:square;stroke-width:3;"/>
   </g>
   <g id="line2d_13">
    <path clip-path="url(#p8ee3238b03)" d="M 243.320579 504.200743 
L 244.014545 548.112183 
L 244.708512 549.970868 
L 245.402478 549.564281 
L 246.096445 553.688239 
L 246.790411 549.796616 
L 247.484377 547.589428 
L 248.178344 539.980435 
L 248.87231 536.901987 
L 249.566277 531.500183 
L 250.260243 483.672556 
L 250.954209 491.37544 
L 251.648176 514.713932 
L 252.342142 516.921121 
L 253.036108 484.419944 
L 253.730075 487.065989 
M 353.661234 291.5122 
L 354.3552 399.878976 
L 355.049166 399.823949 
L 356.437099 383.444285 
L 357.131066 378.971824 
L 357.825032 373.453852 
L 358.518998 369.736481 
L 359.212965 369.039474 
L 359.906931 342.204706 
L 360.600897 300.965126 
L 361.294864 302.35914 
L 361.98883 310.432804 
L 362.682797 303.636986 
L 363.376763 300.035784 
L 364.070729 286.676483 
L 364.764696 279.299826 
L 365.458662 290.974693 
L 366.152628 289.406427 
L 366.846595 290.858525 
L 367.540561 309.793881 
L 368.234528 308.109448 
L 368.928494 313.975923 
L 369.62246 392.214956 
L 370.316427 391.053278 
L 371.010393 393.60897 
L 371.70436 360.443055 
L 372.398326 365.612523 
L 373.092292 360.96581 
L 373.786259 367.006537 
L 374.480225 304.740581 
L 375.174191 269.541728 
L 375.868158 335.370165 
M 638.18745 248.863855 
L 638.881416 320.713657 
L 639.575383 280.345337 
L 640.269349 274.420777 
L 640.963315 285.747141 
L 642.351248 311.652567 
L 643.045214 331.749601 
L 643.739181 339.242426 
L 644.433147 336.047811 
L 645.127114 338.661587 
L 645.82108 331.401098 
L 646.515046 332.678944 
L 647.902979 313.62742 
L 648.596945 312.233406 
L 649.290912 308.864539 
L 649.984878 306.715434 
L 650.678845 305.553756 
L 651.372811 306.134595 
L 652.066777 303.056147 
L 652.760744 301.429798 
L 653.45471 302.707644 
L 654.148677 191.940777 
M 768.653129 302.200402 
L 769.347096 375.95146 
L 770.041062 436.416815 
L 770.735028 450.937794 
L 771.428995 446.000661 
L 772.122961 417.539543 
L 772.816928 448.149766 
L 773.510894 449.54378 
L 774.20486 425.032368 
L 774.898827 392.56346 
L 775.592793 447.627011 
L 776.28676 262.450512 
L 776.980726 393.89939 
M 840.131667 366.692884 
L 840.825633 418.643137 
L 841.519599 446.988088 
L 842.213566 462.380325 
L 842.907532 465.633024 
L 843.601498 468.2468 
L 844.295465 470.279737 
L 844.989431 469.698898 
L 845.683398 464.936017 
L 846.377364 468.072549 
L 847.07133 466.794702 
L 848.459263 469.234227 
L 849.15323 473.764772 
L 850.541162 473.125849 
L 851.235129 471.964171 
L 851.929095 475.100702 
L 853.317028 485.381555 
L 854.010994 485.091136 
L 854.704961 486.833653 
L 855.398927 492.061205 
L 856.092893 492.932464 
L 856.78686 488.227667 
L 857.480826 493.048632 
L 858.174792 488.285751 
L 858.868759 486.485149 
L 859.562725 476.378548 
L 860.256692 470.744409 
L 860.950658 470.279737 
L 861.644624 466.968954 
L 862.338591 461.334814 
L 863.032557 463.309668 
L 863.726523 471.034828 
L 864.42049 485.149219 
L 865.114456 487.124073 
L 865.808423 485.091136 
L 866.502389 488.518086 
L 867.196355 486.427066 
L 867.890322 488.518086 
L 868.584288 487.414492 
L 869.278255 486.078562 
L 869.972221 489.563597 
L 870.666187 490.841443 
L 871.360154 494.036058 
L 872.05412 494.384562 
L 872.748086 492.177373 
L 873.442053 488.111499 
L 874.136019 485.265387 
L 874.829986 484.161793 
L 875.523952 485.613891 
L 876.217918 471.4995 
L 876.911885 476.39967 
M 936.592993 458.703166 
L 937.28696 510.009135 
L 937.980926 537.018155 
L 938.674893 537.250491 
L 939.368859 533.300785 
L 940.062825 503.329485 
L 940.756792 499.205527 
L 941.450758 498.566604 
L 942.144725 500.076785 
L 942.838691 499.84445 
L 943.532657 493.455219 
L 944.226624 493.106716 
L 944.92059 494.152226 
L 945.614556 491.886954 
L 946.308523 499.031275 
L 947.002489 496.766002 
L 947.696456 493.571387 
L 948.390422 498.50852 
L 949.084388 494.791149 
L 949.778355 499.728282 
L 951.166287 492.816296 
L 951.860254 495.662408 
L 952.55422 499.612114 
L 953.248187 501.877387 
L 953.942153 505.885177 
L 954.636119 507.395359 
L 955.330086 506.640268 
L 956.024052 505.304338 
L 956.718019 505.013918 
L 957.411985 485.555807 
L 958.105951 474.287527 
M 960.881817 500.618902 
L 961.575783 536.78582 
L 962.26975 533.997792 
L 962.963716 532.313358 
L 963.657682 533.300785 
L 964.351649 528.537904 
L 965.045615 528.654071 
L 965.739581 517.269624 
L 966.433548 514.423512 
L 967.127514 510.706142 
L 967.821481 493.571387 
L 968.515447 480.502506 
L 969.209413 473.706688 
L 969.90338 444.663414 
L 970.597346 485.439639 
L 971.291313 493.397135 
L 971.985279 478.362621 
L 972.679245 492.451952 
L 973.373212 455.435148 
L 974.067178 453.377318 
M 976.843044 466.155779 
L 977.53701 469.950595 
M 1037.218119 465.370264 
L 1037.912085 498.160016 
L 1038.606051 506.81452 
L 1039.300018 512.506743 
L 1039.993984 510.183387 
L 1040.687951 511.519317 
L 1041.381917 514.53968 
L 1042.075883 511.403149 
L 1042.76985 505.827093 
L 1043.463816 502.400142 
L 1044.157783 497.346841 
L 1044.851749 490.551023 
L 1045.545715 492.87438 
L 1046.239682 491.712702 
L 1046.933648 490.144436 
L 1047.627614 487.065989 
L 1048.321581 487.762996 
L 1049.015547 484.974968 
L 1049.709514 484.394129 
L 1050.40348 486.368982 
L 1051.097446 480.444422 
L 1051.791413 485.033052 
L 1052.485379 486.142603 
L 1053.179345 486.020478 
L 1053.873312 484.684548 
L 1054.567278 479.166576 
L 1055.261245 480.037835 
L 1055.955211 480.56059 
L 1057.343144 496.533667 
L 1058.03711 497.114506 
L 1058.731077 492.816296 
L 1059.425043 496.185163 
L 1060.119009 494.094142 
L 1060.812976 495.83666 
L 1061.506942 496.359415 
L 1062.200908 503.097149 
L 1062.894875 507.743862 
L 1063.588841 508.382785 
L 1064.282808 508.266617 
L 1064.976774 511.809736 
L 1065.67074 514.713932 
L 1067.058673 535.043302 
L 1067.752639 538.005582 
L 1068.446606 539.573847 
L 1069.140572 539.864267 
L 1070.528505 496.691323 
L 1070.528505 496.691323 
" style="fill:none;stroke:#008000;stroke-linecap:square;stroke-width:3;"/>
   </g>
   <g id="line2d_14">
    <path clip-path="url(#p8ee3238b03)" d="M 237.768848 482.065762 
L 238.462814 472.811869 
L 239.156781 474.000916 
L 239.850747 473.46483 
L 240.544714 470.443159 
L 241.23868 469.604182 
L 241.932646 478.076658 
L 242.626613 470.855305 
L 243.320579 487.066507 
M 250.260243 457.037377 
L 250.954209 476.315998 
M 253.036108 480.171722 
L 253.730075 486.617403 
L 254.424041 514.55193 
L 255.118008 509.860799 
L 255.811974 511.274564 
L 256.50594 510.053585 
L 257.199907 510.567682 
L 257.893873 512.624068 
L 258.587839 511.917185 
L 259.281806 505.23393 
L 259.975772 487.56186 
L 260.669739 489.232674 
L 261.363705 487.626123 
L 262.057671 489.361198 
L 262.751638 479.657626 
L 264.13957 482.420895 
L 264.833537 481.714012 
L 265.527503 482.163847 
L 266.22147 480.364509 
L 266.915436 481.007129 
L 267.609402 482.806467 
L 268.303369 481.842536 
L 268.997335 487.754647 
L 269.691302 490.96775 
L 270.385268 489.875295 
L 271.079234 487.176288 
L 271.773201 480.685819 
L 272.467167 454.405692 
L 273.161133 457.965607 
L 273.8551 491.810297 
L 274.549066 409.62625 
L 275.243033 454.598714 
L 275.936999 474.168829 
L 276.630965 469.627983 
L 277.324932 428.835509 
L 278.018898 456.585648 
L 278.712864 430.047308 
L 279.406831 483.294997 
L 280.100797 486.602214 
L 280.794764 490.465554 
L 281.48873 491.080407 
L 282.182696 475.673377 
L 282.876663 473.745515 
M 352.967267 189.964214 
L 353.661234 222.159511 
M 375.868158 294.875367 
L 376.562124 224.751415 
L 377.256091 246.290743 
L 377.950057 293.608787 
L 378.644023 303.165421 
L 379.33799 295.969089 
M 637.493483 240.259994 
L 638.18745 252.303182 
M 654.148677 139.582751 
L 654.842643 292.183747 
M 755.467768 385.7649 
L 756.161734 244.201401 
L 756.855701 376.388479 
L 757.549667 351.054394 
L 758.243634 313.279346 
L 758.9376 302.122947 
L 759.631566 315.660823 
L 760.325533 324.371904 
L 761.019499 324.657513 
M 765.877264 380.43699 
L 766.57123 332.883058 
L 767.265197 312.190671 
L 767.959163 361.745908 
L 768.653129 264.508215 
M 776.28676 208.728739 
L 776.980726 315.43923 
M 839.4377 434.47425 
L 840.131667 418.265928 
M 876.911885 423.221248 
L 877.605851 435.273344 
L 878.299817 439.816927 
L 878.993784 446.916925 
L 879.68775 439.558094 
M 958.105951 433.444017 
L 958.799918 475.544853 
L 960.18785 485.027079 
L 960.881817 473.102895 
M 971.985279 463.463584 
L 972.679245 472.093062 
L 973.373212 433.903032 
L 974.067178 482.466796 
L 974.761144 496.815599 
L 975.455111 498.165102 
L 976.149077 490.260867 
L 976.843044 453.613892 
L 977.53701 463.384492 
L 978.230976 458.001308 
M 1036.524152 489.393329 
L 1037.218119 475.887584 
M 1070.528505 492.809929 
L 1071.222471 491.310481 
M 1194.748487 582.776827 
L 1195.442454 582.348414 
M 1235.692504 543.362758 
L 1236.38647 573.415986 
L 1237.080436 587.911673 
L 1237.774403 588.054107 
L 1238.468369 587.801509 
L 1239.162336 588.132 
L 1239.856302 588.132 
L 1240.550268 587.976213 
L 1243.326134 588.067738 
L 1244.714067 588.056398 
L 1246.795966 587.948394 
L 1248.183898 587.742533 
L 1249.571831 588.132 
L 1250.265798 588.132 
L 1250.959764 587.472902 
L 1251.65373 584.790372 
L 1251.65373 584.790372 
" style="fill:none;stroke:#ff0000;stroke-linecap:square;stroke-width:3;"/>
   </g>
   <g id="patch_15">
    <path d="M 152.064 588.132 
L 152.064 74.03544 
" style="fill:none;stroke:#000000;stroke-linecap:square;stroke-linejoin:miter;stroke-width:0.8;"/>
   </g>
   <g id="patch_16">
    <path d="M 1365.8112 588.132 
L 1365.8112 74.03544 
" style="fill:none;stroke:#000000;stroke-linecap:square;stroke-linejoin:miter;stroke-width:0.8;"/>
   </g>
   <g id="patch_17">
    <path d="M 152.064 588.132 
L 1365.8112 588.132 
" style="fill:none;stroke:#000000;stroke-linecap:square;stroke-linejoin:miter;stroke-width:0.8;"/>
   </g>
   <g id="patch_18">
    <path d="M 152.064 74.03544 
L 1365.8112 74.03544 
" style="fill:none;stroke:#000000;stroke-linecap:square;stroke-linejoin:miter;stroke-width:0.8;"/>
   </g>
   <g id="legend_1">
    <g id="patch_19">
     <path d="M 1091.67995 282.17294 
L 1337.8112 282.17294 
Q 1345.8112 282.17294 1345.8112 274.17294 
L 1345.8112 102.03544 
Q 1345.8112 94.03544 1337.8112 94.03544 
L 1091.67995 94.03544 
Q 1083.67995 94.03544 1083.67995 102.03544 
L 1083.67995 274.17294 
Q 1083.67995 282.17294 1091.67995 282.17294 
z
" style="fill:#ffffff;opacity:0.8;stroke:#cccccc;stroke-linejoin:miter;"/>
    </g>
    <g id="line2d_15">
     <path d="M 1099.67995 126.42919 
L 1179.67995 126.42919 
" style="fill:none;stroke:#0000ff;stroke-linecap:square;stroke-width:3;"/>
    </g>
    <g id="line2d_16"/>
    <g id="text_14">
     <!-- Home -->
     <g transform="translate(1211.67995 140.42919)scale(0.4 -0.4)">
      <defs>
       <path d="M 9.8125 72.90625 
L 19.671875 72.90625 
L 19.671875 43.015625 
L 55.515625 43.015625 
L 55.515625 72.90625 
L 65.375 72.90625 
L 65.375 0 
L 55.515625 0 
L 55.515625 34.71875 
L 19.671875 34.71875 
L 19.671875 0 
L 9.8125 0 
z
" id="DejaVuSans-72"/>
       <path d="M 52 44.1875 
Q 55.375 50.25 60.0625 53.125 
Q 64.75 56 71.09375 56 
Q 79.640625 56 84.28125 50.015625 
Q 88.921875 44.046875 88.921875 33.015625 
L 88.921875 0 
L 79.890625 0 
L 79.890625 32.71875 
Q 79.890625 40.578125 77.09375 44.375 
Q 74.3125 48.1875 68.609375 48.1875 
Q 61.625 48.1875 57.5625 43.546875 
Q 53.515625 38.921875 53.515625 30.90625 
L 53.515625 0 
L 44.484375 0 
L 44.484375 32.71875 
Q 44.484375 40.625 41.703125 44.40625 
Q 38.921875 48.1875 33.109375 48.1875 
Q 26.21875 48.1875 22.15625 43.53125 
Q 18.109375 38.875 18.109375 30.90625 
L 18.109375 0 
L 9.078125 0 
L 9.078125 54.6875 
L 18.109375 54.6875 
L 18.109375 46.1875 
Q 21.1875 51.21875 25.484375 53.609375 
Q 29.78125 56 35.6875 56 
Q 41.65625 56 45.828125 52.96875 
Q 50 49.953125 52 44.1875 
z
" id="DejaVuSans-109"/>
      </defs>
      <use xlink:href="#DejaVuSans-72"/>
      <use x="75.195312" xlink:href="#DejaVuSans-111"/>
      <use x="136.376953" xlink:href="#DejaVuSans-109"/>
      <use x="233.789062" xlink:href="#DejaVuSans-101"/>
     </g>
    </g>
    <g id="line2d_17">
     <path d="M 1099.67995 185.14169 
L 1179.67995 185.14169 
" style="fill:none;stroke:#008000;stroke-linecap:square;stroke-width:3;"/>
    </g>
    <g id="line2d_18"/>
    <g id="text_15">
     <!-- Office -->
     <g transform="translate(1211.67995 199.14169)scale(0.4 -0.4)">
      <defs>
       <path d="M 39.40625 66.21875 
Q 28.65625 66.21875 22.328125 58.203125 
Q 16.015625 50.203125 16.015625 36.375 
Q 16.015625 22.609375 22.328125 14.59375 
Q 28.65625 6.59375 39.40625 6.59375 
Q 50.140625 6.59375 56.421875 14.59375 
Q 62.703125 22.609375 62.703125 36.375 
Q 62.703125 50.203125 56.421875 58.203125 
Q 50.140625 66.21875 39.40625 66.21875 
z
M 39.40625 74.21875 
Q 54.734375 74.21875 63.90625 63.9375 
Q 73.09375 53.65625 73.09375 36.375 
Q 73.09375 19.140625 63.90625 8.859375 
Q 54.734375 -1.421875 39.40625 -1.421875 
Q 24.03125 -1.421875 14.8125 8.828125 
Q 5.609375 19.09375 5.609375 36.375 
Q 5.609375 53.65625 14.8125 63.9375 
Q 24.03125 74.21875 39.40625 74.21875 
z
" id="DejaVuSans-79"/>
       <path d="M 37.109375 75.984375 
L 37.109375 68.5 
L 28.515625 68.5 
Q 23.6875 68.5 21.796875 66.546875 
Q 19.921875 64.59375 19.921875 59.515625 
L 19.921875 54.6875 
L 34.71875 54.6875 
L 34.71875 47.703125 
L 19.921875 47.703125 
L 19.921875 0 
L 10.890625 0 
L 10.890625 47.703125 
L 2.296875 47.703125 
L 2.296875 54.6875 
L 10.890625 54.6875 
L 10.890625 58.5 
Q 10.890625 67.625 15.140625 71.796875 
Q 19.390625 75.984375 28.609375 75.984375 
z
" id="DejaVuSans-102"/>
      </defs>
      <use xlink:href="#DejaVuSans-79"/>
      <use x="78.710938" xlink:href="#DejaVuSans-102"/>
      <use x="113.916016" xlink:href="#DejaVuSans-102"/>
      <use x="149.121094" xlink:href="#DejaVuSans-105"/>
      <use x="176.904297" xlink:href="#DejaVuSans-99"/>
      <use x="231.884766" xlink:href="#DejaVuSans-101"/>
     </g>
    </g>
    <g id="line2d_19">
     <path d="M 1099.67995 243.85419 
L 1179.67995 243.85419 
" style="fill:none;stroke:#ff0000;stroke-linecap:square;stroke-width:3;"/>
    </g>
    <g id="line2d_20"/>
    <g id="text_16">
     <!-- Other -->
     <g transform="translate(1211.67995 257.85419)scale(0.4 -0.4)">
      <defs>
       <path d="M 54.890625 33.015625 
L 54.890625 0 
L 45.90625 0 
L 45.90625 32.71875 
Q 45.90625 40.484375 42.875 44.328125 
Q 39.84375 48.1875 33.796875 48.1875 
Q 26.515625 48.1875 22.3125 43.546875 
Q 18.109375 38.921875 18.109375 30.90625 
L 18.109375 0 
L 9.078125 0 
L 9.078125 75.984375 
L 18.109375 75.984375 
L 18.109375 46.1875 
Q 21.34375 51.125 25.703125 53.5625 
Q 30.078125 56 35.796875 56 
Q 45.21875 56 50.046875 50.171875 
Q 54.890625 44.34375 54.890625 33.015625 
z
" id="DejaVuSans-104"/>
      </defs>
      <use xlink:href="#DejaVuSans-79"/>
      <use x="78.710938" xlink:href="#DejaVuSans-116"/>
      <use x="117.919922" xlink:href="#DejaVuSans-104"/>
      <use x="181.298828" xlink:href="#DejaVuSans-101"/>
      <use x="242.822266" xlink:href="#DejaVuSans-114"/>
     </g>
    </g>
   </g>
  </g>
 </g>
 <defs>
  <clipPath id="p8ee3238b03">
   <rect height="514.09656" width="1213.7472" x="152.064" y="74.03544"/>
  </clipPath>
 </defs>
</svg>
