<?xml version="1.0" encoding="utf-8" standalone="no"?>
<!DOCTYPE svg PUBLIC "-//W3C//DTD SVG 1.1//EN"
  "http://www.w3.org/Graphics/SVG/1.1/DTD/svg11.dtd">
<!-- Created with matplotlib (https://matplotlib.org/) -->
<svg height="454.32pt" version="1.1" viewBox="0 0 1380.96 454.32" width="1380.96pt" xmlns="http://www.w3.org/2000/svg" xmlns:xlink="http://www.w3.org/1999/xlink">
 <metadata>
  <rdf:RDF xmlns:cc="http://creativecommons.org/ns#" xmlns:dc="http://purl.org/dc/elements/1.1/" xmlns:rdf="http://www.w3.org/1999/02/22-rdf-syntax-ns#">
   <cc:Work>
    <dc:type rdf:resource="http://purl.org/dc/dcmitype/StillImage"/>
    <dc:date>2021-07-08T17:39:53.588616</dc:date>
    <dc:format>image/svg+xml</dc:format>
    <dc:creator>
     <cc:Agent>
      <dc:title>Matplotlib v3.3.2, https://matplotlib.org/</dc:title>
     </cc:Agent>
    </dc:creator>
   </cc:Work>
  </rdf:RDF>
 </metadata>
 <defs>
  <style type="text/css">*{stroke-linecap:butt;stroke-linejoin:round;}</style>
 </defs>
 <g id="figure_1">
  <g id="patch_1">
   <path d="M 0 454.32 
L 1380.96 454.32 
L 1380.96 0 
L 0 0 
z
" style="fill:#ffffff;"/>
  </g>
  <g id="axes_1">
   <g id="patch_2">
    <path d="M 94.21 397.64 
L 1360.622455 397.64 
L 1360.622455 10.8 
L 94.21 10.8 
z
" style="fill:#ffffff;"/>
   </g>
   <g id="matplotlib.axis_1">
    <g id="xtick_1">
     <g id="line2d_1">
      <defs>
       <path d="M 0 0 
L 0 3.5 
" id="m4f3b19a43b" style="stroke:#000000;stroke-width:0.8;"/>
      </defs>
      <g>
       <use style="stroke:#000000;stroke-width:0.8;" x="256.436389" xlink:href="#m4f3b19a43b" y="397.64"/>
      </g>
     </g>
     <g id="text_1">
      <!-- 09-11 -->
      <g transform="translate(198.320764 435.03375)scale(0.4 -0.4)">
       <defs>
        <path d="M 31.78125 66.40625 
Q 24.171875 66.40625 20.328125 58.90625 
Q 16.5 51.421875 16.5 36.375 
Q 16.5 21.390625 20.328125 13.890625 
Q 24.171875 6.390625 31.78125 6.390625 
Q 39.453125 6.390625 43.28125 13.890625 
Q 47.125 21.390625 47.125 36.375 
Q 47.125 51.421875 43.28125 58.90625 
Q 39.453125 66.40625 31.78125 66.40625 
z
M 31.78125 74.21875 
Q 44.046875 74.21875 50.515625 64.515625 
Q 56.984375 54.828125 56.984375 36.375 
Q 56.984375 17.96875 50.515625 8.265625 
Q 44.046875 -1.421875 31.78125 -1.421875 
Q 19.53125 -1.421875 13.0625 8.265625 
Q 6.59375 17.96875 6.59375 36.375 
Q 6.59375 54.828125 13.0625 64.515625 
Q 19.53125 74.21875 31.78125 74.21875 
z
" id="DejaVuSans-48"/>
        <path d="M 10.984375 1.515625 
L 10.984375 10.5 
Q 14.703125 8.734375 18.5 7.8125 
Q 22.3125 6.890625 25.984375 6.890625 
Q 35.75 6.890625 40.890625 13.453125 
Q 46.046875 20.015625 46.78125 33.40625 
Q 43.953125 29.203125 39.59375 26.953125 
Q 35.25 24.703125 29.984375 24.703125 
Q 19.046875 24.703125 12.671875 31.3125 
Q 6.296875 37.9375 6.296875 49.421875 
Q 6.296875 60.640625 12.9375 67.421875 
Q 19.578125 74.21875 30.609375 74.21875 
Q 43.265625 74.21875 49.921875 64.515625 
Q 56.59375 54.828125 56.59375 36.375 
Q 56.59375 19.140625 48.40625 8.859375 
Q 40.234375 -1.421875 26.421875 -1.421875 
Q 22.703125 -1.421875 18.890625 -0.6875 
Q 15.09375 0.046875 10.984375 1.515625 
z
M 30.609375 32.421875 
Q 37.25 32.421875 41.125 36.953125 
Q 45.015625 41.5 45.015625 49.421875 
Q 45.015625 57.28125 41.125 61.84375 
Q 37.25 66.40625 30.609375 66.40625 
Q 23.96875 66.40625 20.09375 61.84375 
Q 16.21875 57.28125 16.21875 49.421875 
Q 16.21875 41.5 20.09375 36.953125 
Q 23.96875 32.421875 30.609375 32.421875 
z
" id="DejaVuSans-57"/>
        <path d="M 4.890625 31.390625 
L 31.203125 31.390625 
L 31.203125 23.390625 
L 4.890625 23.390625 
z
" id="DejaVuSans-45"/>
        <path d="M 12.40625 8.296875 
L 28.515625 8.296875 
L 28.515625 63.921875 
L 10.984375 60.40625 
L 10.984375 69.390625 
L 28.421875 72.90625 
L 38.28125 72.90625 
L 38.28125 8.296875 
L 54.390625 8.296875 
L 54.390625 0 
L 12.40625 0 
z
" id="DejaVuSans-49"/>
       </defs>
       <use xlink:href="#DejaVuSans-48"/>
       <use x="63.623047" xlink:href="#DejaVuSans-57"/>
       <use x="127.246094" xlink:href="#DejaVuSans-45"/>
       <use x="163.330078" xlink:href="#DejaVuSans-49"/>
       <use x="226.953125" xlink:href="#DejaVuSans-49"/>
      </g>
     </g>
    </g>
    <g id="xtick_2">
     <g id="line2d_2">
      <g>
       <use style="stroke:#000000;stroke-width:0.8;" x="465.760761" xlink:href="#m4f3b19a43b" y="397.64"/>
      </g>
     </g>
     <g id="text_2">
      <!-- 09-13 -->
      <g transform="translate(407.645136 435.03375)scale(0.4 -0.4)">
       <defs>
        <path d="M 40.578125 39.3125 
Q 47.65625 37.796875 51.625 33 
Q 55.609375 28.21875 55.609375 21.1875 
Q 55.609375 10.40625 48.1875 4.484375 
Q 40.765625 -1.421875 27.09375 -1.421875 
Q 22.515625 -1.421875 17.65625 -0.515625 
Q 12.796875 0.390625 7.625 2.203125 
L 7.625 11.71875 
Q 11.71875 9.328125 16.59375 8.109375 
Q 21.484375 6.890625 26.8125 6.890625 
Q 36.078125 6.890625 40.9375 10.546875 
Q 45.796875 14.203125 45.796875 21.1875 
Q 45.796875 27.640625 41.28125 31.265625 
Q 36.765625 34.90625 28.71875 34.90625 
L 20.21875 34.90625 
L 20.21875 43.015625 
L 29.109375 43.015625 
Q 36.375 43.015625 40.234375 45.921875 
Q 44.09375 48.828125 44.09375 54.296875 
Q 44.09375 59.90625 40.109375 62.90625 
Q 36.140625 65.921875 28.71875 65.921875 
Q 24.65625 65.921875 20.015625 65.03125 
Q 15.375 64.15625 9.8125 62.3125 
L 9.8125 71.09375 
Q 15.4375 72.65625 20.34375 73.4375 
Q 25.25 74.21875 29.59375 74.21875 
Q 40.828125 74.21875 47.359375 69.109375 
Q 53.90625 64.015625 53.90625 55.328125 
Q 53.90625 49.265625 50.4375 45.09375 
Q 46.96875 40.921875 40.578125 39.3125 
z
" id="DejaVuSans-51"/>
       </defs>
       <use xlink:href="#DejaVuSans-48"/>
       <use x="63.623047" xlink:href="#DejaVuSans-57"/>
       <use x="127.246094" xlink:href="#DejaVuSans-45"/>
       <use x="163.330078" xlink:href="#DejaVuSans-49"/>
       <use x="226.953125" xlink:href="#DejaVuSans-51"/>
      </g>
     </g>
    </g>
    <g id="xtick_3">
     <g id="line2d_3">
      <g>
       <use style="stroke:#000000;stroke-width:0.8;" x="675.085134" xlink:href="#m4f3b19a43b" y="397.64"/>
      </g>
     </g>
     <g id="text_3">
      <!-- 09-15 -->
      <g transform="translate(616.969509 435.03375)scale(0.4 -0.4)">
       <defs>
        <path d="M 10.796875 72.90625 
L 49.515625 72.90625 
L 49.515625 64.59375 
L 19.828125 64.59375 
L 19.828125 46.734375 
Q 21.96875 47.46875 24.109375 47.828125 
Q 26.265625 48.1875 28.421875 48.1875 
Q 40.625 48.1875 47.75 41.5 
Q 54.890625 34.8125 54.890625 23.390625 
Q 54.890625 11.625 47.5625 5.09375 
Q 40.234375 -1.421875 26.90625 -1.421875 
Q 22.3125 -1.421875 17.546875 -0.640625 
Q 12.796875 0.140625 7.71875 1.703125 
L 7.71875 11.625 
Q 12.109375 9.234375 16.796875 8.0625 
Q 21.484375 6.890625 26.703125 6.890625 
Q 35.15625 6.890625 40.078125 11.328125 
Q 45.015625 15.765625 45.015625 23.390625 
Q 45.015625 31 40.078125 35.4375 
Q 35.15625 39.890625 26.703125 39.890625 
Q 22.75 39.890625 18.8125 39.015625 
Q 14.890625 38.140625 10.796875 36.28125 
z
" id="DejaVuSans-53"/>
       </defs>
       <use xlink:href="#DejaVuSans-48"/>
       <use x="63.623047" xlink:href="#DejaVuSans-57"/>
       <use x="127.246094" xlink:href="#DejaVuSans-45"/>
       <use x="163.330078" xlink:href="#DejaVuSans-49"/>
       <use x="226.953125" xlink:href="#DejaVuSans-53"/>
      </g>
     </g>
    </g>
    <g id="xtick_4">
     <g id="line2d_4">
      <g>
       <use style="stroke:#000000;stroke-width:0.8;" x="884.409507" xlink:href="#m4f3b19a43b" y="397.64"/>
      </g>
     </g>
     <g id="text_4">
      <!-- 09-17 -->
      <g transform="translate(826.293882 435.03375)scale(0.4 -0.4)">
       <defs>
        <path d="M 8.203125 72.90625 
L 55.078125 72.90625 
L 55.078125 68.703125 
L 28.609375 0 
L 18.3125 0 
L 43.21875 64.59375 
L 8.203125 64.59375 
z
" id="DejaVuSans-55"/>
       </defs>
       <use xlink:href="#DejaVuSans-48"/>
       <use x="63.623047" xlink:href="#DejaVuSans-57"/>
       <use x="127.246094" xlink:href="#DejaVuSans-45"/>
       <use x="163.330078" xlink:href="#DejaVuSans-49"/>
       <use x="226.953125" xlink:href="#DejaVuSans-55"/>
      </g>
     </g>
    </g>
    <g id="xtick_5">
     <g id="line2d_5">
      <g>
       <use style="stroke:#000000;stroke-width:0.8;" x="1093.733879" xlink:href="#m4f3b19a43b" y="397.64"/>
      </g>
     </g>
     <g id="text_5">
      <!-- 09-19 -->
      <g transform="translate(1035.618254 435.03375)scale(0.4 -0.4)">
       <use xlink:href="#DejaVuSans-48"/>
       <use x="63.623047" xlink:href="#DejaVuSans-57"/>
       <use x="127.246094" xlink:href="#DejaVuSans-45"/>
       <use x="163.330078" xlink:href="#DejaVuSans-49"/>
       <use x="226.953125" xlink:href="#DejaVuSans-57"/>
      </g>
     </g>
    </g>
    <g id="xtick_6">
     <g id="line2d_6">
      <g>
       <use style="stroke:#000000;stroke-width:0.8;" x="1303.058252" xlink:href="#m4f3b19a43b" y="397.64"/>
      </g>
     </g>
     <g id="text_6">
      <!-- 09-21 -->
      <g transform="translate(1244.942627 435.03375)scale(0.4 -0.4)">
       <defs>
        <path d="M 19.1875 8.296875 
L 53.609375 8.296875 
L 53.609375 0 
L 7.328125 0 
L 7.328125 8.296875 
Q 12.9375 14.109375 22.625 23.890625 
Q 32.328125 33.6875 34.8125 36.53125 
Q 39.546875 41.84375 41.421875 45.53125 
Q 43.3125 49.21875 43.3125 52.78125 
Q 43.3125 58.59375 39.234375 62.25 
Q 35.15625 65.921875 28.609375 65.921875 
Q 23.96875 65.921875 18.8125 64.3125 
Q 13.671875 62.703125 7.8125 59.421875 
L 7.8125 69.390625 
Q 13.765625 71.78125 18.9375 73 
Q 24.125 74.21875 28.421875 74.21875 
Q 39.75 74.21875 46.484375 68.546875 
Q 53.21875 62.890625 53.21875 53.421875 
Q 53.21875 48.921875 51.53125 44.890625 
Q 49.859375 40.875 45.40625 35.40625 
Q 44.1875 33.984375 37.640625 27.21875 
Q 31.109375 20.453125 19.1875 8.296875 
z
" id="DejaVuSans-50"/>
       </defs>
       <use xlink:href="#DejaVuSans-48"/>
       <use x="63.623047" xlink:href="#DejaVuSans-57"/>
       <use x="127.246094" xlink:href="#DejaVuSans-45"/>
       <use x="163.330078" xlink:href="#DejaVuSans-50"/>
       <use x="226.953125" xlink:href="#DejaVuSans-49"/>
      </g>
     </g>
    </g>
   </g>
   <g id="matplotlib.axis_2">
    <g id="ytick_1">
     <g id="line2d_7">
      <defs>
       <path d="M 0 0 
L -3.5 0 
" id="m2a6bfe8b5a" style="stroke:#000000;stroke-width:0.8;"/>
      </defs>
      <g>
       <use style="stroke:#000000;stroke-width:0.8;" x="94.21" xlink:href="#m2a6bfe8b5a" y="397.64"/>
      </g>
     </g>
     <g id="text_7">
      <!-- 0 -->
      <g transform="translate(61.76 412.836875)scale(0.4 -0.4)">
       <use xlink:href="#DejaVuSans-48"/>
      </g>
     </g>
    </g>
    <g id="ytick_2">
     <g id="line2d_8">
      <g>
       <use style="stroke:#000000;stroke-width:0.8;" x="94.21" xlink:href="#m2a6bfe8b5a" y="242.904"/>
      </g>
     </g>
     <g id="text_8">
      <!-- 100 -->
      <g transform="translate(10.86 258.100875)scale(0.4 -0.4)">
       <use xlink:href="#DejaVuSans-49"/>
       <use x="63.623047" xlink:href="#DejaVuSans-48"/>
       <use x="127.246094" xlink:href="#DejaVuSans-48"/>
      </g>
     </g>
    </g>
    <g id="ytick_3">
     <g id="line2d_9">
      <g>
       <use style="stroke:#000000;stroke-width:0.8;" x="94.21" xlink:href="#m2a6bfe8b5a" y="88.168"/>
      </g>
     </g>
     <g id="text_9">
      <!-- 200 -->
      <g transform="translate(10.86 103.364875)scale(0.4 -0.4)">
       <use xlink:href="#DejaVuSans-50"/>
       <use x="63.623047" xlink:href="#DejaVuSans-48"/>
       <use x="127.246094" xlink:href="#DejaVuSans-48"/>
      </g>
     </g>
    </g>
   </g>
   <g id="line2d_10">
    <path clip-path="url(#pb273897833)" d="M 151.774202 346.711651 
L 156.135127 348.871706 
L 160.496051 350.895787 
L 164.856976 351.719405 
L 173.578825 353.071382 
L 177.939749 353.386066 
L 186.661598 353.502616 
L 191.022522 352.865477 
L 195.383447 350.876362 
L 199.744371 349.555465 
L 204.105296 346.466897 
L 208.46622 341.579578 
L 212.827145 337.372132 
L 217.188069 333.483256 
L 221.548993 331.365936 
L 225.909918 330.258714 
L 234.631767 327.150721 
L 238.992691 326.377608 
L 243.353616 325.829824 
L 247.71454 324.299137 
L 252.075464 323.747469 
L 256.436389 321.905983 
L 260.797313 320.390836 
L 265.158238 307.442161 
L 269.519162 289.648901 
L 273.880087 279.633394 
L 278.241011 274.746075 
L 282.601935 268.009501 
L 286.96286 259.474175 
L 291.323784 254.932621 
L 295.684709 251.607068 
L 300.045633 246.2147 
L 304.406558 239.353806 
L 308.767482 221.032188 
L 313.128406 195.053252 
L 317.489331 175.725421 
L 321.850255 168.872297 
L 326.21118 165.37969 
L 330.572104 165.538974 
L 334.933029 166.723897 
L 339.293953 168.915032 
L 343.654877 169.179211 
L 348.015802 166.389788 
L 352.376726 164.734781 
L 356.737651 164.171458 
L 361.098575 164.602692 
L 365.4595 167.33384 
L 369.820424 169.412311 
L 374.181348 172.485339 
L 378.542273 178.561465 
L 382.903197 185.849708 
L 387.264122 192.287138 
L 391.625046 197.302662 
L 395.985971 201.311973 
L 400.346895 204.377231 
L 404.707819 206.183752 
L 409.068744 206.412966 
L 413.429668 206.032237 
L 417.790593 198.681834 
L 422.151517 194.350069 
L 426.512442 193.413786 
L 430.873366 195.200882 
L 435.23429 198.677949 
L 439.595215 202.011271 
L 443.956139 206.366346 
L 448.317064 209.625854 
L 452.677988 214.283958 
L 457.038913 217.423031 
L 465.760761 222.41913 
L 474.48261 222.516254 
L 478.843535 222.939719 
L 483.204459 222.873674 
L 487.565384 220.158065 
L 491.926308 219.88223 
L 496.287232 219.353872 
L 500.648157 219.416032 
L 505.009081 218.312694 
L 509.370006 213.48365 
L 513.73093 202.889279 
L 518.091855 192.737797 
L 522.452779 194.921162 
L 526.813703 198.192325 
L 531.174628 199.598692 
L 535.535552 200.057121 
L 539.896477 197.271582 
L 544.257401 195.713701 
L 548.618326 195.608806 
L 561.701099 205.360134 
L 566.062023 208.94598 
L 579.144797 215.550465 
L 587.866646 219.221782 
L 592.22757 222.26373 
L 596.588494 221.646016 
L 600.949419 216.848052 
L 605.310343 219.132427 
L 609.671268 218.984798 
L 614.032192 212.022893 
L 618.393117 201.265353 
L 622.754041 193.693505 
L 627.114965 199.054793 
L 635.836814 201.902492 
L 640.197739 200.902757 
L 644.558663 202.256026 
L 653.280512 203.736207 
L 657.641436 206.704341 
L 662.002361 208.596331 
L 666.363285 207.256009 
L 670.72421 207.970848 
L 675.085134 211.19539 
L 683.806983 212.415278 
L 692.528832 211.238125 
L 696.889756 210.208603 
L 701.250681 204.233486 
L 705.611605 199.501567 
L 709.97253 193.86833 
L 714.333454 192.329873 
L 718.694378 197.524106 
L 723.055303 195.85356 
L 727.416227 190.577742 
L 731.777152 191.335316 
L 736.138076 200.076546 
L 740.499001 210.266877 
L 744.859925 215.177506 
L 749.220849 216.960717 
L 757.942698 219.276172 
L 762.303623 222.706619 
L 766.664547 225.857347 
L 771.025472 227.963012 
L 775.386396 230.294007 
L 779.74732 232.454062 
L 784.108245 235.958324 
L 788.469169 241.649836 
L 792.830094 246.583775 
L 797.191018 252.217012 
L 801.551943 256.517697 
L 805.912867 261.350626 
L 810.273791 265.763976 
L 814.634716 269.454717 
L 818.99564 273.413523 
L 823.356565 277.05376 
L 827.717489 281.719634 
L 832.078414 284.804317 
L 836.439338 287.566546 
L 840.800262 291.249518 
L 845.161187 294.67608 
L 853.883036 301.101855 
L 858.24396 304.994616 
L 862.604885 308.265779 
L 866.965809 309.641066 
L 871.326733 302.279008 
L 875.687658 297.178014 
L 880.048582 297.139164 
L 884.409507 297.473273 
L 888.770431 298.067677 
L 893.131356 297.189669 
L 897.49228 297.170244 
L 901.853204 297.628673 
L 906.214129 299.485699 
L 910.575053 301.692374 
L 914.935978 303.51832 
L 919.296902 306.995387 
L 923.657827 307.418851 
L 928.018751 306.851642 
L 932.379675 310.227699 
L 936.7406 315.282073 
L 941.101524 321.222224 
L 945.462449 324.889656 
L 949.823373 325.33643 
L 954.184298 325.29758 
L 962.906147 325.934719 
L 967.267071 325.736584 
L 971.627995 325.756009 
L 980.349844 325.25873 
L 989.071693 325.32866 
L 993.432618 323.358969 
L 997.793542 320.90754 
L 1006.515391 322.298367 
L 1010.876315 323.09479 
L 1015.23724 324.881886 
L 1019.598164 325.052826 
L 1023.959089 323.988338 
L 1028.320013 318.64259 
L 1032.680937 317.776237 
L 1037.041862 318.098691 
L 1041.402786 316.218356 
L 1045.763711 320.429686 
L 1050.124635 325.083906 
L 1054.48556 329.337971 
L 1058.846484 333.145262 
L 1063.207408 336.661179 
L 1067.568333 338.774614 
L 1071.929257 340.581135 
L 1076.290182 341.723323 
L 1080.651106 342.364346 
L 1085.012031 343.727978 
L 1089.372955 347.243895 
L 1093.733879 353.195701 
L 1098.094804 360.037171 
L 1102.455728 369.03481 
L 1106.816653 377.550711 
L 1111.177577 382.535154 
L 1115.538502 386.528925 
L 1119.899426 390.169162 
L 1124.26035 391.711504 
L 1128.621275 392.927506 
L 1141.704048 395.794629 
L 1150.425897 397.096101 
L 1167.869595 397.146606 
L 1176.591444 397.065021 
L 1185.313292 396.525008 
L 1189.674217 396.326873 
L 1198.396066 396.365723 
L 1207.117915 396.719257 
L 1215.839763 396.730912 
L 1228.922537 397.263156 
L 1246.366234 397.46129 
L 1250.727159 397.348626 
L 1263.809932 397.46129 
L 1272.531781 397.55453 
L 1289.975479 397.45352 
L 1294.336403 397.282581 
L 1298.697328 396.738682 
L 1303.058252 396.447308 
L 1303.058252 396.447308 
" style="fill:none;stroke:#0000ff;stroke-linecap:square;stroke-width:3;"/>
   </g>
   <g id="line2d_11">
    <path clip-path="url(#pb273897833)" d="M 151.774202 348.141328 
L 156.135127 355.93462 
L 160.496051 353.393836 
L 164.856976 352.989797 
L 169.2179 351.010187 
M 199.744371 331.785304 
L 204.105296 321.490289 
L 208.46622 321.983683 
L 212.827145 321.167834 
L 217.188069 312.683014 
L 221.548993 317.869477 
L 225.909918 298.541646 
L 230.270842 303.642639 
L 234.631767 311.101822 
L 238.992691 317.104134 
L 243.353616 301.595249 
L 247.71454 294.116641 
L 252.075464 292.47329 
L 256.436389 299.13605 
L 260.797313 280.515287 
L 265.158238 241.070972 
L 269.519162 250.123002 
L 273.880087 255.593069 
L 278.241011 254.575201 
L 282.601935 242.022795 
L 286.96286 228.029057 
L 291.323784 199.027598 
L 295.684709 184.470536 
L 300.045633 165.50401 
L 304.406558 152.749584 
L 308.767482 89.933162 
L 313.128406 84.237765 
L 317.489331 74.812776 
L 321.850255 93.367494 
L 326.21118 124.839807 
L 330.572104 136.89882 
L 334.933029 147.71852 
L 339.293953 149.357986 
L 343.654877 144.863052 
L 348.015802 119.48629 
L 352.376726 110.865494 
L 356.737651 115.457554 
L 361.098575 124.680523 
L 365.4595 129.478487 
L 369.820424 142.570907 
L 374.181348 159.750338 
L 378.542273 172.015255 
L 382.903197 180.884689 
L 387.264122 183.479864 
L 391.625046 179.699767 
L 395.985971 181.583988 
L 400.346895 182.66013 
L 404.707819 176.335365 
L 409.068744 177.595393 
L 413.429668 176.358675 
L 417.790593 178.64305 
L 422.151517 175.402967 
L 426.512442 172.357134 
L 430.873366 174.171425 
L 435.23429 173.85674 
L 439.595215 170.282549 
L 443.956139 170.593348 
L 448.317064 174.194735 
L 452.677988 188.429342 
L 457.038913 190.876887 
L 461.399837 192.528008 
L 465.760761 187.741699 
L 470.121686 180.123231 
L 474.48261 180.437915 
L 478.843535 178.118576 
L 483.204459 176.203275 
L 487.565384 181.642263 
L 491.926308 186.102233 
L 496.287232 178.561465 
L 500.648157 179.206373 
L 505.009081 176.25378 
L 509.370006 177.283303 
L 513.73093 162.652426 
L 518.091855 159.311334 
L 522.452779 169.995059 
L 526.813703 171.253796 
L 531.174628 165.527319 
L 535.535552 144.781467 
L 539.896477 131.009173 
L 544.257401 144.851397 
L 548.618326 150.1311 
L 552.97925 162.598036 
L 557.340174 162.978765 
L 561.701099 166.040138 
L 566.062023 169.458931 
L 570.422948 165.597249 
L 574.783872 157.625248 
L 579.144797 172.469799 
L 583.505721 174.016025 
L 587.866646 181.607298 
L 592.22757 182.357101 
L 596.588494 171.657835 
L 600.949419 159.734798 
L 605.310343 184.027647 
L 609.671268 171.382001 
L 614.032192 159.559973 
L 618.393117 159.237519 
L 622.754041 158.386706 
L 627.114965 166.246043 
L 631.47589 155.678867 
L 635.836814 155.931391 
L 640.197739 144.268648 
L 644.558663 148.549908 
L 648.919588 151.560776 
L 653.280512 167.970979 
L 657.641436 163.332299 
L 662.002361 161.529664 
L 666.363285 165.795384 
L 670.72421 162.143492 
L 679.446059 159.392918 
L 683.806983 160.624461 
L 688.167907 158.087561 
L 692.528832 161.350954 
L 696.889756 161.273254 
L 701.250681 158.231306 
L 705.611605 157.333873 
L 709.97253 164.773631 
L 714.333454 156.180031 
L 718.694378 152.947718 
L 723.055303 165.445735 
L 727.416227 168.472143 
L 731.777152 175.088283 
L 736.138076 223.083463 
L 740.499001 202.858199 
L 744.859925 218.553564 
L 749.220849 192.077349 
L 753.581774 196.214864 
L 757.942698 195.686506 
L 762.303623 196.871428 
L 766.664547 199.862871 
L 771.025472 199.781286 
L 775.386396 202.590135 
L 779.74732 210.721421 
L 784.108245 224.299465 
L 788.469169 231.311874 
L 797.191018 241.269107 
L 801.551943 244.25278 
L 805.912867 248.005681 
L 814.634716 249.874362 
L 818.99564 255.15018 
L 823.356565 259.629575 
L 827.717489 266.358379 
L 832.078414 276.268992 
L 836.439338 281.774024 
L 840.800262 284.423588 
L 849.522111 294.070021 
L 858.24396 302.150803 
L 862.604885 296.529221 
L 866.965809 288.557219 
L 871.326733 259.307121 
L 875.687658 271.758517 
L 880.048582 277.372329 
L 884.409507 271.517648 
L 888.770431 266.937243 
L 893.131356 269.345938 
L 897.49228 275.352134 
L 901.853204 274.753845 
L 906.214129 274.326496 
L 910.575053 276.533171 
L 914.935978 295.818267 
L 919.296902 306.964307 
L 923.657827 298.81748 
L 928.018751 303.22306 
L 932.379675 313.627067 
L 936.7406 322.100232 
L 941.101524 329.201996 
L 945.462449 318.693095 
L 949.823373 315.153868 
L 954.184298 315.103363 
L 958.545222 315.480207 
L 962.906147 309.365231 
L 967.267071 305.429735 
L 971.627995 302.484912 
L 975.98892 301.816694 
L 980.349844 303.052121 
L 984.710769 305.118936 
L 989.071693 305.670605 
L 993.432618 303.226945 
L 997.793542 297.411114 
L 1002.154466 295.752222 
L 1006.515391 299.12828 
L 1010.876315 317.659687 
L 1015.23724 317.181834 
L 1019.598164 311.839971 
L 1023.959089 302.422752 
L 1028.320013 306.059104 
L 1032.680937 302.267353 
L 1037.041862 293.902967 
L 1041.402786 306.315513 
L 1045.763711 328.510468 
L 1050.124635 332.912163 
L 1054.48556 340.184866 
L 1058.846484 340.118821 
L 1063.207408 339.839102 
L 1067.568333 339.431178 
L 1071.929257 338.502665 
L 1076.290182 336.777729 
L 1080.651106 337.302203 
L 1085.012031 343.634738 
L 1089.372955 376.047219 
L 1093.733879 385.359543 
L 1098.094804 388.238321 
L 1102.455728 396.268598 
L 1106.816653 396.039384 
L 1115.538502 397.099986 
L 1119.899426 396.948472 
L 1124.26035 397.119411 
L 1128.621275 396.668752 
L 1132.982199 395.817939 
L 1137.343124 396.812497 
L 1141.704048 397.5623 
L 1150.425897 397.535105 
L 1159.147746 397.068906 
L 1163.50867 396.843577 
L 1167.869595 396.113198 
L 1172.230519 394.462077 
L 1176.591444 393.31989 
L 1180.952368 393.650114 
L 1185.313292 394.524237 
L 1189.674217 395.817939 
L 1194.035141 396.680407 
L 1198.396066 396.594937 
L 1202.75699 396.699832 
L 1211.478839 396.190898 
L 1215.839763 395.44498 
L 1220.200688 395.903409 
L 1224.561612 396.804727 
L 1228.922537 397.542875 
L 1233.283461 397.465175 
L 1242.00531 397.092216 
L 1246.366234 396.987321 
L 1250.727159 395.42944 
L 1255.088083 396.167588 
L 1259.449008 397.333086 
L 1272.531781 397.527335 
L 1276.892705 397.488485 
L 1281.25363 396.789187 
L 1285.614554 394.803956 
L 1289.975479 391.890213 
L 1294.336403 390.305137 
L 1298.697328 380.592659 
L 1303.058252 390.596511 
L 1303.058252 390.596511 
" style="fill:none;stroke:#ff0000;stroke-linecap:square;stroke-width:3;"/>
   </g>
   <g id="line2d_12">
    <path clip-path="url(#pb273897833)" d="M 151.774202 375.20328 
L 156.135127 375.744856 
L 160.496051 372.804872 
L 164.856976 370.096992 
L 169.2179 364.294392 
L 173.578825 362.360192 
L 177.939749 361.509144 
L 182.300673 351.528672 
L 186.661598 354.31392 
L 191.022522 345.571336 
L 195.383447 343.09556 
L 199.744371 348.51132 
L 204.105296 341.006624 
L 208.46622 347.273432 
L 212.827145 343.405032 
L 217.188069 343.637136 
L 221.548993 337.370328 
L 225.909918 334.97192 
L 230.270842 329.091952 
L 234.631767 327.699328 
L 238.992691 331.722464 
L 243.353616 324.295136 
L 247.71454 330.097736 
L 252.075464 328.937216 
L 256.436389 314.624136 
L 260.797313 291.026896 
L 265.158238 279.034856 
L 269.519162 289.556904 
L 273.880087 290.562688 
L 278.241011 278.570648 
L 282.601935 267.042816 
L 286.96286 241.124536 
L 291.323784 224.026208 
L 295.684709 213.272056 
L 300.045633 192.846904 
L 304.406558 158.57288 
L 308.767482 121.281504 
L 313.128406 101.630032 
L 317.489331 117.645208 
L 321.850255 128.863568 
L 326.21118 185.496944 
L 330.572104 213.272056 
L 334.933029 221.008856 
L 339.293953 219.848336 
L 343.654877 194.316896 
L 348.015802 162.209176 
L 352.376726 169.636504 
L 356.737651 159.191824 
L 361.098575 170.255448 
L 365.4595 173.2728 
L 374.181348 186.270624 
L 378.542273 190.216392 
L 382.903197 193.233744 
L 387.264122 195.941624 
L 391.625046 190.371128 
L 395.985971 190.448496 
L 400.346895 177.1412 
L 404.707819 175.748576 
L 409.068744 179.46224 
L 413.429668 173.504904 
L 417.790593 170.797024 
L 422.151517 173.427536 
L 426.512442 169.79124 
L 430.873366 176.986464 
L 435.23429 172.731224 
L 439.595215 173.427536 
L 443.956139 178.843296 
L 448.317064 189.13324 
L 452.677988 193.543216 
L 457.038913 195.167944 
L 461.399837 197.64372 
L 465.760761 195.167944 
L 470.121686 198.185296 
L 474.48261 192.460064 
L 478.843535 191.45428 
L 483.204459 200.661072 
L 487.565384 200.661072 
L 491.926308 199.732656 
L 496.287232 200.428968 
L 500.648157 192.22796 
L 505.009081 173.350168 
L 509.370006 173.118064 
L 513.73093 167.005992 
L 518.091855 170.95176 
L 522.452779 171.029128 
L 526.813703 162.673384 
L 531.174628 151.841864 
L 535.535552 132.964072 
L 539.896477 124.376224 
L 544.257401 123.447808 
L 548.618326 136.058792 
L 552.97925 142.248232 
L 557.340174 145.03348 
L 561.701099 149.752928 
L 566.062023 150.83608 
L 570.422948 157.180256 
L 574.783872 152.77028 
L 579.144797 161.822336 
L 583.505721 164.220744 
L 587.866646 167.624936 
L 592.22757 134.5888 
L 596.588494 163.21496 
L 600.949419 164.607584 
L 605.310343 154.240272 
L 609.671268 145.03348 
L 614.032192 137.760888 
L 618.393117 129.94672 
L 622.754041 123.679912 
L 627.114965 117.877312 
L 631.47589 107.355264 
L 635.836814 97.839 
L 640.197739 105.807904 
L 644.558663 111.533136 
L 648.919588 127.393576 
L 653.280512 134.434064 
L 657.641436 136.600368 
L 662.002361 139.23088 
L 666.363285 136.445632 
L 670.72421 139.153512 
L 675.085134 135.285112 
L 679.446059 138.921408 
L 683.806983 143.563488 
L 688.167907 147.663992 
L 692.528832 149.28872 
L 696.889756 143.950328 
L 701.250681 148.050832 
L 705.611605 140.700872 
L 709.97253 91.26272 
L 714.333454 95.9048 
L 718.694378 132.6546 
L 723.055303 131.339344 
L 727.416227 145.03348 
L 731.777152 146.116632 
L 736.138076 161.744968 
L 740.499001 147.431888 
L 744.859925 161.977072 
L 749.220849 168.475984 
L 757.942698 171.802808 
L 762.303623 176.676992 
L 766.664547 178.998032 
L 771.025472 177.52804 
L 775.386396 192.382696 
L 779.74732 203.910528 
L 784.108245 218.455712 
L 788.469169 226.424616 
L 792.830094 229.287232 
L 797.191018 233.078264 
L 801.551943 241.820848 
L 805.912867 237.87508 
L 810.273791 235.399304 
L 814.634716 238.958232 
L 818.99564 233.61984 
L 823.356565 256.211296 
L 827.717489 257.449184 
L 832.078414 257.21708 
L 836.439338 273.46436 
L 840.800262 274.005936 
L 845.161187 286.152712 
L 849.522111 291.491104 
L 853.883036 284.063776 
L 858.24396 282.516416 
L 862.604885 281.510632 
L 866.965809 273.309624 
L 871.326733 275.862768 
L 875.687658 288.860592 
L 880.048582 289.3248 
L 884.409507 281.897472 
L 888.770431 268.899648 
L 893.131356 275.475928 
L 897.49228 283.754304 
L 901.853204 264.876512 
L 906.214129 266.733344 
L 910.575053 284.218512 
L 914.935978 295.591608 
L 919.296902 291.568472 
L 923.657827 293.812144 
L 928.018751 320.194632 
L 932.379675 338.144008 
L 936.7406 336.828752 
L 941.101524 327.003016 
L 945.462449 316.326232 
L 949.823373 318.3378 
L 954.184298 320.813576 
L 958.545222 310.910472 
L 967.267071 307.274176 
L 971.627995 309.285744 
L 975.98892 310.98784 
L 980.349844 309.44048 
L 984.710769 308.821536 
L 989.071693 307.428912 
L 993.432618 309.904688 
L 997.793542 306.113656 
L 1002.154466 308.125224 
L 1006.515391 311.606784 
L 1010.876315 308.434696 
L 1015.23724 306.964704 
L 1023.959089 301.31684 
L 1028.320013 303.173672 
L 1032.680937 297.44844 
L 1037.041862 309.82732 
L 1041.402786 327.080384 
L 1045.763711 328.318272 
L 1050.124635 343.09556 
L 1054.48556 354.778128 
L 1058.846484 354.623392 
L 1063.207408 353.617608 
L 1067.568333 355.0876 
L 1071.929257 352.998664 
L 1076.290182 359.34284 
L 1080.651106 360.580728 
L 1085.012031 373.733288 
L 1089.372955 382.630608 
L 1093.733879 386.80848 
L 1098.094804 388.820048 
L 1102.455728 391.373192 
L 1111.177577 394.700016 
L 1115.538502 389.825832 
L 1119.899426 389.671096 
L 1124.26035 388.433208 
L 1128.621275 389.671096 
L 1132.982199 392.920552 
L 1137.343124 393.848968 
L 1141.704048 391.992136 
L 1146.064973 393.38476 
L 1150.425897 393.152656 
L 1154.786821 390.831616 
L 1159.147746 389.9032 
L 1163.50867 391.295824 
L 1167.869595 388.974784 
L 1172.230519 389.9032 
L 1176.591444 388.433208 
L 1180.952368 388.433208 
L 1185.313292 390.986352 
L 1189.674217 391.45056 
L 1194.035141 390.67688 
L 1198.396066 391.373192 
L 1202.75699 392.22424 
L 1211.478839 392.146872 
L 1215.839763 385.183752 
L 1220.200688 388.201104 
L 1224.561612 391.605296 
L 1228.922537 392.765816 
L 1233.283461 390.367408 
L 1237.644386 390.67688 
L 1242.00531 388.665312 
L 1246.366234 389.284256 
L 1250.727159 392.069504 
L 1255.088083 390.522144 
L 1259.449008 391.06372 
L 1263.809932 388.897416 
L 1268.170857 391.218456 
L 1272.531781 392.920552 
L 1276.892705 391.760032 
L 1281.25363 387.040584 
L 1285.614554 386.885848 
L 1289.975479 387.19532 
L 1294.336403 386.112168 
L 1298.697328 383.017448 
L 1303.058252 388.974784 
L 1303.058252 388.974784 
" style="fill:none;stroke:#008000;stroke-linecap:square;stroke-width:3;"/>
   </g>
   <g id="patch_3">
    <path d="M 94.21 397.64 
L 94.21 10.8 
" style="fill:none;stroke:#000000;stroke-linecap:square;stroke-linejoin:miter;stroke-width:0.8;"/>
   </g>
   <g id="patch_4">
    <path d="M 1360.622455 397.64 
L 1360.622455 10.8 
" style="fill:none;stroke:#000000;stroke-linecap:square;stroke-linejoin:miter;stroke-width:0.8;"/>
   </g>
   <g id="patch_5">
    <path d="M 94.21 397.64 
L 1360.622455 397.64 
" style="fill:none;stroke:#000000;stroke-linecap:square;stroke-linejoin:miter;stroke-width:0.8;"/>
   </g>
   <g id="patch_6">
    <path d="M 94.21 10.8 
L 1360.622455 10.8 
" style="fill:none;stroke:#000000;stroke-linecap:square;stroke-linejoin:miter;stroke-width:0.8;"/>
   </g>
  </g>
 </g>
 <defs>
  <clipPath id="pb273897833">
   <rect height="386.84" width="1266.412455" x="94.21" y="10.8"/>
  </clipPath>
 </defs>
</svg>
