<?xml version="1.0" encoding="utf-8" standalone="no"?>
<!DOCTYPE svg PUBLIC "-//W3C//DTD SVG 1.1//EN"
  "http://www.w3.org/Graphics/SVG/1.1/DTD/svg11.dtd">
<!-- Created with matplotlib (https://matplotlib.org/) -->
<svg height="454.32pt" version="1.1" viewBox="0 0 1380.96 454.32" width="1380.96pt" xmlns="http://www.w3.org/2000/svg" xmlns:xlink="http://www.w3.org/1999/xlink">
 <metadata>
  <rdf:RDF xmlns:cc="http://creativecommons.org/ns#" xmlns:dc="http://purl.org/dc/elements/1.1/" xmlns:rdf="http://www.w3.org/1999/02/22-rdf-syntax-ns#">
   <cc:Work>
    <dc:type rdf:resource="http://purl.org/dc/dcmitype/StillImage"/>
    <dc:date>2021-07-08T17:37:31.367929</dc:date>
    <dc:format>image/svg+xml</dc:format>
    <dc:creator>
     <cc:Agent>
      <dc:title>Matplotlib v3.3.2, https://matplotlib.org/</dc:title>
     </cc:Agent>
    </dc:creator>
   </cc:Work>
  </rdf:RDF>
 </metadata>
 <defs>
  <style type="text/css">*{stroke-linecap:butt;stroke-linejoin:round;}</style>
 </defs>
 <g id="figure_1">
  <g id="patch_1">
   <path d="M 0 454.32 
L 1380.96 454.32 
L 1380.96 0 
L 0 0 
z
" style="fill:#ffffff;"/>
  </g>
  <g id="axes_1">
   <g id="patch_2">
    <path d="M 94.21 397.64 
L 1360.622455 397.64 
L 1360.622455 10.8 
L 94.21 10.8 
z
" style="fill:#ffffff;"/>
   </g>
   <g id="matplotlib.axis_1">
    <g id="xtick_1">
     <g id="line2d_1">
      <defs>
       <path d="M 0 0 
L 0 3.5 
" id="mc6e0683ed7" style="stroke:#000000;stroke-width:0.8;"/>
      </defs>
      <g>
       <use style="stroke:#000000;stroke-width:0.8;" x="256.436389" xlink:href="#mc6e0683ed7" y="397.64"/>
      </g>
     </g>
     <g id="text_1">
      <!-- 09-11 -->
      <g transform="translate(198.320764 435.03375)scale(0.4 -0.4)">
       <defs>
        <path d="M 31.78125 66.40625 
Q 24.171875 66.40625 20.328125 58.90625 
Q 16.5 51.421875 16.5 36.375 
Q 16.5 21.390625 20.328125 13.890625 
Q 24.171875 6.390625 31.78125 6.390625 
Q 39.453125 6.390625 43.28125 13.890625 
Q 47.125 21.390625 47.125 36.375 
Q 47.125 51.421875 43.28125 58.90625 
Q 39.453125 66.40625 31.78125 66.40625 
z
M 31.78125 74.21875 
Q 44.046875 74.21875 50.515625 64.515625 
Q 56.984375 54.828125 56.984375 36.375 
Q 56.984375 17.96875 50.515625 8.265625 
Q 44.046875 -1.421875 31.78125 -1.421875 
Q 19.53125 -1.421875 13.0625 8.265625 
Q 6.59375 17.96875 6.59375 36.375 
Q 6.59375 54.828125 13.0625 64.515625 
Q 19.53125 74.21875 31.78125 74.21875 
z
" id="DejaVuSans-48"/>
        <path d="M 10.984375 1.515625 
L 10.984375 10.5 
Q 14.703125 8.734375 18.5 7.8125 
Q 22.3125 6.890625 25.984375 6.890625 
Q 35.75 6.890625 40.890625 13.453125 
Q 46.046875 20.015625 46.78125 33.40625 
Q 43.953125 29.203125 39.59375 26.953125 
Q 35.25 24.703125 29.984375 24.703125 
Q 19.046875 24.703125 12.671875 31.3125 
Q 6.296875 37.9375 6.296875 49.421875 
Q 6.296875 60.640625 12.9375 67.421875 
Q 19.578125 74.21875 30.609375 74.21875 
Q 43.265625 74.21875 49.921875 64.515625 
Q 56.59375 54.828125 56.59375 36.375 
Q 56.59375 19.140625 48.40625 8.859375 
Q 40.234375 -1.421875 26.421875 -1.421875 
Q 22.703125 -1.421875 18.890625 -0.6875 
Q 15.09375 0.046875 10.984375 1.515625 
z
M 30.609375 32.421875 
Q 37.25 32.421875 41.125 36.953125 
Q 45.015625 41.5 45.015625 49.421875 
Q 45.015625 57.28125 41.125 61.84375 
Q 37.25 66.40625 30.609375 66.40625 
Q 23.96875 66.40625 20.09375 61.84375 
Q 16.21875 57.28125 16.21875 49.421875 
Q 16.21875 41.5 20.09375 36.953125 
Q 23.96875 32.421875 30.609375 32.421875 
z
" id="DejaVuSans-57"/>
        <path d="M 4.890625 31.390625 
L 31.203125 31.390625 
L 31.203125 23.390625 
L 4.890625 23.390625 
z
" id="DejaVuSans-45"/>
        <path d="M 12.40625 8.296875 
L 28.515625 8.296875 
L 28.515625 63.921875 
L 10.984375 60.40625 
L 10.984375 69.390625 
L 28.421875 72.90625 
L 38.28125 72.90625 
L 38.28125 8.296875 
L 54.390625 8.296875 
L 54.390625 0 
L 12.40625 0 
z
" id="DejaVuSans-49"/>
       </defs>
       <use xlink:href="#DejaVuSans-48"/>
       <use x="63.623047" xlink:href="#DejaVuSans-57"/>
       <use x="127.246094" xlink:href="#DejaVuSans-45"/>
       <use x="163.330078" xlink:href="#DejaVuSans-49"/>
       <use x="226.953125" xlink:href="#DejaVuSans-49"/>
      </g>
     </g>
    </g>
    <g id="xtick_2">
     <g id="line2d_2">
      <g>
       <use style="stroke:#000000;stroke-width:0.8;" x="465.760761" xlink:href="#mc6e0683ed7" y="397.64"/>
      </g>
     </g>
     <g id="text_2">
      <!-- 09-13 -->
      <g transform="translate(407.645136 435.03375)scale(0.4 -0.4)">
       <defs>
        <path d="M 40.578125 39.3125 
Q 47.65625 37.796875 51.625 33 
Q 55.609375 28.21875 55.609375 21.1875 
Q 55.609375 10.40625 48.1875 4.484375 
Q 40.765625 -1.421875 27.09375 -1.421875 
Q 22.515625 -1.421875 17.65625 -0.515625 
Q 12.796875 0.390625 7.625 2.203125 
L 7.625 11.71875 
Q 11.71875 9.328125 16.59375 8.109375 
Q 21.484375 6.890625 26.8125 6.890625 
Q 36.078125 6.890625 40.9375 10.546875 
Q 45.796875 14.203125 45.796875 21.1875 
Q 45.796875 27.640625 41.28125 31.265625 
Q 36.765625 34.90625 28.71875 34.90625 
L 20.21875 34.90625 
L 20.21875 43.015625 
L 29.109375 43.015625 
Q 36.375 43.015625 40.234375 45.921875 
Q 44.09375 48.828125 44.09375 54.296875 
Q 44.09375 59.90625 40.109375 62.90625 
Q 36.140625 65.921875 28.71875 65.921875 
Q 24.65625 65.921875 20.015625 65.03125 
Q 15.375 64.15625 9.8125 62.3125 
L 9.8125 71.09375 
Q 15.4375 72.65625 20.34375 73.4375 
Q 25.25 74.21875 29.59375 74.21875 
Q 40.828125 74.21875 47.359375 69.109375 
Q 53.90625 64.015625 53.90625 55.328125 
Q 53.90625 49.265625 50.4375 45.09375 
Q 46.96875 40.921875 40.578125 39.3125 
z
" id="DejaVuSans-51"/>
       </defs>
       <use xlink:href="#DejaVuSans-48"/>
       <use x="63.623047" xlink:href="#DejaVuSans-57"/>
       <use x="127.246094" xlink:href="#DejaVuSans-45"/>
       <use x="163.330078" xlink:href="#DejaVuSans-49"/>
       <use x="226.953125" xlink:href="#DejaVuSans-51"/>
      </g>
     </g>
    </g>
    <g id="xtick_3">
     <g id="line2d_3">
      <g>
       <use style="stroke:#000000;stroke-width:0.8;" x="675.085134" xlink:href="#mc6e0683ed7" y="397.64"/>
      </g>
     </g>
     <g id="text_3">
      <!-- 09-15 -->
      <g transform="translate(616.969509 435.03375)scale(0.4 -0.4)">
       <defs>
        <path d="M 10.796875 72.90625 
L 49.515625 72.90625 
L 49.515625 64.59375 
L 19.828125 64.59375 
L 19.828125 46.734375 
Q 21.96875 47.46875 24.109375 47.828125 
Q 26.265625 48.1875 28.421875 48.1875 
Q 40.625 48.1875 47.75 41.5 
Q 54.890625 34.8125 54.890625 23.390625 
Q 54.890625 11.625 47.5625 5.09375 
Q 40.234375 -1.421875 26.90625 -1.421875 
Q 22.3125 -1.421875 17.546875 -0.640625 
Q 12.796875 0.140625 7.71875 1.703125 
L 7.71875 11.625 
Q 12.109375 9.234375 16.796875 8.0625 
Q 21.484375 6.890625 26.703125 6.890625 
Q 35.15625 6.890625 40.078125 11.328125 
Q 45.015625 15.765625 45.015625 23.390625 
Q 45.015625 31 40.078125 35.4375 
Q 35.15625 39.890625 26.703125 39.890625 
Q 22.75 39.890625 18.8125 39.015625 
Q 14.890625 38.140625 10.796875 36.28125 
z
" id="DejaVuSans-53"/>
       </defs>
       <use xlink:href="#DejaVuSans-48"/>
       <use x="63.623047" xlink:href="#DejaVuSans-57"/>
       <use x="127.246094" xlink:href="#DejaVuSans-45"/>
       <use x="163.330078" xlink:href="#DejaVuSans-49"/>
       <use x="226.953125" xlink:href="#DejaVuSans-53"/>
      </g>
     </g>
    </g>
    <g id="xtick_4">
     <g id="line2d_4">
      <g>
       <use style="stroke:#000000;stroke-width:0.8;" x="884.409507" xlink:href="#mc6e0683ed7" y="397.64"/>
      </g>
     </g>
     <g id="text_4">
      <!-- 09-17 -->
      <g transform="translate(826.293882 435.03375)scale(0.4 -0.4)">
       <defs>
        <path d="M 8.203125 72.90625 
L 55.078125 72.90625 
L 55.078125 68.703125 
L 28.609375 0 
L 18.3125 0 
L 43.21875 64.59375 
L 8.203125 64.59375 
z
" id="DejaVuSans-55"/>
       </defs>
       <use xlink:href="#DejaVuSans-48"/>
       <use x="63.623047" xlink:href="#DejaVuSans-57"/>
       <use x="127.246094" xlink:href="#DejaVuSans-45"/>
       <use x="163.330078" xlink:href="#DejaVuSans-49"/>
       <use x="226.953125" xlink:href="#DejaVuSans-55"/>
      </g>
     </g>
    </g>
    <g id="xtick_5">
     <g id="line2d_5">
      <g>
       <use style="stroke:#000000;stroke-width:0.8;" x="1093.733879" xlink:href="#mc6e0683ed7" y="397.64"/>
      </g>
     </g>
     <g id="text_5">
      <!-- 09-19 -->
      <g transform="translate(1035.618254 435.03375)scale(0.4 -0.4)">
       <use xlink:href="#DejaVuSans-48"/>
       <use x="63.623047" xlink:href="#DejaVuSans-57"/>
       <use x="127.246094" xlink:href="#DejaVuSans-45"/>
       <use x="163.330078" xlink:href="#DejaVuSans-49"/>
       <use x="226.953125" xlink:href="#DejaVuSans-57"/>
      </g>
     </g>
    </g>
    <g id="xtick_6">
     <g id="line2d_6">
      <g>
       <use style="stroke:#000000;stroke-width:0.8;" x="1303.058252" xlink:href="#mc6e0683ed7" y="397.64"/>
      </g>
     </g>
     <g id="text_6">
      <!-- 09-21 -->
      <g transform="translate(1244.942627 435.03375)scale(0.4 -0.4)">
       <defs>
        <path d="M 19.1875 8.296875 
L 53.609375 8.296875 
L 53.609375 0 
L 7.328125 0 
L 7.328125 8.296875 
Q 12.9375 14.109375 22.625 23.890625 
Q 32.328125 33.6875 34.8125 36.53125 
Q 39.546875 41.84375 41.421875 45.53125 
Q 43.3125 49.21875 43.3125 52.78125 
Q 43.3125 58.59375 39.234375 62.25 
Q 35.15625 65.921875 28.609375 65.921875 
Q 23.96875 65.921875 18.8125 64.3125 
Q 13.671875 62.703125 7.8125 59.421875 
L 7.8125 69.390625 
Q 13.765625 71.78125 18.9375 73 
Q 24.125 74.21875 28.421875 74.21875 
Q 39.75 74.21875 46.484375 68.546875 
Q 53.21875 62.890625 53.21875 53.421875 
Q 53.21875 48.921875 51.53125 44.890625 
Q 49.859375 40.875 45.40625 35.40625 
Q 44.1875 33.984375 37.640625 27.21875 
Q 31.109375 20.453125 19.1875 8.296875 
z
" id="DejaVuSans-50"/>
       </defs>
       <use xlink:href="#DejaVuSans-48"/>
       <use x="63.623047" xlink:href="#DejaVuSans-57"/>
       <use x="127.246094" xlink:href="#DejaVuSans-45"/>
       <use x="163.330078" xlink:href="#DejaVuSans-50"/>
       <use x="226.953125" xlink:href="#DejaVuSans-49"/>
      </g>
     </g>
    </g>
   </g>
   <g id="matplotlib.axis_2">
    <g id="ytick_1">
     <g id="line2d_7">
      <defs>
       <path d="M 0 0 
L -3.5 0 
" id="m9c108b7a55" style="stroke:#000000;stroke-width:0.8;"/>
      </defs>
      <g>
       <use style="stroke:#000000;stroke-width:0.8;" x="94.21" xlink:href="#m9c108b7a55" y="397.64"/>
      </g>
     </g>
     <g id="text_7">
      <!-- 0 -->
      <g transform="translate(61.76 412.836875)scale(0.4 -0.4)">
       <use xlink:href="#DejaVuSans-48"/>
      </g>
     </g>
    </g>
    <g id="ytick_2">
     <g id="line2d_8">
      <g>
       <use style="stroke:#000000;stroke-width:0.8;" x="94.21" xlink:href="#m9c108b7a55" y="242.904"/>
      </g>
     </g>
     <g id="text_8">
      <!-- 100 -->
      <g transform="translate(10.86 258.100875)scale(0.4 -0.4)">
       <use xlink:href="#DejaVuSans-49"/>
       <use x="63.623047" xlink:href="#DejaVuSans-48"/>
       <use x="127.246094" xlink:href="#DejaVuSans-48"/>
      </g>
     </g>
    </g>
    <g id="ytick_3">
     <g id="line2d_9">
      <g>
       <use style="stroke:#000000;stroke-width:0.8;" x="94.21" xlink:href="#m9c108b7a55" y="88.168"/>
      </g>
     </g>
     <g id="text_9">
      <!-- 200 -->
      <g transform="translate(10.86 103.364875)scale(0.4 -0.4)">
       <use xlink:href="#DejaVuSans-50"/>
       <use x="63.623047" xlink:href="#DejaVuSans-48"/>
       <use x="127.246094" xlink:href="#DejaVuSans-48"/>
      </g>
     </g>
    </g>
   </g>
   <g id="line2d_10">
    <path clip-path="url(#p9972c0faca)" d="M 151.774202 354.761353 
L 156.135127 356.754353 
L 160.496051 356.396934 
L 164.856976 356.626149 
L 169.2179 357.259402 
L 173.578825 358.374395 
L 177.939749 360.4956 
L 182.300673 362.865444 
L 186.661598 365.868542 
L 191.022522 366.991305 
L 195.383447 359.908966 
L 199.744371 354.714733 
L 204.105296 350.219798 
L 208.46622 339.710897 
L 212.827145 337.826676 
L 217.188069 338.38223 
L 221.548993 336.797154 
L 225.909918 333.024827 
L 230.270842 321.952603 
L 234.631767 319.384624 
L 238.992691 325.581184 
L 243.353616 323.2735 
L 247.71454 325.845364 
L 252.075464 326.529122 
L 256.436389 326.342643 
L 260.797313 327.018631 
L 265.158238 323.673654 
L 269.519162 318.92231 
L 273.880087 314.742059 
L 278.241011 310.771598 
L 282.601935 308.044334 
L 286.96286 301.715684 
L 295.684709 261.661425 
L 300.045633 261.105871 
L 304.406558 261.428326 
L 308.767482 244.975388 
L 313.128406 207.803793 
L 317.489331 204.754075 
L 321.850255 222.13164 
L 326.21118 371.601535 
L 330.572104 244.567464 
L 334.933029 248.991945 
L 339.293953 261.415887 
L 343.654877 291.331059 
L 348.015802 306.770057 
L 352.376726 314.982539 
L 356.737651 319.493403 
L 361.098575 322.333332 
L 365.4595 324.229207 
L 369.820424 321.801088 
L 374.181348 312.769717 
L 378.542273 310.911458 
L 382.903197 324.808071 
L 387.264122 320.309251 
L 391.625046 307.76073 
L 395.985971 298.798055 
L 400.346895 292.878813 
L 404.707819 288.815104 
L 409.068744 284.338118 
L 413.429668 279.446915 
L 417.790593 277.080955 
L 422.151517 271.183538 
L 426.512442 268.25037 
L 430.873366 266.948898 
L 439.595215 260.542254 
L 443.956139 263.730216 
L 448.317064 266.474929 
L 452.677988 267.908491 
L 461.399837 316.847724 
L 465.760761 314.003911 
L 470.121686 305.293761 
L 474.48261 299.244829 
L 478.843535 294.563415 
L 483.204459 305.390885 
L 487.565384 328.156934 
L 491.926308 327.053596 
L 496.287232 323.945603 
L 500.648157 321.929293 
L 505.009081 319.672113 
L 509.370006 314.011681 
L 513.73093 309.602216 
L 518.091855 306.999272 
L 522.452779 301.882738 
L 526.813703 299.334184 
L 535.535552 289.128313 
L 539.896477 281.160196 
L 544.257401 262.306334 
L 548.618326 235.022759 
L 552.97925 241.307957 
L 557.340174 275.338748 
L 561.701099 319.668228 
L 566.062023 330.783188 
L 570.422948 335.701586 
L 574.783872 335.433522 
L 579.144797 334.365149 
L 583.505721 334.190325 
L 587.866646 332.692904 
L 592.22757 337.076873 
L 596.588494 335.686046 
L 600.949419 329.357396 
L 605.310343 309.951865 
L 609.671268 302.787941 
L 614.032192 296.035827 
L 618.393117 292.185801 
L 622.754041 288.487289 
L 627.114965 285.861035 
L 635.836814 281.743986 
L 640.197739 285.119002 
L 644.558663 284.497403 
L 648.919588 282.582102 
L 653.280512 284.326463 
L 657.641436 283.541695 
L 662.002361 317.978257 
L 666.363285 331.75832 
L 670.72421 336.606789 
L 675.085134 338.999944 
L 679.446059 337.965234 
L 683.806983 336.749678 
L 688.167907 333.253901 
L 692.528832 336.964874 
L 696.889756 339.936227 
L 705.611605 326.051268 
L 709.97253 321.09402 
L 714.333454 311.292187 
L 718.694378 295.709488 
L 723.055303 284.307039 
L 727.416227 275.787253 
L 731.777152 277.813851 
L 736.138076 280.748824 
L 740.499001 287.679211 
L 744.859925 289.202127 
L 749.220849 288.276742 
L 753.581774 284.831512 
L 757.942698 287.861805 
L 762.303623 323.988338 
L 766.664547 342.55409 
L 771.025472 350.020544 
L 775.386396 353.983521 
L 779.74732 353.648481 
L 784.108245 352.896721 
L 788.469169 350.355773 
L 792.830094 350.056629 
L 797.191018 353.281171 
L 801.551943 357.256494 
L 805.912867 352.574103 
L 810.273791 346.894246 
L 814.634716 335.919146 
L 823.356565 330.620018 
L 827.717489 328.751337 
L 832.078414 325.655238 
L 836.439338 323.374509 
L 840.800262 324.252517 
L 845.161187 325.977453 
L 849.522111 327.36051 
L 853.883036 329.034941 
L 858.24396 327.927719 
L 862.604885 327.014746 
L 866.965809 347.243895 
L 871.326733 366.051137 
L 875.687658 368.786171 
L 880.048582 368.420982 
L 884.409507 366.80094 
L 888.770431 365.367379 
L 893.131356 360.108381 
L 897.49228 356.550862 
L 901.853204 363.172359 
L 906.214129 371.17544 
L 910.575053 367.375919 
L 914.935978 353.020877 
L 919.296902 337.259468 
L 923.657827 336.880903 
L 928.018751 338.503253 
L 936.7406 333.422076 
L 941.101524 332.225407 
L 945.462449 332.896623 
L 949.823373 333.821251 
L 954.184298 333.743551 
L 958.545222 334.699259 
L 962.906147 336.12505 
L 967.267071 333.335627 
L 971.627995 349.24855 
L 975.98892 366.692161 
L 980.349844 373.319955 
L 984.710769 376.326939 
L 989.071693 374.267893 
L 997.793542 370.429869 
L 1002.154466 368.129218 
L 1006.515391 372.762998 
L 1010.876315 376.404638 
L 1015.23724 373.622985 
L 1019.598164 371.078316 
L 1023.959089 356.505714 
L 1028.320013 352.613062 
L 1032.680937 349.23301 
L 1037.041862 341.247294 
L 1041.402786 328.788738 
L 1045.763711 325.713274 
L 1050.124635 327.873784 
L 1054.48556 334.033393 
L 1058.846484 339.458373 
L 1063.207408 343.788146 
L 1067.568333 342.428914 
L 1071.929257 342.452232 
L 1076.290182 366.028578 
L 1080.651106 386.463011 
L 1085.012031 390.689751 
L 1089.372955 390.514926 
L 1093.733879 394.209553 
L 1098.094804 396.089889 
L 1102.455728 396.311333 
L 1106.816653 396.303563 
L 1111.177577 397.115526 
L 1115.538502 397.64 
L 1154.786821 397.60892 
L 1159.147746 397.527335 
L 1167.869595 397.554053 
L 1172.230519 396.866887 
L 1176.591444 362.55076 
L 1180.952368 365.464503 
L 1185.313292 389.146845 
L 1189.674217 395.928868 
L 1194.035141 397.49817 
L 1198.396066 397.62828 
L 1228.922537 397.64 
L 1233.283461 397.375821 
L 1237.644386 397.444665 
L 1242.00531 397.372852 
L 1259.449008 397.584532 
L 1276.892705 397.566185 
L 1285.614554 397.60484 
L 1303.058252 397.64 
L 1303.058252 397.64 
" style="fill:none;stroke:#0000ff;stroke-linecap:square;stroke-width:3;"/>
   </g>
   <g id="line2d_11">
    <path clip-path="url(#p9972c0faca)" d="M 191.022522 332.659563 
L 195.383447 348.824616 
L 199.744371 348.069115 
L 204.105296 336.050458 
L 208.46622 337.682155 
L 212.827145 336.605235 
L 217.188069 331.025352 
L 221.548993 332.037362 
L 225.909918 325.123457 
L 230.270842 323.42989 
L 234.631767 327.220415 
L 238.992691 335.654189 
L 243.353616 350.045751 
L 247.71454 360.875552 
L 252.075464 341.500324 
L 256.436389 336.283558 
L 260.797313 338.09241 
L 265.158238 317.481755 
L 269.519162 293.649665 
L 273.880087 289.593734 
L 278.241011 289.006324 
L 282.601935 288.237096 
L 286.96286 280.81987 
L 291.323784 291.076247 
L 295.684709 295.306118 
L 300.045633 283.396196 
L 304.406558 245.884505 
L 308.767482 221.696521 
L 313.128406 206.274851 
L 317.489331 211.510075 
L 321.850255 209.006468 
L 326.21118 144.194278 
L 330.572104 140.894922 
L 334.933029 163.976431 
L 339.293953 139.08607 
L 343.654877 143.002141 
L 348.015802 121.365848 
L 352.376726 110.946302 
L 356.737651 115.850715 
L 361.098575 124.731805 
L 365.4595 128.703819 
L 369.820424 133.58026 
L 374.181348 146.908888 
L 378.542273 166.046354 
L 382.903197 174.489217 
L 387.264122 173.13724 
L 391.625046 173.98106 
L 395.985971 176.876156 
L 400.346895 171.953095 
L 404.707819 173.575467 
L 409.068744 171.642893 
L 413.429668 164.05685 
L 417.790593 166.078988 
L 422.151517 166.848119 
L 426.512442 164.773631 
L 430.873366 167.483413 
L 435.23429 177.961234 
L 439.595215 173.870338 
L 443.956139 168.037024 
L 448.317064 178.229298 
L 452.677988 183.981027 
L 457.038913 182.564948 
L 461.399837 177.267763 
L 465.760761 180.303883 
L 470.121686 174.12092 
L 474.48261 176.970561 
L 478.843535 173.543999 
L 483.204459 167.30276 
L 487.565384 158.002092 
L 491.926308 180.222298 
L 496.287232 184.109232 
L 500.648157 180.618568 
L 505.009081 171.626756 
L 509.370006 169.581308 
L 513.73093 164.558014 
L 518.091855 162.465946 
L 522.452779 163.054523 
L 526.813703 166.842389 
L 531.174628 164.517222 
L 535.535552 150.111675 
L 539.896477 136.807522 
L 544.257401 161.329587 
L 548.618326 157.42517 
L 552.97925 148.491633 
L 557.340174 151.918196 
L 561.701099 154.307465 
L 566.062023 158.672253 
L 570.422948 162.687391 
L 574.783872 162.495084 
L 579.144797 167.192038 
L 583.505721 173.002042 
L 587.866646 174.388984 
L 592.22757 179.814374 
L 596.588494 178.264263 
L 600.949419 179.155868 
L 605.310343 171.603446 
L 609.671268 162.22702 
L 614.032192 161.754993 
L 618.393117 161.148934 
L 622.754041 157.54172 
L 627.114965 154.289983 
L 631.47589 150.542909 
L 635.836814 155.775992 
L 640.197739 163.637271 
L 644.558663 156.248018 
L 648.919588 159.383206 
L 653.280512 167.728167 
L 657.641436 167.215348 
L 662.002361 160.676908 
L 666.363285 172.261952 
L 670.72421 169.814407 
L 675.085134 169.039351 
L 679.446059 163.718856 
L 683.806983 159.389033 
L 688.167907 157.920507 
L 692.528832 159.849283 
L 696.889756 160.612806 
L 701.250681 164.260812 
L 705.611605 164.901836 
L 709.97253 167.792269 
L 714.333454 172.180367 
L 718.694378 168.206021 
L 723.055303 179.394795 
L 727.416227 179.010181 
L 731.777152 188.229265 
L 736.138076 273.246469 
L 740.499001 276.655548 
L 744.859925 227.320046 
L 749.220849 206.626641 
L 753.581774 200.187268 
L 757.942698 206.236199 
L 762.303623 208.194235 
L 766.664547 204.965807 
L 775.386396 212.028721 
L 779.74732 218.258304 
L 784.108245 229.691833 
L 788.469169 240.787368 
L 792.830094 244.068243 
L 797.191018 243.695284 
L 801.551943 249.604355 
L 805.912867 252.657958 
L 810.273791 255.868903 
L 814.634716 255.979626 
L 818.99564 259.58684 
L 823.356565 270.874682 
L 827.717489 274.784925 
L 832.078414 283.65436 
L 836.439338 290.227765 
L 840.800262 289.417744 
L 845.161187 291.661327 
L 849.522111 297.506296 
L 853.883036 304.732379 
L 858.24396 315.991084 
L 862.604885 303.881566 
L 866.965809 298.339627 
L 871.326733 289.225437 
L 875.687658 287.675326 
L 880.048582 285.839668 
L 884.409507 282.261591 
L 888.770431 280.862994 
L 893.131356 285.868805 
L 897.49228 288.182317 
L 901.853204 284.056457 
L 906.214129 271.568153 
L 910.575053 282.127559 
L 914.935978 289.837323 
L 919.296902 302.797654 
L 923.657827 298.537761 
L 928.018751 311.410679 
L 932.379675 309.545883 
L 936.7406 319.306924 
L 941.101524 324.06798 
L 945.462449 322.570316 
L 949.823373 318.904827 
L 954.184298 308.9981 
L 958.545222 315.023721 
L 962.906147 313.362887 
L 967.267071 310.903688 
L 971.627995 309.347749 
L 975.98892 306.364076 
L 980.349844 305.717225 
L 984.710769 306.230044 
L 989.071693 306.387386 
L 993.432618 304.516762 
L 997.793542 301.445677 
L 1002.154466 299.726568 
L 1006.515391 299.347782 
L 1010.876315 303.922359 
L 1015.23724 315.245165 
L 1019.598164 312.622796 
L 1023.959089 301.410712 
L 1028.320013 304.481798 
L 1032.680937 306.999272 
L 1037.041862 304.167113 
L 1041.402786 313.036548 
L 1045.763711 331.492198 
L 1050.124635 332.308047 
L 1054.48556 338.770729 
L 1058.846484 339.34765 
L 1063.207408 341.002657 
L 1067.568333 339.819677 
L 1071.929257 338.415253 
L 1076.290182 338.51432 
L 1080.651106 337.477027 
L 1085.012031 344.528286 
L 1089.372955 371.917474 
L 1093.733879 382.278745 
L 1098.094804 387.226281 
L 1102.455728 393.933718 
L 1106.816653 396.159818 
L 1111.177577 396.071699 
L 1115.538502 397.218665 
L 1119.899426 397.127181 
L 1124.26035 397.243731 
L 1128.621275 396.940702 
L 1132.982199 396.439538 
L 1137.343124 396.171473 
L 1141.704048 397.243731 
L 1146.064973 397.517623 
L 1154.786821 397.494313 
L 1159.147746 397.214593 
L 1163.50867 397.424383 
L 1167.869595 395.874272 
L 1172.230519 286.195144 
L 1176.591444 374.691357 
L 1180.952368 393.233542 
L 1185.313292 394.242575 
L 1189.674217 395.763549 
L 1194.035141 396.468675 
L 1198.396066 396.434515 
L 1202.75699 396.876599 
L 1207.117915 396.911564 
L 1211.478839 396.282196 
L 1215.839763 396.899909 
L 1220.200688 396.678465 
L 1224.561612 397.43021 
L 1228.922537 397.605035 
L 1242.00531 397.394221 
L 1246.366234 397.138836 
L 1250.727159 396.626017 
L 1255.088083 396.917392 
L 1259.449008 397.5401 
L 1263.809932 397.558415 
L 1268.170857 397.336971 
L 1272.531781 397.522963 
L 1276.892705 397.302006 
L 1285.614554 394.551432 
L 1289.975479 395.979166 
L 1294.336403 392.902253 
L 1298.697328 392.908081 
L 1303.058252 392.756566 
L 1303.058252 392.756566 
" style="fill:none;stroke:#ff0000;stroke-linecap:square;stroke-width:3;"/>
   </g>
   <g id="line2d_12">
    <path clip-path="url(#p9972c0faca)" d="M 151.774202 375.20328 
L 156.135127 375.744856 
L 160.496051 372.804872 
L 164.856976 370.096992 
L 169.2179 364.294392 
L 173.578825 362.360192 
L 177.939749 361.509144 
L 182.300673 351.528672 
L 186.661598 354.31392 
L 191.022522 345.571336 
L 195.383447 343.09556 
L 199.744371 348.51132 
L 204.105296 341.006624 
L 208.46622 347.273432 
L 212.827145 343.405032 
L 217.188069 343.637136 
L 221.548993 337.370328 
L 225.909918 334.97192 
L 230.270842 329.091952 
L 234.631767 327.699328 
L 238.992691 331.722464 
L 243.353616 324.295136 
L 247.71454 330.097736 
L 252.075464 328.937216 
L 256.436389 314.624136 
L 260.797313 291.026896 
L 265.158238 279.034856 
L 269.519162 289.556904 
L 273.880087 290.562688 
L 278.241011 278.570648 
L 282.601935 267.042816 
L 286.96286 241.124536 
L 291.323784 224.026208 
L 295.684709 213.272056 
L 300.045633 192.846904 
L 304.406558 158.57288 
L 308.767482 121.281504 
L 313.128406 101.630032 
L 317.489331 117.645208 
L 321.850255 128.863568 
L 326.21118 185.496944 
L 330.572104 213.272056 
L 334.933029 221.008856 
L 339.293953 219.848336 
L 343.654877 194.316896 
L 348.015802 162.209176 
L 352.376726 169.636504 
L 356.737651 159.191824 
L 361.098575 170.255448 
L 365.4595 173.2728 
L 374.181348 186.270624 
L 378.542273 190.216392 
L 382.903197 193.233744 
L 387.264122 195.941624 
L 391.625046 190.371128 
L 395.985971 190.448496 
L 400.346895 177.1412 
L 404.707819 175.748576 
L 409.068744 179.46224 
L 413.429668 173.504904 
L 417.790593 170.797024 
L 422.151517 173.427536 
L 426.512442 169.79124 
L 430.873366 176.986464 
L 435.23429 172.731224 
L 439.595215 173.427536 
L 443.956139 178.843296 
L 448.317064 189.13324 
L 452.677988 193.543216 
L 457.038913 195.167944 
L 461.399837 197.64372 
L 465.760761 195.167944 
L 470.121686 198.185296 
L 474.48261 192.460064 
L 478.843535 191.45428 
L 483.204459 200.661072 
L 487.565384 200.661072 
L 491.926308 199.732656 
L 496.287232 200.428968 
L 500.648157 192.22796 
L 505.009081 173.350168 
L 509.370006 173.118064 
L 513.73093 167.005992 
L 518.091855 170.95176 
L 522.452779 171.029128 
L 526.813703 162.673384 
L 531.174628 151.841864 
L 535.535552 132.964072 
L 539.896477 124.376224 
L 544.257401 123.447808 
L 548.618326 136.058792 
L 552.97925 142.248232 
L 557.340174 145.03348 
L 561.701099 149.752928 
L 566.062023 150.83608 
L 570.422948 157.180256 
L 574.783872 152.77028 
L 579.144797 161.822336 
L 583.505721 164.220744 
L 587.866646 167.624936 
L 592.22757 134.5888 
L 596.588494 163.21496 
L 600.949419 164.607584 
L 605.310343 154.240272 
L 609.671268 145.03348 
L 614.032192 137.760888 
L 618.393117 129.94672 
L 622.754041 123.679912 
L 627.114965 117.877312 
L 631.47589 107.355264 
L 635.836814 97.839 
L 640.197739 105.807904 
L 644.558663 111.533136 
L 648.919588 127.393576 
L 653.280512 134.434064 
L 657.641436 136.600368 
L 662.002361 139.23088 
L 666.363285 136.445632 
L 670.72421 139.153512 
L 675.085134 135.285112 
L 679.446059 138.921408 
L 683.806983 143.563488 
L 688.167907 147.663992 
L 692.528832 149.28872 
L 696.889756 143.950328 
L 701.250681 148.050832 
L 705.611605 140.700872 
L 709.97253 91.26272 
L 714.333454 95.9048 
L 718.694378 132.6546 
L 723.055303 131.339344 
L 727.416227 145.03348 
L 731.777152 146.116632 
L 736.138076 161.744968 
L 740.499001 147.431888 
L 744.859925 161.977072 
L 749.220849 168.475984 
L 757.942698 171.802808 
L 762.303623 176.676992 
L 766.664547 178.998032 
L 771.025472 177.52804 
L 775.386396 192.382696 
L 779.74732 203.910528 
L 784.108245 218.455712 
L 788.469169 226.424616 
L 792.830094 229.287232 
L 797.191018 233.078264 
L 801.551943 241.820848 
L 805.912867 237.87508 
L 810.273791 235.399304 
L 814.634716 238.958232 
L 818.99564 233.61984 
L 823.356565 256.211296 
L 827.717489 257.449184 
L 832.078414 257.21708 
L 836.439338 273.46436 
L 840.800262 274.005936 
L 845.161187 286.152712 
L 849.522111 291.491104 
L 853.883036 284.063776 
L 858.24396 282.516416 
L 862.604885 281.510632 
L 866.965809 273.309624 
L 871.326733 275.862768 
L 875.687658 288.860592 
L 880.048582 289.3248 
L 884.409507 281.897472 
L 888.770431 268.899648 
L 893.131356 275.475928 
L 897.49228 283.754304 
L 901.853204 264.876512 
L 906.214129 266.733344 
L 910.575053 284.218512 
L 914.935978 295.591608 
L 919.296902 291.568472 
L 923.657827 293.812144 
L 928.018751 320.194632 
L 932.379675 338.144008 
L 936.7406 336.828752 
L 941.101524 327.003016 
L 945.462449 316.326232 
L 949.823373 318.3378 
L 954.184298 320.813576 
L 958.545222 310.910472 
L 967.267071 307.274176 
L 971.627995 309.285744 
L 975.98892 310.98784 
L 980.349844 309.44048 
L 984.710769 308.821536 
L 989.071693 307.428912 
L 993.432618 309.904688 
L 997.793542 306.113656 
L 1002.154466 308.125224 
L 1006.515391 311.606784 
L 1010.876315 308.434696 
L 1015.23724 306.964704 
L 1023.959089 301.31684 
L 1028.320013 303.173672 
L 1032.680937 297.44844 
L 1037.041862 309.82732 
L 1041.402786 327.080384 
L 1045.763711 328.318272 
L 1050.124635 343.09556 
L 1054.48556 354.778128 
L 1058.846484 354.623392 
L 1063.207408 353.617608 
L 1067.568333 355.0876 
L 1071.929257 352.998664 
L 1076.290182 359.34284 
L 1080.651106 360.580728 
L 1085.012031 373.733288 
L 1089.372955 382.630608 
L 1093.733879 386.80848 
L 1098.094804 388.820048 
L 1102.455728 391.373192 
L 1111.177577 394.700016 
L 1115.538502 389.825832 
L 1119.899426 389.671096 
L 1124.26035 388.433208 
L 1128.621275 389.671096 
L 1132.982199 392.920552 
L 1137.343124 393.848968 
L 1141.704048 391.992136 
L 1146.064973 393.38476 
L 1150.425897 393.152656 
L 1154.786821 390.831616 
L 1159.147746 389.9032 
L 1163.50867 391.295824 
L 1167.869595 388.974784 
L 1172.230519 389.9032 
L 1176.591444 388.433208 
L 1180.952368 388.433208 
L 1185.313292 390.986352 
L 1189.674217 391.45056 
L 1194.035141 390.67688 
L 1198.396066 391.373192 
L 1202.75699 392.22424 
L 1211.478839 392.146872 
L 1215.839763 385.183752 
L 1220.200688 388.201104 
L 1224.561612 391.605296 
L 1228.922537 392.765816 
L 1233.283461 390.367408 
L 1237.644386 390.67688 
L 1242.00531 388.665312 
L 1246.366234 389.284256 
L 1250.727159 392.069504 
L 1255.088083 390.522144 
L 1259.449008 391.06372 
L 1263.809932 388.897416 
L 1268.170857 391.218456 
L 1272.531781 392.920552 
L 1276.892705 391.760032 
L 1281.25363 387.040584 
L 1285.614554 386.885848 
L 1289.975479 387.19532 
L 1294.336403 386.112168 
L 1298.697328 383.017448 
L 1303.058252 388.974784 
L 1303.058252 388.974784 
" style="fill:none;stroke:#008000;stroke-linecap:square;stroke-width:3;"/>
   </g>
   <g id="patch_3">
    <path d="M 94.21 397.64 
L 94.21 10.8 
" style="fill:none;stroke:#000000;stroke-linecap:square;stroke-linejoin:miter;stroke-width:0.8;"/>
   </g>
   <g id="patch_4">
    <path d="M 1360.622455 397.64 
L 1360.622455 10.8 
" style="fill:none;stroke:#000000;stroke-linecap:square;stroke-linejoin:miter;stroke-width:0.8;"/>
   </g>
   <g id="patch_5">
    <path d="M 94.21 397.64 
L 1360.622455 397.64 
" style="fill:none;stroke:#000000;stroke-linecap:square;stroke-linejoin:miter;stroke-width:0.8;"/>
   </g>
   <g id="patch_6">
    <path d="M 94.21 10.8 
L 1360.622455 10.8 
" style="fill:none;stroke:#000000;stroke-linecap:square;stroke-linejoin:miter;stroke-width:0.8;"/>
   </g>
  </g>
 </g>
 <defs>
  <clipPath id="p9972c0faca">
   <rect height="386.84" width="1266.412455" x="94.21" y="10.8"/>
  </clipPath>
 </defs>
</svg>
