<?xml version="1.0" encoding="utf-8" standalone="no"?>
<!DOCTYPE svg PUBLIC "-//W3C//DTD SVG 1.1//EN"
  "http://www.w3.org/Graphics/SVG/1.1/DTD/svg11.dtd">
<!-- Created with matplotlib (https://matplotlib.org/) -->
<svg height="454.32pt" version="1.1" viewBox="0 0 1380.96 454.32" width="1380.96pt" xmlns="http://www.w3.org/2000/svg" xmlns:xlink="http://www.w3.org/1999/xlink">
 <metadata>
  <rdf:RDF xmlns:cc="http://creativecommons.org/ns#" xmlns:dc="http://purl.org/dc/elements/1.1/" xmlns:rdf="http://www.w3.org/1999/02/22-rdf-syntax-ns#">
   <cc:Work>
    <dc:type rdf:resource="http://purl.org/dc/dcmitype/StillImage"/>
    <dc:date>2021-07-08T17:38:46.532927</dc:date>
    <dc:format>image/svg+xml</dc:format>
    <dc:creator>
     <cc:Agent>
      <dc:title>Matplotlib v3.3.2, https://matplotlib.org/</dc:title>
     </cc:Agent>
    </dc:creator>
   </cc:Work>
  </rdf:RDF>
 </metadata>
 <defs>
  <style type="text/css">*{stroke-linecap:butt;stroke-linejoin:round;}</style>
 </defs>
 <g id="figure_1">
  <g id="patch_1">
   <path d="M 0 454.32 
L 1380.96 454.32 
L 1380.96 0 
L 0 0 
z
" style="fill:#ffffff;"/>
  </g>
  <g id="axes_1">
   <g id="patch_2">
    <path d="M 94.21 397.64 
L 1360.622455 397.64 
L 1360.622455 10.8 
L 94.21 10.8 
z
" style="fill:#ffffff;"/>
   </g>
   <g id="matplotlib.axis_1">
    <g id="xtick_1">
     <g id="line2d_1">
      <defs>
       <path d="M 0 0 
L 0 3.5 
" id="m51dd4c7de2" style="stroke:#000000;stroke-width:0.8;"/>
      </defs>
      <g>
       <use style="stroke:#000000;stroke-width:0.8;" x="256.436389" xlink:href="#m51dd4c7de2" y="397.64"/>
      </g>
     </g>
     <g id="text_1">
      <!-- 09-11 -->
      <g transform="translate(198.320764 435.03375)scale(0.4 -0.4)">
       <defs>
        <path d="M 31.78125 66.40625 
Q 24.171875 66.40625 20.328125 58.90625 
Q 16.5 51.421875 16.5 36.375 
Q 16.5 21.390625 20.328125 13.890625 
Q 24.171875 6.390625 31.78125 6.390625 
Q 39.453125 6.390625 43.28125 13.890625 
Q 47.125 21.390625 47.125 36.375 
Q 47.125 51.421875 43.28125 58.90625 
Q 39.453125 66.40625 31.78125 66.40625 
z
M 31.78125 74.21875 
Q 44.046875 74.21875 50.515625 64.515625 
Q 56.984375 54.828125 56.984375 36.375 
Q 56.984375 17.96875 50.515625 8.265625 
Q 44.046875 -1.421875 31.78125 -1.421875 
Q 19.53125 -1.421875 13.0625 8.265625 
Q 6.59375 17.96875 6.59375 36.375 
Q 6.59375 54.828125 13.0625 64.515625 
Q 19.53125 74.21875 31.78125 74.21875 
z
" id="DejaVuSans-48"/>
        <path d="M 10.984375 1.515625 
L 10.984375 10.5 
Q 14.703125 8.734375 18.5 7.8125 
Q 22.3125 6.890625 25.984375 6.890625 
Q 35.75 6.890625 40.890625 13.453125 
Q 46.046875 20.015625 46.78125 33.40625 
Q 43.953125 29.203125 39.59375 26.953125 
Q 35.25 24.703125 29.984375 24.703125 
Q 19.046875 24.703125 12.671875 31.3125 
Q 6.296875 37.9375 6.296875 49.421875 
Q 6.296875 60.640625 12.9375 67.421875 
Q 19.578125 74.21875 30.609375 74.21875 
Q 43.265625 74.21875 49.921875 64.515625 
Q 56.59375 54.828125 56.59375 36.375 
Q 56.59375 19.140625 48.40625 8.859375 
Q 40.234375 -1.421875 26.421875 -1.421875 
Q 22.703125 -1.421875 18.890625 -0.6875 
Q 15.09375 0.046875 10.984375 1.515625 
z
M 30.609375 32.421875 
Q 37.25 32.421875 41.125 36.953125 
Q 45.015625 41.5 45.015625 49.421875 
Q 45.015625 57.28125 41.125 61.84375 
Q 37.25 66.40625 30.609375 66.40625 
Q 23.96875 66.40625 20.09375 61.84375 
Q 16.21875 57.28125 16.21875 49.421875 
Q 16.21875 41.5 20.09375 36.953125 
Q 23.96875 32.421875 30.609375 32.421875 
z
" id="DejaVuSans-57"/>
        <path d="M 4.890625 31.390625 
L 31.203125 31.390625 
L 31.203125 23.390625 
L 4.890625 23.390625 
z
" id="DejaVuSans-45"/>
        <path d="M 12.40625 8.296875 
L 28.515625 8.296875 
L 28.515625 63.921875 
L 10.984375 60.40625 
L 10.984375 69.390625 
L 28.421875 72.90625 
L 38.28125 72.90625 
L 38.28125 8.296875 
L 54.390625 8.296875 
L 54.390625 0 
L 12.40625 0 
z
" id="DejaVuSans-49"/>
       </defs>
       <use xlink:href="#DejaVuSans-48"/>
       <use x="63.623047" xlink:href="#DejaVuSans-57"/>
       <use x="127.246094" xlink:href="#DejaVuSans-45"/>
       <use x="163.330078" xlink:href="#DejaVuSans-49"/>
       <use x="226.953125" xlink:href="#DejaVuSans-49"/>
      </g>
     </g>
    </g>
    <g id="xtick_2">
     <g id="line2d_2">
      <g>
       <use style="stroke:#000000;stroke-width:0.8;" x="465.760761" xlink:href="#m51dd4c7de2" y="397.64"/>
      </g>
     </g>
     <g id="text_2">
      <!-- 09-13 -->
      <g transform="translate(407.645136 435.03375)scale(0.4 -0.4)">
       <defs>
        <path d="M 40.578125 39.3125 
Q 47.65625 37.796875 51.625 33 
Q 55.609375 28.21875 55.609375 21.1875 
Q 55.609375 10.40625 48.1875 4.484375 
Q 40.765625 -1.421875 27.09375 -1.421875 
Q 22.515625 -1.421875 17.65625 -0.515625 
Q 12.796875 0.390625 7.625 2.203125 
L 7.625 11.71875 
Q 11.71875 9.328125 16.59375 8.109375 
Q 21.484375 6.890625 26.8125 6.890625 
Q 36.078125 6.890625 40.9375 10.546875 
Q 45.796875 14.203125 45.796875 21.1875 
Q 45.796875 27.640625 41.28125 31.265625 
Q 36.765625 34.90625 28.71875 34.90625 
L 20.21875 34.90625 
L 20.21875 43.015625 
L 29.109375 43.015625 
Q 36.375 43.015625 40.234375 45.921875 
Q 44.09375 48.828125 44.09375 54.296875 
Q 44.09375 59.90625 40.109375 62.90625 
Q 36.140625 65.921875 28.71875 65.921875 
Q 24.65625 65.921875 20.015625 65.03125 
Q 15.375 64.15625 9.8125 62.3125 
L 9.8125 71.09375 
Q 15.4375 72.65625 20.34375 73.4375 
Q 25.25 74.21875 29.59375 74.21875 
Q 40.828125 74.21875 47.359375 69.109375 
Q 53.90625 64.015625 53.90625 55.328125 
Q 53.90625 49.265625 50.4375 45.09375 
Q 46.96875 40.921875 40.578125 39.3125 
z
" id="DejaVuSans-51"/>
       </defs>
       <use xlink:href="#DejaVuSans-48"/>
       <use x="63.623047" xlink:href="#DejaVuSans-57"/>
       <use x="127.246094" xlink:href="#DejaVuSans-45"/>
       <use x="163.330078" xlink:href="#DejaVuSans-49"/>
       <use x="226.953125" xlink:href="#DejaVuSans-51"/>
      </g>
     </g>
    </g>
    <g id="xtick_3">
     <g id="line2d_3">
      <g>
       <use style="stroke:#000000;stroke-width:0.8;" x="675.085134" xlink:href="#m51dd4c7de2" y="397.64"/>
      </g>
     </g>
     <g id="text_3">
      <!-- 09-15 -->
      <g transform="translate(616.969509 435.03375)scale(0.4 -0.4)">
       <defs>
        <path d="M 10.796875 72.90625 
L 49.515625 72.90625 
L 49.515625 64.59375 
L 19.828125 64.59375 
L 19.828125 46.734375 
Q 21.96875 47.46875 24.109375 47.828125 
Q 26.265625 48.1875 28.421875 48.1875 
Q 40.625 48.1875 47.75 41.5 
Q 54.890625 34.8125 54.890625 23.390625 
Q 54.890625 11.625 47.5625 5.09375 
Q 40.234375 -1.421875 26.90625 -1.421875 
Q 22.3125 -1.421875 17.546875 -0.640625 
Q 12.796875 0.140625 7.71875 1.703125 
L 7.71875 11.625 
Q 12.109375 9.234375 16.796875 8.0625 
Q 21.484375 6.890625 26.703125 6.890625 
Q 35.15625 6.890625 40.078125 11.328125 
Q 45.015625 15.765625 45.015625 23.390625 
Q 45.015625 31 40.078125 35.4375 
Q 35.15625 39.890625 26.703125 39.890625 
Q 22.75 39.890625 18.8125 39.015625 
Q 14.890625 38.140625 10.796875 36.28125 
z
" id="DejaVuSans-53"/>
       </defs>
       <use xlink:href="#DejaVuSans-48"/>
       <use x="63.623047" xlink:href="#DejaVuSans-57"/>
       <use x="127.246094" xlink:href="#DejaVuSans-45"/>
       <use x="163.330078" xlink:href="#DejaVuSans-49"/>
       <use x="226.953125" xlink:href="#DejaVuSans-53"/>
      </g>
     </g>
    </g>
    <g id="xtick_4">
     <g id="line2d_4">
      <g>
       <use style="stroke:#000000;stroke-width:0.8;" x="884.409507" xlink:href="#m51dd4c7de2" y="397.64"/>
      </g>
     </g>
     <g id="text_4">
      <!-- 09-17 -->
      <g transform="translate(826.293882 435.03375)scale(0.4 -0.4)">
       <defs>
        <path d="M 8.203125 72.90625 
L 55.078125 72.90625 
L 55.078125 68.703125 
L 28.609375 0 
L 18.3125 0 
L 43.21875 64.59375 
L 8.203125 64.59375 
z
" id="DejaVuSans-55"/>
       </defs>
       <use xlink:href="#DejaVuSans-48"/>
       <use x="63.623047" xlink:href="#DejaVuSans-57"/>
       <use x="127.246094" xlink:href="#DejaVuSans-45"/>
       <use x="163.330078" xlink:href="#DejaVuSans-49"/>
       <use x="226.953125" xlink:href="#DejaVuSans-55"/>
      </g>
     </g>
    </g>
    <g id="xtick_5">
     <g id="line2d_5">
      <g>
       <use style="stroke:#000000;stroke-width:0.8;" x="1093.733879" xlink:href="#m51dd4c7de2" y="397.64"/>
      </g>
     </g>
     <g id="text_5">
      <!-- 09-19 -->
      <g transform="translate(1035.618254 435.03375)scale(0.4 -0.4)">
       <use xlink:href="#DejaVuSans-48"/>
       <use x="63.623047" xlink:href="#DejaVuSans-57"/>
       <use x="127.246094" xlink:href="#DejaVuSans-45"/>
       <use x="163.330078" xlink:href="#DejaVuSans-49"/>
       <use x="226.953125" xlink:href="#DejaVuSans-57"/>
      </g>
     </g>
    </g>
    <g id="xtick_6">
     <g id="line2d_6">
      <g>
       <use style="stroke:#000000;stroke-width:0.8;" x="1303.058252" xlink:href="#m51dd4c7de2" y="397.64"/>
      </g>
     </g>
     <g id="text_6">
      <!-- 09-21 -->
      <g transform="translate(1244.942627 435.03375)scale(0.4 -0.4)">
       <defs>
        <path d="M 19.1875 8.296875 
L 53.609375 8.296875 
L 53.609375 0 
L 7.328125 0 
L 7.328125 8.296875 
Q 12.9375 14.109375 22.625 23.890625 
Q 32.328125 33.6875 34.8125 36.53125 
Q 39.546875 41.84375 41.421875 45.53125 
Q 43.3125 49.21875 43.3125 52.78125 
Q 43.3125 58.59375 39.234375 62.25 
Q 35.15625 65.921875 28.609375 65.921875 
Q 23.96875 65.921875 18.8125 64.3125 
Q 13.671875 62.703125 7.8125 59.421875 
L 7.8125 69.390625 
Q 13.765625 71.78125 18.9375 73 
Q 24.125 74.21875 28.421875 74.21875 
Q 39.75 74.21875 46.484375 68.546875 
Q 53.21875 62.890625 53.21875 53.421875 
Q 53.21875 48.921875 51.53125 44.890625 
Q 49.859375 40.875 45.40625 35.40625 
Q 44.1875 33.984375 37.640625 27.21875 
Q 31.109375 20.453125 19.1875 8.296875 
z
" id="DejaVuSans-50"/>
       </defs>
       <use xlink:href="#DejaVuSans-48"/>
       <use x="63.623047" xlink:href="#DejaVuSans-57"/>
       <use x="127.246094" xlink:href="#DejaVuSans-45"/>
       <use x="163.330078" xlink:href="#DejaVuSans-50"/>
       <use x="226.953125" xlink:href="#DejaVuSans-49"/>
      </g>
     </g>
    </g>
   </g>
   <g id="matplotlib.axis_2">
    <g id="ytick_1">
     <g id="line2d_7">
      <defs>
       <path d="M 0 0 
L -3.5 0 
" id="m230a602750" style="stroke:#000000;stroke-width:0.8;"/>
      </defs>
      <g>
       <use style="stroke:#000000;stroke-width:0.8;" x="94.21" xlink:href="#m230a602750" y="397.64"/>
      </g>
     </g>
     <g id="text_7">
      <!-- 0 -->
      <g transform="translate(61.76 412.836875)scale(0.4 -0.4)">
       <use xlink:href="#DejaVuSans-48"/>
      </g>
     </g>
    </g>
    <g id="ytick_2">
     <g id="line2d_8">
      <g>
       <use style="stroke:#000000;stroke-width:0.8;" x="94.21" xlink:href="#m230a602750" y="225.711111"/>
      </g>
     </g>
     <g id="text_8">
      <!-- 200 -->
      <g transform="translate(10.86 240.907986)scale(0.4 -0.4)">
       <use xlink:href="#DejaVuSans-50"/>
       <use x="63.623047" xlink:href="#DejaVuSans-48"/>
       <use x="127.246094" xlink:href="#DejaVuSans-48"/>
      </g>
     </g>
    </g>
    <g id="ytick_3">
     <g id="line2d_9">
      <g>
       <use style="stroke:#000000;stroke-width:0.8;" x="94.21" xlink:href="#m230a602750" y="53.782222"/>
      </g>
     </g>
     <g id="text_9">
      <!-- 400 -->
      <g transform="translate(10.86 68.979097)scale(0.4 -0.4)">
       <defs>
        <path d="M 37.796875 64.3125 
L 12.890625 25.390625 
L 37.796875 25.390625 
z
M 35.203125 72.90625 
L 47.609375 72.90625 
L 47.609375 25.390625 
L 58.015625 25.390625 
L 58.015625 17.1875 
L 47.609375 17.1875 
L 47.609375 0 
L 37.796875 0 
L 37.796875 17.1875 
L 4.890625 17.1875 
L 4.890625 26.703125 
z
" id="DejaVuSans-52"/>
       </defs>
       <use xlink:href="#DejaVuSans-52"/>
       <use x="63.623047" xlink:href="#DejaVuSans-48"/>
       <use x="127.246094" xlink:href="#DejaVuSans-48"/>
      </g>
     </g>
    </g>
   </g>
   <g id="line2d_10">
    <path clip-path="url(#p0eb88087ae)" d="M 151.774202 382.464793 
L 156.135127 381.623045 
L 160.496051 374.248037 
L 164.856976 369.989655 
L 169.2179 367.069436 
L 173.578825 365.655731 
L 177.939749 364.710383 
L 182.300673 360.316027 
L 186.661598 362.858538 
L 191.022522 365.998906 
L 195.383447 310.469432 
L 199.744371 318.043007 
L 204.105296 352.289203 
L 208.46622 358.291515 
L 212.827145 359.806661 
L 217.188069 357.890066 
L 221.548993 358.18144 
L 225.909918 356.860543 
L 230.270842 353.495709 
L 234.631767 354.324507 
L 238.992691 354.611565 
L 243.353616 354.102199 
L 247.71454 350.264691 
L 252.075464 348.855303 
L 256.436389 348.440904 
L 260.797313 337.167955 
L 265.158238 320.175435 
L 269.519162 324.528783 
L 273.880087 324.453242 
L 278.241011 323.179828 
L 282.601935 317.876815 
L 286.96286 311.101822 
L 295.684709 293.058197 
L 300.045633 289.300547 
L 304.406558 276.026827 
L 308.767482 221.43191 
L 313.128406 231.737928 
L 317.489331 230.863805 
L 321.850255 236.423659 
L 326.21118 239.533811 
L 330.572104 255.098491 
L 334.933029 257.780319 
L 339.293953 261.382569 
L 343.654877 266.922998 
L 348.015802 264.369696 
L 352.376726 255.270183 
L 356.737651 253.722662 
L 361.098575 256.431364 
L 365.4595 260.909895 
L 369.820424 265.060361 
L 374.181348 275.05558 
L 378.542273 284.381717 
L 382.903197 288.530024 
L 387.264122 291.888383 
L 391.625046 293.91937 
L 395.985971 293.623679 
L 400.346895 292.650273 
L 404.707819 292.086949 
L 409.068744 247.245518 
L 413.429668 259.202657 
L 417.790593 276.518926 
L 422.151517 281.685965 
L 426.512442 282.257922 
L 430.873366 283.598243 
L 435.23429 281.908272 
L 439.595215 281.092424 
L 443.956139 281.590998 
L 452.677988 287.470285 
L 457.038913 291.715717 
L 461.399837 294.029445 
L 465.760761 293.681954 
L 470.121686 293.038772 
L 474.48261 287.278193 
L 483.204459 286.628537 
L 487.565384 285.529947 
L 491.926308 286.440762 
L 496.287232 283.298236 
L 500.648157 278.560705 
L 505.009081 279.937718 
L 509.370006 255.393208 
L 513.73093 268.114395 
L 518.091855 272.936101 
L 522.452779 280.876591 
L 526.813703 285.603331 
L 531.174628 284.774532 
L 535.535552 274.792264 
L 539.896477 193.548466 
L 544.257401 151.079037 
L 548.618326 253.271571 
L 552.97925 261.814235 
L 557.340174 269.726667 
L 561.701099 274.246206 
L 566.062023 276.257769 
L 570.422948 275.634012 
L 574.783872 274.246206 
L 579.144797 275.534729 
L 583.505721 275.137596 
L 587.866646 276.074311 
L 592.22757 280.708242 
L 596.588494 282.432746 
L 600.949419 281.62769 
L 605.310343 282.903262 
L 609.671268 278.185156 
L 614.032192 276.56641 
L 618.393117 262.036543 
L 622.754041 57.040669 
L 627.114965 193.641274 
L 631.47589 260.748021 
L 635.836814 271.569879 
L 640.197739 269.096435 
L 644.558663 268.692827 
L 648.919588 271.818087 
L 653.280512 278.901721 
L 657.641436 283.697527 
L 662.002361 275.793728 
L 666.363285 274.462039 
L 670.72421 275.405229 
L 675.085134 275.318896 
L 679.446059 273.5577 
L 683.806983 272.694368 
L 688.167907 270.864106 
L 692.528832 274.127498 
L 696.889756 273.564175 
L 701.250681 269.636017 
L 705.611605 271.831037 
L 714.333454 270.900797 
L 718.694378 272.677102 
L 723.055303 197.625548 
L 727.416227 251.419725 
L 731.777152 279.803902 
L 736.138076 290.13582 
L 740.499001 301.967777 
L 744.859925 253.830578 
L 749.220849 259.109849 
L 753.581774 286.816311 
L 757.942698 289.471055 
L 762.303623 286.084638 
L 766.664547 293.886995 
L 771.025472 293.122947 
L 775.386396 296.133815 
L 779.74732 299.813765 
L 784.108245 305.639093 
L 788.469169 311.906879 
L 792.830094 315.863095 
L 801.551943 320.90495 
L 805.912867 323.807902 
L 810.273791 332.044083 
L 814.634716 336.084474 
L 818.99564 340.746463 
L 823.356565 345.764577 
L 827.717489 350.2539 
L 832.078414 354.976322 
L 836.439338 352.44892 
L 840.800262 356.875651 
L 845.161187 358.585047 
L 849.522111 359.215279 
L 853.883036 359.323196 
L 858.24396 359.554137 
L 862.604885 358.889372 
L 866.965809 352.476978 
L 871.326733 322.012173 
L 875.687658 331.476443 
L 880.048582 337.707537 
L 884.409507 340.906179 
L 888.770431 337.657895 
L 893.131356 331.601626 
L 897.49228 329.471356 
L 901.853204 337.221913 
L 906.214129 338.035603 
L 910.575053 340.487464 
L 914.935978 350.877657 
L 919.296902 355.414463 
L 923.657827 356.56701 
L 928.018751 357.046159 
L 932.379675 359.899469 
L 936.7406 364.462176 
L 941.101524 368.010468 
L 945.462449 356.426809 
L 949.823373 359.424637 
L 954.184298 359.504495 
L 958.545222 357.676391 
L 962.906147 350.739524 
L 967.267071 333.807437 
L 971.627995 349.289127 
L 975.98892 351.451772 
L 980.349844 353.88205 
L 984.710769 352.502878 
L 989.071693 352.483453 
L 993.432618 351.546738 
L 997.793542 350.910032 
L 1002.154466 351.924446 
L 1006.515391 353.215126 
L 1010.876315 356.204411 
L 1015.23724 357.715241 
L 1019.598164 356.52816 
L 1023.959089 351.488464 
L 1028.320013 349.541651 
L 1032.680937 353.446067 
L 1037.041862 355.815912 
L 1041.402786 357.028893 
L 1045.763711 360.069977 
L 1050.124635 363.262145 
L 1054.48556 366.74137 
L 1058.846484 367.222678 
L 1063.207408 368.066584 
L 1067.568333 369.06589 
L 1071.929257 369.279565 
L 1076.290182 289.43868 
L 1080.651106 350.761107 
L 1085.012031 365.858614 
L 1089.372955 376.909256 
L 1093.733879 388.270696 
L 1098.094804 393.13341 
L 1102.455728 396.401119 
L 1106.816653 397.294667 
L 1111.177577 397.482442 
L 1124.26035 397.596833 
L 1128.621275 397.473809 
L 1132.982199 397.618417 
L 1154.786821 397.616258 
L 1163.50867 397.555825 
L 1167.869595 387.834714 
L 1172.230519 394.51474 
L 1176.591444 396.204712 
L 1180.952368 396.224137 
L 1185.313292 394.816906 
L 1189.674217 396.990343 
L 1194.035141 397.346467 
L 1211.478839 397.434959 
L 1215.839763 397.290351 
L 1220.200688 397.560142 
L 1237.644386 397.6141 
L 1242.00531 378.72441 
L 1246.366234 388.013855 
L 1250.727159 396.282411 
L 1255.088083 397.469492 
L 1263.809932 397.611942 
L 1268.170857 397.616258 
L 1272.531781 397.482442 
L 1276.892705 397.538559 
L 1281.25363 395.44498 
L 1285.614554 396.185287 
L 1289.975479 395.23778 
L 1294.336403 394.51474 
L 1298.697328 393.038444 
L 1303.058252 395.220514 
L 1303.058252 395.220514 
" style="fill:none;stroke:#0000ff;stroke-linecap:square;stroke-width:3;"/>
   </g>
   <g id="line2d_11">
    <path clip-path="url(#p0eb88087ae)" d="M 151.774202 376.943789 
L 156.135127 376.684789 
L 160.496051 367.596069 
L 164.856976 364.684484 
L 169.2179 362.103123 
L 173.578825 362.44198 
L 177.939749 360.663518 
L 182.300673 353.517292 
L 186.661598 359.508812 
L 191.022522 364.954275 
L 195.383447 317.071759 
L 199.744371 342.360893 
L 204.105296 355.906562 
L 208.46622 356.998676 
L 212.827145 356.990043 
L 217.188069 353.115843 
L 221.548993 353.200018 
L 225.909918 348.863936 
L 230.270842 342.926375 
L 234.631767 346.112068 
L 238.992691 346.796258 
L 243.353616 343.47459 
L 247.71454 338.173736 
L 252.075464 338.085244 
L 256.436389 338.307552 
L 260.797313 318.18114 
L 265.158238 308.414704 
L 269.519162 311.421255 
L 273.880087 307.402448 
L 278.241011 307.184456 
L 282.601935 297.685653 
L 286.96286 290.116395 
L 295.684709 275.789411 
L 300.045633 276.169277 
L 304.406558 266.018659 
L 308.767482 212.22664 
L 313.128406 226.121958 
L 317.489331 220.982978 
L 326.21118 239.648202 
L 330.572104 248.335474 
L 334.933029 247.893017 
L 339.293953 249.539821 
L 343.654877 252.928397 
L 348.015802 244.074934 
L 352.376726 233.95669 
L 356.737651 231.386121 
L 361.098575 233.710641 
L 365.4595 236.209985 
L 369.820424 238.255908 
M 395.985971 280.817984 
L 400.346895 283.000387 
L 404.707819 282.428429 
L 409.068744 239.516544 
L 413.429668 256.942888 
L 417.790593 259.999081 
L 422.151517 260.864236 
L 426.512442 262.230792 
L 430.873366 264.352429 
L 435.23429 262.25885 
L 439.595215 262.235109 
L 443.956139 258.868117 
L 448.317064 264.102063 
L 452.677988 268.559011 
L 457.038913 269.450401 
L 465.760761 270.160491 
L 474.48261 262.092659 
L 478.843535 265.638793 
L 483.204459 264.158179 
L 487.565384 263.607806 
L 491.926308 264.851003 
L 496.287232 260.398371 
L 500.648157 259.153016 
L 505.009081 262.196259 
L 509.370006 248.950598 
L 513.73093 257.990521 
M 1119.899426 397.41402 
L 1124.26035 397.52345 
L 1128.621275 397.298984 
L 1132.982199 397.5623 
L 1146.064973 397.618417 
L 1154.786821 397.624892 
L 1163.50867 397.257976 
L 1167.869595 393.265068 
L 1172.230519 395.170872 
L 1176.591444 394.460782 
L 1185.313292 395.427713 
L 1189.674217 396.23277 
L 1194.035141 396.547886 
L 1198.396066 396.651486 
L 1202.75699 396.912643 
L 1207.117915 396.757244 
L 1211.478839 395.591746 
L 1215.839763 395.047848 
L 1220.200688 396.953652 
L 1228.922537 397.573092 
L 1237.644386 397.542875 
L 1242.00531 394.562224 
L 1246.366234 396.29752 
L 1250.727159 396.724869 
L 1255.088083 397.4587 
L 1268.170857 397.6141 
L 1272.531781 397.128476 
L 1276.892705 396.003987 
L 1281.25363 392.613253 
L 1285.614554 393.478743 
L 1289.975479 391.000982 
L 1294.336403 390.191609 
L 1298.697328 387.20664 
L 1303.058252 391.72618 
L 1303.058252 391.72618 
" style="fill:none;stroke:#ff0000;stroke-linecap:square;stroke-width:3;"/>
   </g>
   <g id="line2d_12">
    <path clip-path="url(#p0eb88087ae)" d="M 151.774202 385.175156 
L 156.135127 385.476031 
L 160.496051 383.842707 
L 164.856976 382.338329 
L 169.2179 379.114662 
L 173.578825 378.040107 
L 177.939749 377.567302 
L 182.300673 372.022596 
L 186.661598 373.569956 
L 191.022522 368.712964 
L 195.383447 367.337533 
L 199.744371 370.346289 
L 204.105296 366.177013 
L 208.46622 369.658573 
L 212.827145 367.509462 
L 217.188069 367.638409 
L 221.548993 364.156849 
L 225.909918 362.8244 
L 230.270842 359.557751 
L 234.631767 358.784071 
L 238.992691 361.019147 
L 243.353616 356.892853 
L 247.71454 360.11652 
L 252.075464 359.471787 
L 256.436389 351.520076 
L 260.797313 338.410498 
L 265.158238 331.748253 
L 269.519162 337.593836 
L 273.880087 338.152604 
L 278.241011 331.49036 
L 282.601935 325.086009 
L 286.96286 310.686964 
L 291.323784 301.187893 
L 295.684709 295.213364 
L 300.045633 283.866058 
L 304.406558 264.824933 
L 308.767482 244.107502 
L 313.128406 233.190018 
L 317.489331 242.087338 
L 321.850255 248.31976 
L 326.21118 279.782747 
L 330.572104 295.213364 
L 334.933029 299.511587 
L 339.293953 298.866853 
L 343.654877 284.68272 
L 348.015802 266.845098 
L 352.376726 270.971391 
L 356.737651 265.168791 
L 361.098575 271.315249 
L 365.4595 272.991556 
L 374.181348 280.212569 
L 378.542273 282.404662 
L 382.903197 284.080969 
L 387.264122 285.585347 
L 391.625046 282.490627 
L 395.985971 282.533609 
L 400.346895 275.140667 
L 404.707819 274.366987 
L 409.068744 276.430133 
L 413.429668 273.120502 
L 417.790593 271.616124 
L 422.151517 273.07752 
L 426.512442 271.057356 
L 430.873366 275.054702 
L 435.23429 272.69068 
L 439.595215 273.07752 
L 443.956139 276.086276 
L 448.317064 281.802911 
L 452.677988 284.252898 
L 457.038913 285.155524 
L 461.399837 286.530956 
L 465.760761 285.155524 
L 470.121686 286.831831 
L 474.48261 283.651147 
L 478.843535 283.092378 
L 483.204459 288.207262 
L 487.565384 288.207262 
L 491.926308 287.691476 
L 496.287232 288.078316 
L 500.648157 283.5222 
L 505.009081 273.034538 
L 509.370006 272.905591 
L 513.73093 269.509996 
L 518.091855 271.702089 
L 522.452779 271.745071 
L 526.813703 267.102991 
L 531.174628 261.08548 
L 535.535552 250.597818 
L 539.896477 245.826791 
L 544.257401 245.311004 
L 548.618326 252.317107 
L 552.97925 255.755684 
L 557.340174 257.303044 
L 561.701099 259.92496 
L 566.062023 260.526711 
L 570.422948 264.051253 
L 574.783872 261.601267 
L 579.144797 266.630187 
L 583.505721 267.962636 
L 587.866646 269.853853 
L 592.22757 251.500444 
L 596.588494 267.403867 
L 600.949419 268.177547 
L 605.310343 262.417929 
L 609.671268 257.303044 
L 614.032192 253.262716 
L 618.393117 248.921511 
L 622.754041 245.439951 
L 627.114965 242.216284 
L 631.47589 236.370702 
L 635.836814 231.083889 
L 640.197739 235.511058 
L 644.558663 238.691742 
L 648.919588 247.503098 
L 653.280512 251.41448 
L 657.641436 252.617982 
L 662.002361 254.079378 
L 666.363285 252.532018 
L 670.72421 254.036396 
L 675.085134 251.887284 
L 679.446059 253.907449 
L 683.806983 256.486382 
L 688.167907 258.76444 
L 692.528832 259.667067 
L 696.889756 256.701293 
L 701.250681 258.979351 
L 705.611605 254.89604 
L 709.97253 227.4304 
L 714.333454 230.009333 
L 718.694378 250.425889 
L 723.055303 249.695191 
L 727.416227 257.303044 
L 731.777152 257.904796 
L 736.138076 266.587204 
L 740.499001 258.635493 
L 744.859925 266.716151 
L 749.220849 270.326658 
L 757.942698 272.174893 
L 762.303623 274.882773 
L 766.664547 276.17224 
L 771.025472 275.355578 
L 775.386396 283.608164 
L 779.74732 290.012516 
L 784.108245 298.093173 
L 788.469169 302.520342 
L 792.830094 304.110684 
L 797.191018 306.216813 
L 801.551943 311.073804 
L 805.912867 308.881711 
L 810.273791 307.50628 
L 814.634716 309.483462 
L 818.99564 306.517689 
L 823.356565 319.068498 
L 827.717489 319.756213 
L 832.078414 319.627267 
L 836.439338 328.653533 
L 840.800262 328.954409 
L 845.161187 335.702618 
L 849.522111 338.668391 
L 853.883036 334.542098 
L 858.24396 333.682453 
L 862.604885 333.123684 
L 866.965809 328.567569 
L 871.326733 329.985982 
L 875.687658 337.206996 
L 880.048582 337.464889 
L 884.409507 333.338596 
L 888.770431 326.117582 
L 893.131356 329.771071 
L 897.49228 334.370169 
L 901.853204 323.882507 
L 906.214129 324.91408 
L 910.575053 334.628062 
L 914.935978 340.946449 
L 919.296902 338.711373 
L 923.657827 339.957858 
L 928.018751 354.614796 
L 932.379675 364.586671 
L 936.7406 363.855973 
L 941.101524 358.397231 
L 945.462449 352.465684 
L 949.823373 353.583222 
L 954.184298 354.958653 
L 958.545222 349.456929 
L 967.267071 347.436764 
L 971.627995 348.554302 
L 975.98892 349.499911 
L 980.349844 348.640267 
L 984.710769 348.296409 
L 989.071693 347.522729 
L 993.432618 348.89816 
L 997.793542 346.792031 
L 1002.154466 347.909569 
L 1006.515391 349.843769 
L 1010.876315 348.081498 
L 1015.23724 347.264836 
L 1023.959089 344.127133 
L 1028.320013 345.158707 
L 1032.680937 341.978022 
L 1037.041862 348.855178 
L 1041.402786 358.440213 
L 1045.763711 359.127929 
L 1050.124635 367.337533 
L 1054.48556 373.827849 
L 1058.846484 373.741884 
L 1063.207408 373.183116 
L 1067.568333 373.999778 
L 1071.929257 372.839258 
L 1076.290182 376.3638 
L 1080.651106 377.051516 
L 1085.012031 384.358493 
L 1089.372955 389.301449 
L 1093.733879 391.622489 
L 1098.094804 392.740027 
L 1102.455728 394.15844 
L 1111.177577 396.006676 
L 1115.538502 393.298796 
L 1119.899426 393.212831 
L 1124.26035 392.525116 
L 1128.621275 393.212831 
L 1132.982199 395.018084 
L 1137.343124 395.533871 
L 1141.704048 394.502298 
L 1146.064973 395.275978 
L 1150.425897 395.147031 
L 1154.786821 393.857564 
L 1159.147746 393.341778 
L 1163.50867 394.115458 
L 1167.869595 392.825991 
L 1172.230519 393.341778 
L 1176.591444 392.525116 
L 1180.952368 392.525116 
L 1185.313292 393.943529 
L 1189.674217 394.201422 
L 1194.035141 393.7716 
L 1202.75699 394.631244 
L 1211.478839 394.588262 
L 1215.839763 390.719862 
L 1220.200688 392.396169 
L 1224.561612 394.287387 
L 1228.922537 394.93212 
L 1233.283461 393.599671 
L 1237.644386 393.7716 
L 1242.00531 392.654062 
L 1246.366234 392.99792 
L 1250.727159 394.54528 
L 1255.088083 393.685636 
L 1259.449008 393.986511 
L 1263.809932 392.783009 
L 1268.170857 394.072476 
L 1272.531781 395.018084 
L 1276.892705 394.373351 
L 1281.25363 391.751436 
L 1285.614554 391.665471 
L 1289.975479 391.8374 
L 1294.336403 391.235649 
L 1298.697328 389.51636 
L 1303.058252 392.825991 
L 1303.058252 392.825991 
" style="fill:none;stroke:#008000;stroke-linecap:square;stroke-width:3;"/>
   </g>
   <g id="patch_3">
    <path d="M 94.21 397.64 
L 94.21 10.8 
" style="fill:none;stroke:#000000;stroke-linecap:square;stroke-linejoin:miter;stroke-width:0.8;"/>
   </g>
   <g id="patch_4">
    <path d="M 1360.622455 397.64 
L 1360.622455 10.8 
" style="fill:none;stroke:#000000;stroke-linecap:square;stroke-linejoin:miter;stroke-width:0.8;"/>
   </g>
   <g id="patch_5">
    <path d="M 94.21 397.64 
L 1360.622455 397.64 
" style="fill:none;stroke:#000000;stroke-linecap:square;stroke-linejoin:miter;stroke-width:0.8;"/>
   </g>
   <g id="patch_6">
    <path d="M 94.21 10.8 
L 1360.622455 10.8 
" style="fill:none;stroke:#000000;stroke-linecap:square;stroke-linejoin:miter;stroke-width:0.8;"/>
   </g>
  </g>
 </g>
 <defs>
  <clipPath id="p0eb88087ae">
   <rect height="386.84" width="1266.412455" x="94.21" y="10.8"/>
  </clipPath>
 </defs>
</svg>
