<?xml version="1.0" encoding="utf-8" standalone="no"?>
<!DOCTYPE svg PUBLIC "-//W3C//DTD SVG 1.1//EN"
  "http://www.w3.org/Graphics/SVG/1.1/DTD/svg11.dtd">
<!-- Created with matplotlib (https://matplotlib.org/) -->
<svg height="454.32pt" version="1.1" viewBox="0 0 1380.96 454.32" width="1380.96pt" xmlns="http://www.w3.org/2000/svg" xmlns:xlink="http://www.w3.org/1999/xlink">
 <metadata>
  <rdf:RDF xmlns:cc="http://creativecommons.org/ns#" xmlns:dc="http://purl.org/dc/elements/1.1/" xmlns:rdf="http://www.w3.org/1999/02/22-rdf-syntax-ns#">
   <cc:Work>
    <dc:type rdf:resource="http://purl.org/dc/dcmitype/StillImage"/>
    <dc:date>2021-07-08T17:40:15.723520</dc:date>
    <dc:format>image/svg+xml</dc:format>
    <dc:creator>
     <cc:Agent>
      <dc:title>Matplotlib v3.3.2, https://matplotlib.org/</dc:title>
     </cc:Agent>
    </dc:creator>
   </cc:Work>
  </rdf:RDF>
 </metadata>
 <defs>
  <style type="text/css">*{stroke-linecap:butt;stroke-linejoin:round;}</style>
 </defs>
 <g id="figure_1">
  <g id="patch_1">
   <path d="M 0 454.32 
L 1380.96 454.32 
L 1380.96 0 
L 0 0 
z
" style="fill:#ffffff;"/>
  </g>
  <g id="axes_1">
   <g id="patch_2">
    <path d="M 94.21 397.64 
L 1360.622455 397.64 
L 1360.622455 10.8 
L 94.21 10.8 
z
" style="fill:#ffffff;"/>
   </g>
   <g id="matplotlib.axis_1">
    <g id="xtick_1">
     <g id="line2d_1">
      <defs>
       <path d="M 0 0 
L 0 3.5 
" id="m6bd10be800" style="stroke:#000000;stroke-width:0.8;"/>
      </defs>
      <g>
       <use style="stroke:#000000;stroke-width:0.8;" x="256.436389" xlink:href="#m6bd10be800" y="397.64"/>
      </g>
     </g>
     <g id="text_1">
      <!-- 09-11 -->
      <g transform="translate(198.320764 435.03375)scale(0.4 -0.4)">
       <defs>
        <path d="M 31.78125 66.40625 
Q 24.171875 66.40625 20.328125 58.90625 
Q 16.5 51.421875 16.5 36.375 
Q 16.5 21.390625 20.328125 13.890625 
Q 24.171875 6.390625 31.78125 6.390625 
Q 39.453125 6.390625 43.28125 13.890625 
Q 47.125 21.390625 47.125 36.375 
Q 47.125 51.421875 43.28125 58.90625 
Q 39.453125 66.40625 31.78125 66.40625 
z
M 31.78125 74.21875 
Q 44.046875 74.21875 50.515625 64.515625 
Q 56.984375 54.828125 56.984375 36.375 
Q 56.984375 17.96875 50.515625 8.265625 
Q 44.046875 -1.421875 31.78125 -1.421875 
Q 19.53125 -1.421875 13.0625 8.265625 
Q 6.59375 17.96875 6.59375 36.375 
Q 6.59375 54.828125 13.0625 64.515625 
Q 19.53125 74.21875 31.78125 74.21875 
z
" id="DejaVuSans-48"/>
        <path d="M 10.984375 1.515625 
L 10.984375 10.5 
Q 14.703125 8.734375 18.5 7.8125 
Q 22.3125 6.890625 25.984375 6.890625 
Q 35.75 6.890625 40.890625 13.453125 
Q 46.046875 20.015625 46.78125 33.40625 
Q 43.953125 29.203125 39.59375 26.953125 
Q 35.25 24.703125 29.984375 24.703125 
Q 19.046875 24.703125 12.671875 31.3125 
Q 6.296875 37.9375 6.296875 49.421875 
Q 6.296875 60.640625 12.9375 67.421875 
Q 19.578125 74.21875 30.609375 74.21875 
Q 43.265625 74.21875 49.921875 64.515625 
Q 56.59375 54.828125 56.59375 36.375 
Q 56.59375 19.140625 48.40625 8.859375 
Q 40.234375 -1.421875 26.421875 -1.421875 
Q 22.703125 -1.421875 18.890625 -0.6875 
Q 15.09375 0.046875 10.984375 1.515625 
z
M 30.609375 32.421875 
Q 37.25 32.421875 41.125 36.953125 
Q 45.015625 41.5 45.015625 49.421875 
Q 45.015625 57.28125 41.125 61.84375 
Q 37.25 66.40625 30.609375 66.40625 
Q 23.96875 66.40625 20.09375 61.84375 
Q 16.21875 57.28125 16.21875 49.421875 
Q 16.21875 41.5 20.09375 36.953125 
Q 23.96875 32.421875 30.609375 32.421875 
z
" id="DejaVuSans-57"/>
        <path d="M 4.890625 31.390625 
L 31.203125 31.390625 
L 31.203125 23.390625 
L 4.890625 23.390625 
z
" id="DejaVuSans-45"/>
        <path d="M 12.40625 8.296875 
L 28.515625 8.296875 
L 28.515625 63.921875 
L 10.984375 60.40625 
L 10.984375 69.390625 
L 28.421875 72.90625 
L 38.28125 72.90625 
L 38.28125 8.296875 
L 54.390625 8.296875 
L 54.390625 0 
L 12.40625 0 
z
" id="DejaVuSans-49"/>
       </defs>
       <use xlink:href="#DejaVuSans-48"/>
       <use x="63.623047" xlink:href="#DejaVuSans-57"/>
       <use x="127.246094" xlink:href="#DejaVuSans-45"/>
       <use x="163.330078" xlink:href="#DejaVuSans-49"/>
       <use x="226.953125" xlink:href="#DejaVuSans-49"/>
      </g>
     </g>
    </g>
    <g id="xtick_2">
     <g id="line2d_2">
      <g>
       <use style="stroke:#000000;stroke-width:0.8;" x="465.760761" xlink:href="#m6bd10be800" y="397.64"/>
      </g>
     </g>
     <g id="text_2">
      <!-- 09-13 -->
      <g transform="translate(407.645136 435.03375)scale(0.4 -0.4)">
       <defs>
        <path d="M 40.578125 39.3125 
Q 47.65625 37.796875 51.625 33 
Q 55.609375 28.21875 55.609375 21.1875 
Q 55.609375 10.40625 48.1875 4.484375 
Q 40.765625 -1.421875 27.09375 -1.421875 
Q 22.515625 -1.421875 17.65625 -0.515625 
Q 12.796875 0.390625 7.625 2.203125 
L 7.625 11.71875 
Q 11.71875 9.328125 16.59375 8.109375 
Q 21.484375 6.890625 26.8125 6.890625 
Q 36.078125 6.890625 40.9375 10.546875 
Q 45.796875 14.203125 45.796875 21.1875 
Q 45.796875 27.640625 41.28125 31.265625 
Q 36.765625 34.90625 28.71875 34.90625 
L 20.21875 34.90625 
L 20.21875 43.015625 
L 29.109375 43.015625 
Q 36.375 43.015625 40.234375 45.921875 
Q 44.09375 48.828125 44.09375 54.296875 
Q 44.09375 59.90625 40.109375 62.90625 
Q 36.140625 65.921875 28.71875 65.921875 
Q 24.65625 65.921875 20.015625 65.03125 
Q 15.375 64.15625 9.8125 62.3125 
L 9.8125 71.09375 
Q 15.4375 72.65625 20.34375 73.4375 
Q 25.25 74.21875 29.59375 74.21875 
Q 40.828125 74.21875 47.359375 69.109375 
Q 53.90625 64.015625 53.90625 55.328125 
Q 53.90625 49.265625 50.4375 45.09375 
Q 46.96875 40.921875 40.578125 39.3125 
z
" id="DejaVuSans-51"/>
       </defs>
       <use xlink:href="#DejaVuSans-48"/>
       <use x="63.623047" xlink:href="#DejaVuSans-57"/>
       <use x="127.246094" xlink:href="#DejaVuSans-45"/>
       <use x="163.330078" xlink:href="#DejaVuSans-49"/>
       <use x="226.953125" xlink:href="#DejaVuSans-51"/>
      </g>
     </g>
    </g>
    <g id="xtick_3">
     <g id="line2d_3">
      <g>
       <use style="stroke:#000000;stroke-width:0.8;" x="675.085134" xlink:href="#m6bd10be800" y="397.64"/>
      </g>
     </g>
     <g id="text_3">
      <!-- 09-15 -->
      <g transform="translate(616.969509 435.03375)scale(0.4 -0.4)">
       <defs>
        <path d="M 10.796875 72.90625 
L 49.515625 72.90625 
L 49.515625 64.59375 
L 19.828125 64.59375 
L 19.828125 46.734375 
Q 21.96875 47.46875 24.109375 47.828125 
Q 26.265625 48.1875 28.421875 48.1875 
Q 40.625 48.1875 47.75 41.5 
Q 54.890625 34.8125 54.890625 23.390625 
Q 54.890625 11.625 47.5625 5.09375 
Q 40.234375 -1.421875 26.90625 -1.421875 
Q 22.3125 -1.421875 17.546875 -0.640625 
Q 12.796875 0.140625 7.71875 1.703125 
L 7.71875 11.625 
Q 12.109375 9.234375 16.796875 8.0625 
Q 21.484375 6.890625 26.703125 6.890625 
Q 35.15625 6.890625 40.078125 11.328125 
Q 45.015625 15.765625 45.015625 23.390625 
Q 45.015625 31 40.078125 35.4375 
Q 35.15625 39.890625 26.703125 39.890625 
Q 22.75 39.890625 18.8125 39.015625 
Q 14.890625 38.140625 10.796875 36.28125 
z
" id="DejaVuSans-53"/>
       </defs>
       <use xlink:href="#DejaVuSans-48"/>
       <use x="63.623047" xlink:href="#DejaVuSans-57"/>
       <use x="127.246094" xlink:href="#DejaVuSans-45"/>
       <use x="163.330078" xlink:href="#DejaVuSans-49"/>
       <use x="226.953125" xlink:href="#DejaVuSans-53"/>
      </g>
     </g>
    </g>
    <g id="xtick_4">
     <g id="line2d_4">
      <g>
       <use style="stroke:#000000;stroke-width:0.8;" x="884.409507" xlink:href="#m6bd10be800" y="397.64"/>
      </g>
     </g>
     <g id="text_4">
      <!-- 09-17 -->
      <g transform="translate(826.293882 435.03375)scale(0.4 -0.4)">
       <defs>
        <path d="M 8.203125 72.90625 
L 55.078125 72.90625 
L 55.078125 68.703125 
L 28.609375 0 
L 18.3125 0 
L 43.21875 64.59375 
L 8.203125 64.59375 
z
" id="DejaVuSans-55"/>
       </defs>
       <use xlink:href="#DejaVuSans-48"/>
       <use x="63.623047" xlink:href="#DejaVuSans-57"/>
       <use x="127.246094" xlink:href="#DejaVuSans-45"/>
       <use x="163.330078" xlink:href="#DejaVuSans-49"/>
       <use x="226.953125" xlink:href="#DejaVuSans-55"/>
      </g>
     </g>
    </g>
    <g id="xtick_5">
     <g id="line2d_5">
      <g>
       <use style="stroke:#000000;stroke-width:0.8;" x="1093.733879" xlink:href="#m6bd10be800" y="397.64"/>
      </g>
     </g>
     <g id="text_5">
      <!-- 09-19 -->
      <g transform="translate(1035.618254 435.03375)scale(0.4 -0.4)">
       <use xlink:href="#DejaVuSans-48"/>
       <use x="63.623047" xlink:href="#DejaVuSans-57"/>
       <use x="127.246094" xlink:href="#DejaVuSans-45"/>
       <use x="163.330078" xlink:href="#DejaVuSans-49"/>
       <use x="226.953125" xlink:href="#DejaVuSans-57"/>
      </g>
     </g>
    </g>
    <g id="xtick_6">
     <g id="line2d_6">
      <g>
       <use style="stroke:#000000;stroke-width:0.8;" x="1303.058252" xlink:href="#m6bd10be800" y="397.64"/>
      </g>
     </g>
     <g id="text_6">
      <!-- 09-21 -->
      <g transform="translate(1244.942627 435.03375)scale(0.4 -0.4)">
       <defs>
        <path d="M 19.1875 8.296875 
L 53.609375 8.296875 
L 53.609375 0 
L 7.328125 0 
L 7.328125 8.296875 
Q 12.9375 14.109375 22.625 23.890625 
Q 32.328125 33.6875 34.8125 36.53125 
Q 39.546875 41.84375 41.421875 45.53125 
Q 43.3125 49.21875 43.3125 52.78125 
Q 43.3125 58.59375 39.234375 62.25 
Q 35.15625 65.921875 28.609375 65.921875 
Q 23.96875 65.921875 18.8125 64.3125 
Q 13.671875 62.703125 7.8125 59.421875 
L 7.8125 69.390625 
Q 13.765625 71.78125 18.9375 73 
Q 24.125 74.21875 28.421875 74.21875 
Q 39.75 74.21875 46.484375 68.546875 
Q 53.21875 62.890625 53.21875 53.421875 
Q 53.21875 48.921875 51.53125 44.890625 
Q 49.859375 40.875 45.40625 35.40625 
Q 44.1875 33.984375 37.640625 27.21875 
Q 31.109375 20.453125 19.1875 8.296875 
z
" id="DejaVuSans-50"/>
       </defs>
       <use xlink:href="#DejaVuSans-48"/>
       <use x="63.623047" xlink:href="#DejaVuSans-57"/>
       <use x="127.246094" xlink:href="#DejaVuSans-45"/>
       <use x="163.330078" xlink:href="#DejaVuSans-50"/>
       <use x="226.953125" xlink:href="#DejaVuSans-49"/>
      </g>
     </g>
    </g>
   </g>
   <g id="matplotlib.axis_2">
    <g id="ytick_1">
     <g id="line2d_7">
      <defs>
       <path d="M 0 0 
L -3.5 0 
" id="m9acdd917c8" style="stroke:#000000;stroke-width:0.8;"/>
      </defs>
      <g>
       <use style="stroke:#000000;stroke-width:0.8;" x="94.21" xlink:href="#m9acdd917c8" y="397.64"/>
      </g>
     </g>
     <g id="text_7">
      <!-- 0 -->
      <g transform="translate(61.76 412.836875)scale(0.4 -0.4)">
       <use xlink:href="#DejaVuSans-48"/>
      </g>
     </g>
    </g>
    <g id="ytick_2">
     <g id="line2d_8">
      <g>
       <use style="stroke:#000000;stroke-width:0.8;" x="94.21" xlink:href="#m9acdd917c8" y="242.904"/>
      </g>
     </g>
     <g id="text_8">
      <!-- 100 -->
      <g transform="translate(10.86 258.100875)scale(0.4 -0.4)">
       <use xlink:href="#DejaVuSans-49"/>
       <use x="63.623047" xlink:href="#DejaVuSans-48"/>
       <use x="127.246094" xlink:href="#DejaVuSans-48"/>
      </g>
     </g>
    </g>
    <g id="ytick_3">
     <g id="line2d_9">
      <g>
       <use style="stroke:#000000;stroke-width:0.8;" x="94.21" xlink:href="#m9acdd917c8" y="88.168"/>
      </g>
     </g>
     <g id="text_9">
      <!-- 200 -->
      <g transform="translate(10.86 103.364875)scale(0.4 -0.4)">
       <use xlink:href="#DejaVuSans-50"/>
       <use x="63.623047" xlink:href="#DejaVuSans-48"/>
       <use x="127.246094" xlink:href="#DejaVuSans-48"/>
      </g>
     </g>
    </g>
   </g>
   <g id="line2d_10">
    <path clip-path="url(#peb590e00e5)" d="M 151.774202 357.523582 
L 156.135127 362.54299 
L 160.496051 353.525926 
L 164.856976 349.920654 
L 169.2179 351.101691 
L 173.578825 347.05353 
L 177.939749 349.48165 
L 182.300673 350.262533 
L 186.661598 343.156884 
L 191.022522 348.867821 
L 195.383447 357.970355 
L 199.744371 356.731043 
L 204.105296 353.032123 
L 208.46622 348.172408 
L 212.827145 347.267205 
L 217.188069 342.309956 
L 221.548993 341.835987 
L 225.909918 338.378345 
L 230.270842 335.087758 
L 234.631767 337.232273 
L 238.992691 341.043449 
L 243.353616 339.644852 
L 247.71454 318.70475 
L 252.075464 294.209881 
L 256.436389 302.733551 
L 260.797313 277.694784 
L 265.158238 246.719749 
L 269.519162 260.534778 
L 273.880087 266.762419 
L 278.241011 267.088758 
L 282.601935 261.385591 
L 286.96286 251.634263 
L 291.323784 233.374805 
L 295.684709 223.398147 
L 300.045633 205.029909 
L 304.406558 179.346233 
L 308.767482 133.569382 
L 313.128406 197.213307 
L 317.489331 221.086578 
L 321.850255 230.418326 
L 326.21118 241.191407 
L 330.572104 249.155639 
L 334.933029 254.408147 
L 339.293953 264.264369 
L 343.654877 191.54899 
L 348.015802 150.807088 
L 352.376726 138.359576 
L 356.737651 143.25855 
L 361.098575 154.159835 
L 365.4595 161.984208 
L 369.820424 169.389001 
L 374.181348 185.775893 
L 378.542273 199.486027 
L 382.903197 206.855855 
L 387.264122 212.438587 
L 391.625046 213.203931 
L 395.985971 209.214045 
L 400.346895 206.273107 
L 404.707819 216.704308 
L 409.068744 220.589299 
L 413.429668 216.611068 
L 417.790593 214.221798 
L 422.151517 214.831742 
L 426.512442 214.427703 
L 430.873366 217.104462 
L 435.23429 217.003452 
L 439.595215 215.251321 
L 443.956139 215.931195 
L 448.317064 217.337561 
L 452.677988 227.850347 
L 457.038913 231.234175 
L 461.399837 233.844889 
L 465.760761 236.024369 
L 470.121686 231.164245 
L 474.48261 225.181358 
L 478.843535 224.870559 
L 483.204459 228.367051 
L 487.565384 229.396574 
L 491.926308 226.016631 
L 496.287232 220.0454 
L 500.648157 218.922638 
L 505.009081 218.876018 
L 509.370006 218.308809 
L 513.73093 213.38264 
L 518.091855 211.692669 
L 522.452779 222.454095 
L 526.813703 227.364723 
L 531.174628 217.706635 
L 535.535552 199.136378 
L 539.896477 193.507026 
L 544.257401 198.00973 
L 548.618326 207.601774 
L 552.97925 211.41295 
L 557.340174 214.991027 
L 561.701099 219.555891 
L 566.062023 223.056268 
L 570.422948 223.872116 
L 574.783872 222.846479 
L 579.144797 222.026746 
L 583.505721 225.033729 
L 587.866646 232.570612 
L 592.22757 238.048449 
L 596.588494 237.283106 
L 600.949419 230.558186 
L 605.310343 233.444735 
L 609.671268 227.368608 
L 614.032192 226.016631 
L 618.393117 211.708209 
L 622.754041 218.510829 
L 627.114965 228.615691 
L 631.47589 274.88982 
L 635.836814 283.440686 
L 640.197739 283.735945 
L 644.558663 287.376182 
L 648.919588 252.772565 
L 653.280512 200.558285 
L 657.641436 207.566809 
L 662.002361 213.945964 
L 666.363285 219.043072 
L 670.72421 221.032188 
L 675.085134 220.849593 
L 679.446059 217.038417 
L 688.167907 212.022893 
L 696.889756 219.124657 
L 701.250681 216.583873 
L 705.611605 217.232667 
L 709.97253 216.914097 
L 714.333454 206.047777 
L 718.694378 231.607134 
L 723.055303 269.241043 
L 727.416227 280.42519 
L 731.777152 285.289941 
L 736.138076 292.201341 
L 740.499001 308.906802 
L 744.859925 304.858642 
L 749.220849 297.061464 
L 753.581774 242.17431 
L 757.942698 230.791286 
L 762.303623 231.638214 
L 766.664547 233.009616 
L 771.025472 231.463389 
L 775.386396 234.676277 
L 779.74732 240.783483 
L 784.108245 253.258189 
L 788.469169 263.910835 
L 792.830094 269.299318 
L 797.191018 273.444603 
L 801.551943 274.481896 
L 805.912867 278.530057 
L 810.273791 285.80276 
L 814.634716 289.279827 
L 818.99564 291.641902 
L 823.356565 298.798055 
L 827.717489 304.512877 
L 832.078414 307.399426 
L 836.439338 327.150721 
L 840.800262 333.094757 
L 845.161187 335.790941 
L 849.522111 337.760632 
L 853.883036 339.586577 
L 858.24396 342.061317 
L 862.604885 325.600609 
L 866.965809 309.578906 
L 871.326733 270.830004 
L 875.687658 281.770139 
L 880.048582 294.780975 
L 884.409507 295.701718 
L 888.770431 289.466307 
L 893.131356 281.051416 
L 897.49228 285.620166 
L 901.853204 297.030385 
L 906.214129 297.554858 
L 910.575053 302.772401 
L 914.935978 317.892787 
L 919.296902 324.776991 
L 923.657827 324.936276 
L 928.018751 321.171719 
L 932.379675 326.377608 
L 936.7406 337.935456 
L 941.101524 351.64559 
L 945.462449 348.658032 
L 949.823373 324.621592 
L 954.184298 324.198128 
L 958.545222 322.803416 
L 962.906147 328.374493 
L 967.267071 332.585823 
L 975.98892 332.325529 
L 980.349844 332.465389 
L 984.710769 332.881083 
L 993.432618 334.407884 
L 997.793542 333.88341 
L 1002.154466 332.449849 
L 1006.515391 331.82048 
L 1010.876315 330.219864 
L 1015.23724 329.52445 
L 1019.598164 329.761435 
L 1023.959089 324.042728 
L 1028.320013 320.289826 
L 1032.680937 320.118887 
L 1037.041862 318.238551 
L 1041.402786 321.268844 
L 1045.763711 330.449078 
L 1054.48556 343.541498 
L 1058.846484 344.330152 
L 1063.207408 344.563251 
L 1067.568333 348.797891 
L 1071.929257 352.869362 
L 1076.290182 354.291269 
L 1080.651106 355.025532 
L 1085.012031 357.107887 
L 1089.372955 364.469946 
L 1093.733879 377.849855 
L 1098.094804 386.61828 
L 1102.455728 391.260845 
L 1106.816653 394.963241 
L 1111.177577 396.525008 
L 1115.538502 397.131066 
L 1119.899426 397.441865 
L 1128.621275 397.535105 
L 1137.343124 397.581725 
L 1163.50867 397.53899 
L 1172.230519 397.395246 
L 1180.952368 396.867295 
L 1189.674217 396.952357 
L 1194.035141 397.255386 
L 1211.478839 397.51568 
L 1220.200688 397.169916 
L 1228.922537 397.53899 
L 1237.644386 397.62446 
L 1259.449008 397.566185 
L 1276.892705 397.589495 
L 1281.25363 397.527335 
L 1285.614554 397.263156 
L 1289.975479 396.373493 
L 1294.336403 395.63923 
L 1298.697328 395.149721 
L 1303.058252 394.127968 
L 1303.058252 394.127968 
" style="fill:none;stroke:#0000ff;stroke-linecap:square;stroke-width:3;"/>
   </g>
   <g id="line2d_11">
    <path clip-path="url(#peb590e00e5)" d="M 151.774202 358.038238 
L 156.135127 362.470264 
L 160.496051 354.877903 
L 164.856976 351.037589 
L 169.2179 352.49446 
L 173.578825 348.374427 
L 177.939749 349.918711 
L 182.300673 351.183276 
L 186.661598 344.755558 
L 191.022522 349.650647 
L 195.383447 357.867403 
L 199.744371 331.801055 
L 204.105296 327.884984 
L 208.46622 332.115739 
L 212.827145 329.149549 
L 217.188069 327.016689 
L 221.548993 330.093602 
L 225.909918 315.822087 
L 230.270842 309.231199 
L 234.631767 314.196218 
L 238.992691 307.185751 
L 243.353616 293.735912 
L 247.71454 290.152008 
L 252.075464 290.798859 
L 256.436389 298.93403 
L 260.797313 257.372395 
L 265.158238 241.346807 
L 269.519162 247.518115 
L 273.880087 249.965659 
L 278.241011 243.584561 
L 282.601935 233.992518 
L 286.96286 218.409819 
L 291.323784 198.567227 
L 295.684709 188.683809 
L 300.045633 171.679203 
L 304.406558 151.25969 
L 308.767482 93.276197 
L 313.128406 100.846102 
L 317.489331 93.998805 
L 321.850255 117.477749 
L 326.21118 144.569735 
L 330.572104 151.224725 
L 334.933029 143.963676 
L 339.293953 145.62451 
L 343.654877 160.397189 
L 348.015802 128.21198 
L 352.376726 116.283114 
L 356.737651 122.920622 
L 361.098575 134.832005 
L 365.4595 136.149016 
L 369.820424 147.972987 
L 374.181348 165.554514 
L 378.542273 173.823718 
L 382.903197 182.833013 
L 387.264122 185.01832 
L 391.625046 186.527639 
L 400.346895 181.486863 
L 404.707819 181.510173 
L 409.068744 177.605757 
L 413.429668 172.285262 
L 417.790593 167.745649 
L 422.151517 172.908803 
L 426.512442 174.476397 
L 430.873366 184.447226 
L 435.23429 179.843512 
L 439.595215 175.956578 
L 443.956139 175.362175 
L 448.317064 172.763115 
L 452.677988 183.503173 
L 457.038913 183.934407 
L 461.399837 188.4274 
L 465.760761 187.191973 
L 470.121686 179.278246 
L 474.48261 176.900631 
L 478.843535 177.809719 
L 483.204459 185.665171 
L 487.565384 187.815514 
L 491.926308 181.096421 
L 496.287232 171.772443 
L 500.648157 173.299244 
L 505.009081 172.803908 
L 509.370006 171.236314 
L 513.73093 166.912319 
L 518.091855 174.913458 
L 522.452779 185.536966 
L 526.813703 189.301523 
L 531.174628 175.472897 
L 535.535552 151.084865 
L 539.896477 150.432186 
L 544.257401 154.400705 
L 548.618326 165.403 
L 552.97925 165.37969 
L 557.340174 167.862199 
L 561.701099 173.468241 
L 566.062023 173.293417 
L 570.422948 171.312071 
L 574.783872 178.491535 
L 579.144797 171.486896 
L 583.505721 176.46357 
L 587.866646 184.517156 
L 596.588494 184.074267 
L 600.949419 178.922769 
L 605.310343 186.189645 
L 609.671268 174.726978 
L 614.032192 174.866838 
L 618.393117 155.723544 
L 622.754041 172.361019 
L 627.114965 176.148885 
L 631.47589 163.555686 
L 635.836814 160.76432 
L 640.197739 150.880903 
L 644.558663 149.383239 
L 648.919588 161.789958 
L 653.280512 175.630239 
L 657.641436 172.652393 
L 662.002361 176.638394 
L 666.363285 175.799236 
L 670.72421 170.094127 
L 675.085134 168.042851 
L 679.446059 161.99392 
L 683.806983 165.070833 
L 688.167907 162.232847 
L 692.528832 161.079005 
L 696.889756 163.509067 
L 701.250681 162.559186 
L 705.611605 162.011403 
L 709.97253 170.239814 
L 714.333454 158.683908 
L 718.694378 157.838922 
L 727.416227 177.005526 
L 731.777152 179.412278 
L 736.138076 226.172031 
L 740.499001 234.31303 
L 744.859925 212.343405 
L 749.220849 197.949513 
L 753.581774 208.788638 
L 757.942698 201.486797 
L 762.303623 207.075357 
L 766.664547 202.652295 
L 771.025472 205.601003 
L 775.386396 210.169753 
L 779.74732 215.257149 
L 784.108245 230.874813 
L 788.469169 239.493666 
L 792.830094 241.125362 
L 797.191018 244.429547 
L 801.551943 247.273361 
L 805.912867 251.574046 
L 810.273791 250.542581 
L 814.634716 255.781491 
L 818.99564 259.260501 
L 823.356565 268.147418 
L 827.717489 282.331521 
L 832.078414 279.143885 
L 836.439338 286.661343 
L 840.800262 292.651999 
L 845.161187 297.203267 
L 849.522111 299.656639 
L 858.24396 301.13682 
L 862.604885 300.02377 
L 866.965809 285.390951 
L 871.326733 242.809506 
L 875.687658 269.551842 
L 880.048582 280.787237 
L 884.409507 276.276762 
L 888.770431 272.89682 
L 893.131356 260.851405 
L 897.49228 272.302416 
L 901.853204 278.642721 
L 906.214129 277.716151 
L 910.575053 289.918908 
L 914.935978 305.326783 
L 919.296902 314.4468 
L 923.657827 310.804621 
L 928.018751 308.782483 
L 932.379675 323.246305 
L 936.7406 337.086586 
L 941.101524 336.05512 
L 945.462449 325.105273 
L 949.823373 323.724159 
L 954.184298 321.451439 
L 958.545222 319.353544 
L 962.906147 310.589004 
L 967.267071 305.839602 
L 971.627995 302.284835 
L 975.98892 302.098355 
L 980.349844 303.164786 
L 984.710769 303.625157 
L 989.071693 302.768516 
L 993.432618 301.573882 
L 997.793542 296.981822 
L 1002.154466 294.994649 
L 1006.515391 297.005132 
L 1010.876315 320.151909 
L 1015.23724 317.52954 
L 1019.598164 312.01091 
L 1023.959089 301.428194 
L 1028.320013 303.240543 
L 1032.680937 305.454988 
L 1037.041862 299.21375 
L 1041.402786 308.607658 
L 1045.763711 325.944431 
L 1050.124635 328.502698 
L 1054.48556 335.419924 
L 1058.846484 335.810366 
L 1063.207408 338.25791 
L 1067.568333 337.914089 
L 1071.929257 337.057448 
L 1076.290182 335.792884 
L 1080.651106 337.005001 
L 1085.012031 348.176293 
L 1089.372955 375.804407 
L 1093.733879 386.078266 
L 1098.094804 390.687808 
L 1102.455728 394.452365 
L 1106.816653 396.468675 
L 1111.177577 397.033941 
L 1115.538502 397.127181 
L 1132.982199 396.754222 
L 1137.343124 397.290351 
L 1141.704048 397.459348 
L 1146.064973 396.946529 
L 1150.425897 396.795014 
L 1154.786821 397.406901 
L 1159.147746 395.565415 
L 1163.50867 395.903409 
L 1167.869595 394.988494 
L 1172.230519 392.943046 
L 1176.591444 390.670326 
L 1180.952368 391.998993 
L 1185.313292 391.649344 
L 1189.674217 395.565415 
L 1194.035141 395.716929 
L 1198.396066 395.711102 
L 1202.75699 396.422055 
L 1207.117915 396.322988 
L 1211.478839 393.129525 
L 1215.839763 391.293867 
L 1220.200688 392.995493 
L 1224.561612 395.810169 
L 1228.922537 397.59338 
L 1237.644386 397.191284 
L 1242.00531 397.336971 
L 1246.366234 395.705274 
L 1250.727159 396.474503 
L 1259.449008 397.494313 
L 1263.809932 397.412728 
L 1268.170857 397.587553 
L 1276.892705 397.418556 
L 1281.25363 395.658655 
L 1285.614554 390.157507 
L 1294.336403 388.129542 
L 1298.697328 383.316038 
L 1303.058252 384.172678 
L 1303.058252 384.172678 
" style="fill:none;stroke:#ff0000;stroke-linecap:square;stroke-width:3;"/>
   </g>
   <g id="line2d_12">
    <path clip-path="url(#peb590e00e5)" d="M 151.774202 375.20328 
L 156.135127 375.744856 
L 160.496051 372.804872 
L 164.856976 370.096992 
L 169.2179 364.294392 
L 173.578825 362.360192 
L 177.939749 361.509144 
L 182.300673 351.528672 
L 186.661598 354.31392 
L 191.022522 345.571336 
L 195.383447 343.09556 
L 199.744371 348.51132 
L 204.105296 341.006624 
L 208.46622 347.273432 
L 212.827145 343.405032 
L 217.188069 343.637136 
L 221.548993 337.370328 
L 225.909918 334.97192 
L 230.270842 329.091952 
L 234.631767 327.699328 
L 238.992691 331.722464 
L 243.353616 324.295136 
L 247.71454 330.097736 
L 252.075464 328.937216 
L 256.436389 314.624136 
L 260.797313 291.026896 
L 265.158238 279.034856 
L 269.519162 289.556904 
L 273.880087 290.562688 
L 278.241011 278.570648 
L 282.601935 267.042816 
L 286.96286 241.124536 
L 291.323784 224.026208 
L 295.684709 213.272056 
L 300.045633 192.846904 
L 304.406558 158.57288 
L 308.767482 121.281504 
L 313.128406 101.630032 
L 317.489331 117.645208 
L 321.850255 128.863568 
L 326.21118 185.496944 
L 330.572104 213.272056 
L 334.933029 221.008856 
L 339.293953 219.848336 
L 343.654877 194.316896 
L 348.015802 162.209176 
L 352.376726 169.636504 
L 356.737651 159.191824 
L 361.098575 170.255448 
L 365.4595 173.2728 
L 374.181348 186.270624 
L 378.542273 190.216392 
L 382.903197 193.233744 
L 387.264122 195.941624 
L 391.625046 190.371128 
L 395.985971 190.448496 
L 400.346895 177.1412 
L 404.707819 175.748576 
L 409.068744 179.46224 
L 413.429668 173.504904 
L 417.790593 170.797024 
L 422.151517 173.427536 
L 426.512442 169.79124 
L 430.873366 176.986464 
L 435.23429 172.731224 
L 439.595215 173.427536 
L 443.956139 178.843296 
L 448.317064 189.13324 
L 452.677988 193.543216 
L 457.038913 195.167944 
L 461.399837 197.64372 
L 465.760761 195.167944 
L 470.121686 198.185296 
L 474.48261 192.460064 
L 478.843535 191.45428 
L 483.204459 200.661072 
L 487.565384 200.661072 
L 491.926308 199.732656 
L 496.287232 200.428968 
L 500.648157 192.22796 
L 505.009081 173.350168 
L 509.370006 173.118064 
L 513.73093 167.005992 
L 518.091855 170.95176 
L 522.452779 171.029128 
L 526.813703 162.673384 
L 531.174628 151.841864 
L 535.535552 132.964072 
L 539.896477 124.376224 
L 544.257401 123.447808 
L 548.618326 136.058792 
L 552.97925 142.248232 
L 557.340174 145.03348 
L 561.701099 149.752928 
L 566.062023 150.83608 
L 570.422948 157.180256 
L 574.783872 152.77028 
L 579.144797 161.822336 
L 583.505721 164.220744 
L 587.866646 167.624936 
L 592.22757 134.5888 
L 596.588494 163.21496 
L 600.949419 164.607584 
L 605.310343 154.240272 
L 609.671268 145.03348 
L 614.032192 137.760888 
L 618.393117 129.94672 
L 622.754041 123.679912 
L 627.114965 117.877312 
L 631.47589 107.355264 
L 635.836814 97.839 
L 640.197739 105.807904 
L 644.558663 111.533136 
L 648.919588 127.393576 
L 653.280512 134.434064 
L 657.641436 136.600368 
L 662.002361 139.23088 
L 666.363285 136.445632 
L 670.72421 139.153512 
L 675.085134 135.285112 
L 679.446059 138.921408 
L 683.806983 143.563488 
L 688.167907 147.663992 
L 692.528832 149.28872 
L 696.889756 143.950328 
L 701.250681 148.050832 
L 705.611605 140.700872 
L 709.97253 91.26272 
L 714.333454 95.9048 
L 718.694378 132.6546 
L 723.055303 131.339344 
L 727.416227 145.03348 
L 731.777152 146.116632 
L 736.138076 161.744968 
L 740.499001 147.431888 
L 744.859925 161.977072 
L 749.220849 168.475984 
L 757.942698 171.802808 
L 762.303623 176.676992 
L 766.664547 178.998032 
L 771.025472 177.52804 
L 775.386396 192.382696 
L 779.74732 203.910528 
L 784.108245 218.455712 
L 788.469169 226.424616 
L 792.830094 229.287232 
L 797.191018 233.078264 
L 801.551943 241.820848 
L 805.912867 237.87508 
L 810.273791 235.399304 
L 814.634716 238.958232 
L 818.99564 233.61984 
L 823.356565 256.211296 
L 827.717489 257.449184 
L 832.078414 257.21708 
L 836.439338 273.46436 
L 840.800262 274.005936 
L 845.161187 286.152712 
L 849.522111 291.491104 
L 853.883036 284.063776 
L 858.24396 282.516416 
L 862.604885 281.510632 
L 866.965809 273.309624 
L 871.326733 275.862768 
L 875.687658 288.860592 
L 880.048582 289.3248 
L 884.409507 281.897472 
L 888.770431 268.899648 
L 893.131356 275.475928 
L 897.49228 283.754304 
L 901.853204 264.876512 
L 906.214129 266.733344 
L 910.575053 284.218512 
L 914.935978 295.591608 
L 919.296902 291.568472 
L 923.657827 293.812144 
L 928.018751 320.194632 
L 932.379675 338.144008 
L 936.7406 336.828752 
L 941.101524 327.003016 
L 945.462449 316.326232 
L 949.823373 318.3378 
L 954.184298 320.813576 
L 958.545222 310.910472 
L 967.267071 307.274176 
L 971.627995 309.285744 
L 975.98892 310.98784 
L 980.349844 309.44048 
L 984.710769 308.821536 
L 989.071693 307.428912 
L 993.432618 309.904688 
L 997.793542 306.113656 
L 1002.154466 308.125224 
L 1006.515391 311.606784 
L 1010.876315 308.434696 
L 1015.23724 306.964704 
L 1023.959089 301.31684 
L 1028.320013 303.173672 
L 1032.680937 297.44844 
L 1037.041862 309.82732 
L 1041.402786 327.080384 
L 1045.763711 328.318272 
L 1050.124635 343.09556 
L 1054.48556 354.778128 
L 1058.846484 354.623392 
L 1063.207408 353.617608 
L 1067.568333 355.0876 
L 1071.929257 352.998664 
L 1076.290182 359.34284 
L 1080.651106 360.580728 
L 1085.012031 373.733288 
L 1089.372955 382.630608 
L 1093.733879 386.80848 
L 1098.094804 388.820048 
L 1102.455728 391.373192 
L 1111.177577 394.700016 
L 1115.538502 389.825832 
L 1119.899426 389.671096 
L 1124.26035 388.433208 
L 1128.621275 389.671096 
L 1132.982199 392.920552 
L 1137.343124 393.848968 
L 1141.704048 391.992136 
L 1146.064973 393.38476 
L 1150.425897 393.152656 
L 1154.786821 390.831616 
L 1159.147746 389.9032 
L 1163.50867 391.295824 
L 1167.869595 388.974784 
L 1172.230519 389.9032 
L 1176.591444 388.433208 
L 1180.952368 388.433208 
L 1185.313292 390.986352 
L 1189.674217 391.45056 
L 1194.035141 390.67688 
L 1198.396066 391.373192 
L 1202.75699 392.22424 
L 1211.478839 392.146872 
L 1215.839763 385.183752 
L 1220.200688 388.201104 
L 1224.561612 391.605296 
L 1228.922537 392.765816 
L 1233.283461 390.367408 
L 1237.644386 390.67688 
L 1242.00531 388.665312 
L 1246.366234 389.284256 
L 1250.727159 392.069504 
L 1255.088083 390.522144 
L 1259.449008 391.06372 
L 1263.809932 388.897416 
L 1268.170857 391.218456 
L 1272.531781 392.920552 
L 1276.892705 391.760032 
L 1281.25363 387.040584 
L 1285.614554 386.885848 
L 1289.975479 387.19532 
L 1294.336403 386.112168 
L 1298.697328 383.017448 
L 1303.058252 388.974784 
L 1303.058252 388.974784 
" style="fill:none;stroke:#008000;stroke-linecap:square;stroke-width:3;"/>
   </g>
   <g id="patch_3">
    <path d="M 94.21 397.64 
L 94.21 10.8 
" style="fill:none;stroke:#000000;stroke-linecap:square;stroke-linejoin:miter;stroke-width:0.8;"/>
   </g>
   <g id="patch_4">
    <path d="M 1360.622455 397.64 
L 1360.622455 10.8 
" style="fill:none;stroke:#000000;stroke-linecap:square;stroke-linejoin:miter;stroke-width:0.8;"/>
   </g>
   <g id="patch_5">
    <path d="M 94.21 397.64 
L 1360.622455 397.64 
" style="fill:none;stroke:#000000;stroke-linecap:square;stroke-linejoin:miter;stroke-width:0.8;"/>
   </g>
   <g id="patch_6">
    <path d="M 94.21 10.8 
L 1360.622455 10.8 
" style="fill:none;stroke:#000000;stroke-linecap:square;stroke-linejoin:miter;stroke-width:0.8;"/>
   </g>
  </g>
 </g>
 <defs>
  <clipPath id="peb590e00e5">
   <rect height="386.84" width="1266.412455" x="94.21" y="10.8"/>
  </clipPath>
 </defs>
</svg>
